{"glyphs":{"0":{"ha":794,"x_min":139,"x_max":615,"o":"m 139 535 q 145 549 139 543 q 159 555 151 555 q 173 549 167 555 q 179 535 179 543 l 179 258 q 237 118 179 176 q 377 60 295 60 q 517 118 459 60 q 575 258 575 176 l 575 535 q 581 549 575 543 q 595 555 587 555 q 609 549 603 555 q 615 535 615 543 l 615 258 q 545 90 615 160 q 377 20 475 20 q 209 90 279 20 q 139 258 139 160 l 139 535 m 615 776 q 609 762 615 768 q 595 756 603 756 q 581 762 587 756 q 575 776 575 768 l 575 1053 q 517 1193 575 1135 q 377 1251 459 1251 q 237 1193 295 1251 q 179 1053 179 1135 l 179 776 q 173 762 179 768 q 159 756 167 756 q 145 762 151 756 q 139 776 139 768 l 139 1053 q 209 1221 139 1151 q 377 1291 279 1291 q 545 1221 475 1291 q 615 1053 615 1151 l 615 776 z "},"1":{"ha":614,"x_min":61,"x_max":458,"o":"m 80 40 q 66 46 72 40 q 61 60 61 52 q 66 73 61 67 q 80 79 72 79 l 259 79 l 259 1231 l 81 1231 q 67 1237 73 1231 q 62 1251 62 1243 q 67 1265 62 1259 q 81 1271 73 1271 l 280 1271 q 294 1266 288 1271 q 299 1251 299 1260 l 299 79 l 438 79 q 452 73 446 79 q 458 60 458 67 q 452 46 458 52 q 438 40 446 40 l 80 40 z "},"2":{"ha":734,"x_min":99,"x_max":575,"o":"m 194 1188 q 180 1183 188 1183 q 166 1188 172 1183 q 160 1202 160 1194 q 166 1216 160 1209 q 337 1290 239 1290 q 505 1220 436 1290 q 575 1052 575 1150 l 575 1051 q 357 670 575 888 q 139 278 139 452 l 139 79 l 556 79 q 569 73 563 79 q 575 60 575 67 q 569 46 575 52 q 556 40 563 40 l 119 40 q 105 46 111 40 q 99 60 99 52 l 99 278 q 317 687 99 469 q 536 1051 536 904 q 478 1190 536 1132 q 337 1249 421 1249 q 194 1188 256 1249 z "},"3":{"ha":714,"x_min":101,"x_max":517,"o":"m 318 636 q 305 642 311 636 q 299 656 299 648 q 305 670 299 664 q 318 676 311 676 l 319 676 q 432 722 386 676 q 477 834 477 769 l 477 1053 q 420 1191 477 1133 q 279 1250 362 1250 q 136 1190 198 1250 q 121 1184 129 1184 q 107 1189 113 1184 q 101 1203 101 1195 q 107 1217 101 1210 q 279 1291 181 1291 q 447 1221 377 1291 q 517 1053 517 1151 l 517 834 q 459 694 517 753 q 414 656 454 690 q 460 617 455 620 q 517 477 517 560 l 517 258 q 447 90 517 160 q 279 20 377 20 q 107 93 181 20 q 101 107 101 100 q 107 121 101 115 q 121 127 113 127 q 136 121 130 127 q 279 61 196 61 q 420 119 362 61 q 477 258 477 178 l 477 477 q 432 589 477 543 q 319 636 386 636 l 318 636 z "},"4":{"ha":813,"x_min":99,"x_max":595,"o":"m 556 1011 q 562 1025 556 1019 q 575 1031 567 1031 q 589 1025 583 1031 q 595 1011 595 1019 l 595 59 q 589 45 595 51 q 575 39 583 39 q 562 45 567 39 q 556 59 556 51 l 556 396 l 119 396 q 105 402 111 396 q 99 416 99 408 q 101 423 99 419 l 258 1242 q 265 1263 259 1257 q 278 1270 271 1270 q 292 1264 286 1270 q 298 1250 298 1258 q 297 1239 298 1244 l 144 436 l 556 436 l 556 1011 z "},"5":{"ha":754,"x_min":139,"x_max":556,"o":"m 179 833 q 316 874 241 874 q 485 804 415 874 q 556 635 555 734 l 556 258 q 484 89 554 159 q 315 19 414 19 q 177 62 230 19 q 146 91 159 75 q 140 105 140 98 q 146 119 140 113 q 160 125 152 125 q 176 118 169 125 q 315 60 233 60 q 456 118 399 60 q 516 258 514 177 l 516 635 q 457 775 515 716 q 316 833 400 833 q 174 774 236 833 q 159 767 167 767 q 145 773 151 767 q 139 786 139 779 l 139 1251 q 145 1265 139 1259 q 159 1271 151 1271 l 536 1271 q 550 1265 544 1271 q 556 1251 556 1259 q 550 1237 556 1243 q 536 1231 544 1231 l 179 1231 l 179 833 z "},"6":{"ha":794,"x_min":119,"x_max":595,"o":"m 374 754 q 363 760 369 754 q 357 774 357 766 q 363 788 357 782 q 381 794 369 794 q 526 725 463 787 q 595 557 595 655 l 595 257 q 525 89 595 159 q 357 19 455 19 q 189 89 259 19 q 119 257 119 159 l 119 1011 l 120 1011 l 120 1052 q 190 1220 120 1150 q 358 1290 260 1290 q 526 1220 456 1290 q 534 1203 534 1212 q 528 1189 534 1195 q 514 1184 522 1184 q 498 1190 506 1184 q 358 1249 440 1249 q 217 1190 275 1249 q 160 1090 160 1132 l 159 1090 l 159 257 q 217 117 159 175 q 357 59 275 59 q 498 117 439 59 q 556 257 556 175 l 556 557 q 497 696 556 639 q 374 754 445 749 z "},"7":{"ha":575,"x_min":40,"x_max":436,"o":"m 417 1270 q 431 1265 425 1270 q 436 1250 436 1259 q 423 1194 436 1247 l 425 1194 l 178 54 q 173 45 177 49 q 160 40 168 40 q 146 46 152 40 q 140 60 140 52 q 141 69 140 65 l 393 1230 l 60 1230 q 46 1236 52 1230 q 40 1250 40 1242 q 46 1264 40 1258 q 60 1270 52 1270 l 417 1270 z "},"8":{"ha":795,"x_min":119,"x_max":595,"o":"m 456 685 q 462 699 456 693 q 463 700 462 699 q 497 728 481 712 q 556 868 556 786 l 556 1067 q 497 1207 556 1150 q 471 1230 487 1218 q 461 1236 464 1234 q 456 1250 456 1242 q 462 1264 456 1258 q 476 1270 468 1270 q 489 1266 484 1270 q 526 1236 508 1253 q 595 1067 595 1166 l 595 868 q 512 685 595 777 q 595 500 595 591 l 595 240 q 526 71 595 142 q 489 42 508 55 q 476 38 484 38 q 462 44 468 38 q 456 58 456 50 q 461 71 456 66 q 471 78 464 74 q 497 100 486 88 q 556 240 556 158 l 556 500 q 497 640 556 582 q 465 667 481 656 q 461 670 464 668 q 456 685 456 676 m 201 684 q 119 867 119 776 l 119 1066 q 188 1235 119 1165 q 228 1268 207 1254 q 238 1270 232 1270 q 252 1264 246 1270 q 258 1250 258 1258 q 253 1236 258 1242 q 249 1233 250 1233 q 217 1206 233 1222 q 159 1066 159 1149 l 159 867 q 217 727 159 785 q 243 704 227 716 q 253 698 251 700 q 258 685 258 693 q 254 671 258 676 q 249 668 252 670 q 217 641 233 657 q 159 501 159 583 l 159 241 q 216 101 159 159 q 244 77 227 89 q 253 72 250 74 q 258 59 258 66 q 252 45 258 51 q 238 39 246 39 q 225 43 230 39 q 188 72 206 56 q 119 241 119 143 l 119 501 q 201 684 119 592 z "},"9":{"ha":794,"x_min":119,"x_max":595,"o":"m 340 555 q 351 549 345 555 q 357 535 357 543 q 351 521 357 527 q 333 515 345 515 q 188 583 251 522 q 119 752 119 654 l 119 1052 q 189 1220 119 1150 q 357 1290 259 1290 q 525 1220 455 1290 q 595 1052 595 1150 l 595 298 l 594 298 l 594 257 q 524 89 594 159 q 356 19 454 19 q 188 88 258 19 q 181 105 181 96 q 187 119 181 113 q 200 125 192 125 q 216 118 208 125 q 356 60 274 60 q 497 118 439 60 q 555 218 555 177 l 556 218 l 556 1052 q 498 1192 556 1134 q 357 1250 439 1250 q 217 1192 275 1250 q 159 1052 159 1134 l 159 752 q 217 612 159 670 q 340 555 269 560 z "}," ":{"ha":516,"x_min":0,"x_max":0,"o":""}," ":{"ha":516,"x_min":0,"x_max":0,"o":""},"!":{"ha":437,"x_min":139,"x_max":218,"o":"m 159 1250 q 165 1264 159 1258 q 179 1270 171 1270 q 192 1264 187 1270 q 198 1250 198 1258 l 198 337 q 192 323 198 329 q 179 317 187 317 q 165 323 171 317 q 159 337 159 329 l 159 1250 m 179 119 q 206 107 194 119 q 218 79 218 95 q 206 52 218 63 q 179 40 194 40 q 151 52 163 40 q 139 79 139 63 q 151 107 139 95 q 179 119 163 119 z "},"\"":{"ha":437,"x_min":40,"x_max":317,"o":"m 71 1372 q 80 1384 73 1380 q 90 1387 85 1387 q 95 1386 92 1387 q 107 1377 103 1384 q 110 1366 110 1372 q 109 1361 110 1364 l 78 1246 q 70 1236 77 1239 q 60 1232 64 1232 q 55 1233 58 1232 q 43 1243 48 1235 q 40 1252 40 1248 q 41 1258 40 1255 l 71 1372 m 279 1371 q 288 1383 281 1379 q 298 1386 293 1386 q 303 1385 300 1386 q 314 1376 311 1383 q 317 1365 317 1371 q 316 1360 317 1363 l 286 1245 q 278 1235 285 1238 q 267 1231 272 1231 q 262 1232 265 1231 q 250 1242 255 1234 q 247 1251 247 1247 q 248 1257 247 1254 l 279 1371 z "},"#":{"ha":873,"x_min":99,"x_max":694,"o":"m 218 1250 q 224 1264 218 1258 q 238 1270 230 1270 q 252 1264 246 1270 q 258 1250 258 1258 l 258 913 l 536 913 l 536 1250 q 542 1264 536 1258 q 556 1270 548 1270 q 569 1264 563 1270 q 575 1250 575 1258 l 575 913 l 675 913 q 688 907 683 913 q 694 893 694 901 q 688 879 694 885 q 675 873 683 873 l 575 873 l 575 774 q 569 760 575 766 q 556 754 563 754 q 542 760 548 754 q 536 774 536 766 l 536 873 l 258 873 l 258 774 q 252 760 258 766 q 238 754 246 754 q 225 760 230 754 q 218 775 219 766 l 218 873 l 119 873 q 105 879 111 873 q 99 893 99 885 q 105 907 99 901 q 119 913 111 913 l 218 913 l 218 1250 m 575 60 q 569 46 575 52 q 556 40 563 40 q 542 46 548 40 q 536 60 536 52 l 536 397 l 258 397 l 258 60 q 252 46 258 52 q 238 40 246 40 q 224 46 230 40 q 218 60 218 52 l 218 397 l 119 397 q 105 403 111 397 q 99 417 99 409 q 105 431 99 425 q 119 437 111 437 l 218 437 l 218 536 q 224 550 218 544 q 238 556 230 556 q 252 550 246 556 q 258 536 258 544 l 258 437 l 536 437 l 536 536 q 542 550 536 544 q 556 556 548 556 q 569 550 563 556 q 575 536 575 544 l 575 437 l 675 437 q 688 431 683 437 q 694 417 694 425 q 688 403 694 409 q 675 397 683 397 l 575 397 l 575 60 z "},"$":{"ha":675,"x_min":63,"x_max":502,"o":"m 263 1290 l 263 1448 q 269 1462 263 1456 q 283 1468 275 1468 q 297 1462 291 1468 q 303 1448 303 1456 l 303 1293 q 479 1211 421 1276 q 482 1207 482 1208 q 487 1194 487 1202 l 487 1193 q 480 1181 486 1186 q 467 1175 474 1175 l 465 1175 q 450 1185 458 1175 q 311 1249 393 1245 l 299 1249 q 169 1199 225 1249 q 103 1061 108 1144 l 103 1051 q 314 665 103 898 q 502 266 502 458 q 501 247 502 257 q 422 80 495 147 q 303 20 380 43 l 303 -138 q 297 -152 303 -146 q 283 -158 291 -158 q 269 -152 275 -158 q 263 -138 263 -146 l 263 16 q 85 99 145 33 q 86 98 87 97 q 77 115 77 108 l 77 116 q 84 130 78 124 q 97 135 89 135 l 98 135 q 116 125 107 134 q 254 60 171 64 l 263 60 q 396 111 339 60 q 461 249 456 166 l 461 263 q 252 674 461 441 q 63 1050 63 881 l 63 1064 q 143 1229 69 1163 q 263 1290 185 1267 z "},"%":{"ha":1786,"x_min":119,"x_max":1586,"o":"m 471 1231 q 460 1237 463 1235 q 455 1251 455 1243 q 461 1265 455 1259 q 475 1271 467 1271 q 488 1267 483 1271 q 525 1237 507 1254 q 594 1068 594 1167 l 594 760 q 525 591 594 662 q 486 560 506 572 q 475 557 481 557 q 461 563 467 557 q 455 576 455 568 q 461 591 455 585 q 462 592 461 591 q 496 620 480 604 q 555 760 555 678 l 555 1068 q 496 1209 555 1151 q 471 1231 485 1219 m 243 596 q 253 590 251 592 q 258 576 258 585 q 252 563 258 568 q 238 557 246 557 q 225 561 230 557 q 188 590 206 573 q 119 759 119 661 l 119 1067 q 188 1236 119 1166 q 228 1269 207 1255 q 238 1271 232 1271 q 252 1265 246 1271 q 258 1251 258 1259 q 253 1237 258 1243 q 249 1234 250 1234 q 217 1207 233 1223 q 159 1067 159 1150 l 159 759 q 217 619 159 677 q 243 596 227 608 m 1463 714 q 1452 720 1455 718 q 1447 734 1447 726 q 1453 748 1447 742 q 1467 754 1459 754 q 1480 750 1475 754 q 1517 720 1499 737 q 1586 552 1586 650 l 1586 243 q 1517 74 1586 145 q 1478 43 1498 56 q 1467 40 1473 40 q 1453 46 1459 40 q 1447 60 1447 52 q 1453 74 1447 68 q 1454 75 1453 74 q 1488 103 1472 87 q 1547 243 1547 161 l 1547 552 q 1488 692 1547 634 q 1463 714 1477 702 m 1235 79 q 1245 73 1243 75 q 1250 60 1250 68 q 1244 46 1250 52 q 1230 40 1238 40 q 1217 44 1222 40 q 1181 73 1198 57 q 1111 242 1111 144 l 1111 551 q 1181 719 1111 649 q 1220 752 1199 738 q 1230 754 1224 754 q 1244 748 1238 754 q 1250 734 1250 742 q 1245 720 1250 726 q 1241 717 1242 717 q 1209 690 1225 706 q 1151 551 1151 633 l 1151 242 q 1209 102 1151 160 q 1235 79 1219 91 m 962 1247 q 972 1266 964 1257 q 985 1270 977 1270 q 998 1264 993 1270 q 1003 1250 1003 1259 q 1003 1248 1003 1249 l 726 63 q 717 46 724 54 q 702 40 710 40 q 690 45 695 40 q 686 60 686 51 q 687 66 686 63 l 962 1247 z "},"&":{"ha":952,"x_min":118,"x_max":770,"o":"m 567 886 q 560 876 563 880 q 545 870 553 870 q 531 876 537 870 q 525 890 525 882 q 534 908 525 897 q 569 960 560 941 q 594 1052 594 1001 q 542 1178 594 1126 q 416 1230 490 1230 q 290 1178 341 1230 q 238 1052 238 1125 q 251 979 238 1016 q 509 523 277 913 q 512 513 512 518 q 506 499 512 505 q 492 493 500 493 q 477 500 485 493 q 472 508 474 503 l 386 661 l 212 443 q 158 299 160 382 q 221 143 158 206 q 376 79 285 79 q 531 144 467 79 q 572 201 558 171 l 601 258 l 723 552 q 729 561 725 556 q 743 565 735 565 q 757 560 751 565 q 763 546 763 554 q 759 534 763 541 l 648 279 l 767 69 q 770 59 770 64 q 764 45 770 51 q 750 39 758 39 q 736 46 742 39 q 729 56 731 50 l 635 222 q 559 115 583 140 q 376 40 482 40 q 194 116 270 40 q 118 298 118 191 q 176 459 118 390 l 365 699 q 218 955 246 893 q 197 1052 197 999 q 261 1206 197 1142 q 416 1270 325 1270 q 570 1206 506 1270 q 634 1052 634 1142 q 597 929 634 982 q 567 886 586 913 z "},"'":{"ha":218,"x_min":40,"x_max":110,"o":"m 71 1372 q 80 1384 73 1380 q 90 1387 85 1387 q 95 1386 92 1387 q 107 1377 103 1384 q 110 1366 110 1372 q 109 1361 110 1364 l 78 1246 q 70 1236 77 1239 q 60 1232 64 1232 q 55 1233 58 1232 q 43 1243 48 1235 q 40 1252 40 1248 q 41 1258 40 1255 l 71 1372 z "},"(":{"ha":397,"x_min":79,"x_max":258,"o":"m 216 1365 q 226 1385 220 1378 q 238 1389 230 1389 q 252 1383 246 1389 q 258 1369 258 1377 q 257 1364 258 1365 q 117 656 117 1011 q 257 -54 117 301 q 258 -59 258 -55 q 252 -72 258 -66 q 238 -78 246 -78 q 226 -73 230 -78 q 215 -55 220 -67 q 79 656 79 301 q 216 1365 79 1011 z "},")":{"ha":397,"x_min":61,"x_max":239,"o":"m 102 1365 q 92 1385 98 1378 q 80 1389 88 1389 q 66 1383 72 1389 q 61 1369 61 1377 q 62 1364 61 1365 q 201 656 201 1011 q 62 -54 201 301 q 61 -59 61 -55 q 66 -72 61 -66 q 80 -78 72 -78 q 92 -73 88 -78 q 103 -55 98 -67 q 239 656 239 301 q 102 1365 239 1011 z "},"*":{"ha":615,"x_min":80,"x_max":458,"o":"m 234 1178 l 94 1224 q 83 1234 87 1226 q 80 1243 80 1239 q 81 1250 80 1246 q 91 1261 83 1257 q 99 1263 95 1263 q 105 1262 103 1263 l 249 1215 l 249 1367 q 255 1381 249 1375 q 269 1387 261 1387 q 283 1381 277 1387 q 289 1367 289 1375 l 289 1216 l 433 1263 q 439 1264 436 1264 q 449 1262 444 1264 q 457 1251 454 1259 q 458 1244 458 1247 q 456 1235 458 1239 q 444 1225 452 1228 l 302 1180 l 400 1063 q 404 1053 404 1059 l 404 1049 q 396 1037 403 1042 q 384 1032 391 1032 l 381 1032 q 369 1039 374 1033 l 269 1157 l 169 1039 q 158 1032 164 1032 l 154 1032 q 141 1037 147 1032 q 134 1055 134 1043 q 138 1063 134 1060 l 234 1178 z "},"+":{"ha":675,"x_min":80,"x_max":517,"o":"m 278 595 l 100 595 q 86 601 92 595 q 80 615 80 607 q 86 629 80 623 q 100 635 92 635 l 278 635 l 278 813 q 284 827 278 821 q 298 833 290 833 q 312 827 306 833 q 317 813 317 821 l 317 635 l 497 635 q 511 629 505 635 q 517 615 517 623 q 511 601 517 607 q 497 595 505 595 l 317 595 l 317 417 q 312 403 317 409 q 298 397 306 397 q 284 403 290 397 q 278 417 278 409 l 278 595 z "},",":{"ha":238,"x_min":40,"x_max":110,"o":"m 71 65 q 80 77 73 73 q 90 80 85 80 q 95 79 92 80 q 107 70 103 77 q 110 60 110 65 q 109 55 110 58 l 78 -61 q 70 -70 77 -67 q 60 -74 64 -74 q 55 -73 58 -74 q 43 -63 48 -71 q 40 -55 40 -59 q 41 -49 40 -52 l 71 65 z "},"-":{"ha":516,"x_min":78,"x_max":357,"o":"m 98 635 q 84 641 90 635 q 78 655 78 647 q 84 669 78 663 q 98 675 90 675 l 337 675 q 351 669 345 675 q 357 655 357 663 q 351 641 357 647 q 337 635 345 635 l 98 635 z "},"­":{"ha":516,"x_min":78,"x_max":357,"o":"m 98 635 q 84 641 90 635 q 78 655 78 647 q 84 669 78 663 q 98 675 90 675 l 337 675 q 351 669 345 675 q 357 655 357 663 q 351 641 357 647 q 337 635 345 635 l 98 635 z "},".":{"ha":317,"x_min":79,"x_max":159,"o":"m 119 119 q 147 107 135 119 q 159 79 159 95 q 147 52 159 63 q 119 40 135 40 q 91 52 103 40 q 79 79 79 63 q 91 107 79 95 q 119 119 103 119 z "},"/":{"ha":516,"x_min":20,"x_max":417,"o":"m 377 1255 q 383 1264 379 1260 q 397 1270 389 1270 q 411 1264 405 1270 q 417 1250 417 1258 q 416 1242 417 1245 l 59 53 q 55 46 58 49 q 40 40 48 40 q 26 46 32 40 q 20 60 20 52 q 21 67 20 64 l 377 1255 z "},":":{"ha":317,"x_min":79,"x_max":159,"o":"m 119 317 q 147 306 135 317 q 159 278 159 294 q 147 250 159 262 q 119 238 135 238 q 91 250 103 238 q 79 278 79 262 q 91 306 79 294 q 119 317 103 317 m 119 923 q 147 911 135 923 q 159 883 159 899 q 147 855 159 867 q 119 843 135 843 q 91 855 103 843 q 79 883 79 867 q 91 911 79 899 q 119 923 103 923 z "},";":{"ha":317,"x_min":40,"x_max":158,"o":"m 71 65 q 80 77 73 73 q 90 80 85 80 q 95 79 92 80 q 107 70 103 77 q 110 60 110 65 q 109 55 110 58 l 78 -61 q 70 -70 77 -67 q 60 -74 64 -74 q 55 -73 58 -74 q 43 -63 48 -71 q 40 -55 40 -59 q 41 -49 40 -52 l 71 65 m 118 923 q 146 911 134 923 q 158 883 158 899 q 146 855 158 867 q 118 843 134 843 q 90 855 102 843 q 78 883 78 867 q 90 911 78 899 q 118 923 102 923 z "},"<":{"ha":595,"x_min":120,"x_max":413,"o":"m 407 417 q 413 403 413 410 q 406 388 413 395 q 393 382 401 382 q 378 388 385 382 l 126 640 q 120 655 120 647 q 125 669 120 663 l 378 922 q 392 927 384 927 q 406 922 400 927 q 412 907 412 915 q 405 893 412 899 l 168 655 l 407 417 z "},"=":{"ha":675,"x_min":80,"x_max":517,"o":"z "},">":{"ha":635,"x_min":119,"x_max":412,"o":"m 125 888 q 119 902 119 895 q 126 917 119 910 q 139 923 131 923 q 154 917 147 923 l 406 665 q 412 650 412 658 q 407 636 412 642 l 154 383 q 140 378 148 378 q 126 383 132 378 q 120 398 120 390 q 127 412 120 406 l 364 650 l 125 888 z "},"?":{"ha":595,"x_min":40,"x_max":455,"o":"m 237 336 q 231 321 237 327 q 217 315 225 315 q 203 321 209 315 q 197 336 197 327 q 307 697 197 514 q 416 1021 416 880 q 358 1171 416 1112 q 217 1229 301 1229 q 74 1169 136 1229 q 60 1163 67 1163 q 46 1169 52 1163 q 40 1183 40 1175 q 46 1196 40 1189 q 217 1270 119 1270 q 385 1200 315 1270 q 455 1022 455 1130 l 455 1021 q 346 669 455 852 q 237 336 237 485 m 218 119 q 246 107 234 119 q 258 79 258 95 q 246 52 258 63 q 218 40 234 40 q 190 52 202 40 q 179 79 179 63 q 190 107 179 95 q 218 119 202 119 z "},"@":{"ha":1429,"x_min":119,"x_max":1230,"o":"m 913 298 q 907 284 913 290 q 893 278 901 278 q 879 284 885 278 q 873 298 873 290 l 873 713 q 815 854 873 796 q 675 912 757 912 q 534 854 592 912 q 476 713 476 796 l 476 278 q 534 137 476 195 q 675 79 592 79 l 915 79 q 1110 162 1045 91 q 1190 357 1190 242 l 1190 753 l 1189 753 q 1039 1078 1189 927 q 674 1229 887 1229 q 311 1078 460 1229 q 159 713 159 928 l 159 279 q 310 -86 159 64 q 675 -238 460 -237 l 972 -238 q 986 -244 980 -238 q 992 -258 992 -250 q 986 -272 992 -266 q 972 -278 980 -278 l 675 -278 q 282 -114 444 -277 q 119 278 119 49 l 119 713 q 282 1107 119 943 q 674 1269 444 1269 l 675 1269 q 1067 1107 904 1269 q 1229 674 1229 943 l 1230 674 l 1230 357 q 1137 133 1230 226 q 913 40 1044 40 l 675 40 q 506 110 576 40 q 437 278 437 180 l 437 713 q 506 881 437 812 q 675 951 576 951 q 843 881 773 951 q 913 713 913 812 l 913 298 z "},"A":{"ha":794,"x_min":20,"x_max":694,"o":"m 357 354 q 371 348 365 354 q 377 334 377 342 q 371 320 377 326 q 357 314 365 314 l 129 314 l 61 60 q 54 46 59 51 q 40 40 48 40 q 26 46 32 40 q 20 60 20 52 q 20 64 20 63 l 337 1248 q 344 1264 339 1258 q 357 1269 350 1269 q 370 1264 365 1269 q 377 1248 375 1258 l 694 64 q 694 60 694 63 q 688 46 694 52 q 675 40 683 40 q 662 46 667 40 q 654 60 656 52 l 357 1170 l 140 354 l 357 354 z "},"B":{"ha":833,"x_min":159,"x_max":635,"o":"m 159 1250 q 165 1264 159 1258 q 179 1270 171 1270 q 192 1264 187 1270 q 198 1250 198 1258 l 198 60 q 192 46 198 52 q 179 40 187 40 q 165 46 171 40 q 159 60 159 52 l 159 1250 m 635 276 q 565 107 635 178 q 420 39 503 45 q 403 45 409 39 q 397 59 397 51 q 403 72 397 66 q 416 78 409 78 q 537 136 486 84 q 595 276 595 193 l 595 438 q 537 578 595 521 q 424 635 490 626 q 403 641 409 635 q 397 655 397 647 l 397 656 q 403 671 397 664 q 424 676 409 676 q 537 732 490 685 q 595 872 595 790 l 595 1033 q 537 1173 595 1115 q 416 1230 486 1224 q 403 1236 409 1230 q 397 1250 397 1242 q 403 1264 397 1258 q 420 1270 409 1270 q 565 1201 503 1264 q 635 1033 635 1131 l 635 872 q 508 655 635 756 q 635 438 635 555 l 635 276 z "},"C":{"ha":675,"x_min":119,"x_max":534,"o":"m 500 121 q 514 126 506 126 q 528 120 522 126 q 534 106 534 114 q 528 92 534 98 q 357 19 455 19 q 189 89 259 19 q 119 257 119 159 l 119 1053 q 189 1221 119 1151 q 357 1291 259 1291 q 528 1217 455 1291 q 534 1203 534 1211 q 528 1189 534 1195 q 514 1184 522 1184 q 501 1189 506 1184 q 357 1250 438 1250 q 216 1191 274 1250 q 159 1052 159 1133 l 159 258 q 216 118 159 177 q 357 60 274 60 q 500 121 439 60 z "},"D":{"ha":794,"x_min":159,"x_max":635,"o":"m 416 79 q 537 137 486 85 q 595 276 595 193 l 595 1032 q 537 1172 595 1114 q 397 1230 479 1230 l 198 1230 l 198 60 q 192 46 198 52 q 179 40 187 40 q 165 46 171 40 q 159 60 159 52 l 159 1250 q 165 1264 159 1258 q 179 1270 171 1270 l 397 1270 q 565 1200 495 1270 q 635 1032 635 1130 l 635 276 q 565 108 635 178 q 420 40 503 46 q 403 46 409 40 q 397 60 397 52 q 403 73 397 67 q 416 79 409 79 z "},"E":{"ha":714,"x_min":159,"x_max":576,"o":"m 159 1250 q 165 1264 159 1258 q 179 1270 171 1270 l 557 1270 q 570 1264 564 1270 q 576 1250 576 1258 q 570 1236 576 1242 q 557 1230 564 1230 l 198 1230 l 198 675 l 496 675 q 510 669 504 675 q 516 655 516 663 q 510 641 516 647 q 496 635 504 635 l 198 635 l 198 79 l 557 79 q 570 73 564 79 q 576 60 576 67 q 570 46 576 52 q 557 40 564 40 l 179 40 q 165 46 171 40 q 159 60 159 52 l 159 1250 z "},"F":{"ha":675,"x_min":159,"x_max":576,"o":"m 496 675 q 510 669 504 675 q 516 655 516 663 q 510 641 516 647 q 496 635 504 635 l 198 635 l 198 60 q 192 46 198 52 q 179 40 187 40 q 165 46 171 40 q 159 60 159 52 l 159 1250 q 165 1264 159 1258 q 179 1270 171 1270 l 557 1270 q 570 1264 564 1270 q 576 1250 576 1258 q 570 1236 576 1242 q 557 1230 564 1230 l 198 1230 l 198 675 l 496 675 z "},"G":{"ha":795,"x_min":119,"x_max":595,"o":"m 528 1217 q 534 1203 534 1211 q 528 1189 534 1195 q 514 1184 522 1184 q 501 1189 506 1184 q 357 1250 438 1250 q 216 1191 274 1250 q 159 1052 159 1133 l 159 278 q 216 138 159 196 q 357 79 274 79 l 556 79 l 556 615 l 456 615 q 442 621 448 615 q 437 635 437 627 q 442 649 437 643 q 456 655 448 655 l 576 655 q 590 649 584 655 q 595 635 595 644 l 595 60 q 589 46 595 52 q 575 40 583 40 l 357 40 q 188 109 258 40 q 119 277 119 179 l 119 1053 q 189 1221 119 1151 q 357 1291 259 1291 q 528 1217 455 1291 z "},"H":{"ha":913,"x_min":159,"x_max":674,"o":"m 159 1250 q 165 1264 159 1258 q 179 1270 171 1270 q 192 1264 187 1270 q 198 1250 198 1258 l 198 675 l 634 675 l 634 1250 q 640 1264 634 1258 q 654 1270 646 1270 q 668 1264 662 1270 q 674 1250 674 1258 l 674 60 q 668 46 674 52 q 654 40 662 40 q 640 46 646 40 q 634 60 634 52 l 634 635 l 198 635 l 198 60 q 192 46 198 52 q 179 40 187 40 q 165 46 171 40 q 159 60 159 52 l 159 1250 z "},"I":{"ha":437,"x_min":159,"x_max":198,"o":"m 159 1250 q 165 1264 159 1258 q 179 1270 171 1270 q 192 1264 187 1270 q 198 1250 198 1258 l 198 60 q 192 46 198 52 q 179 40 187 40 q 165 46 171 40 q 159 60 159 52 l 159 1250 z "},"J":{"ha":496,"x_min":59,"x_max":277,"o":"m 118 1230 q 104 1236 110 1230 q 98 1250 98 1242 q 104 1264 98 1258 q 118 1270 110 1270 l 257 1270 q 271 1264 265 1270 q 277 1250 277 1258 l 277 237 q 219 97 277 155 q 79 40 162 40 q 64 46 70 40 q 59 60 59 52 q 64 73 59 67 q 79 79 70 79 q 190 125 148 82 q 237 237 237 171 l 237 1230 l 118 1230 z "},"K":{"ha":833,"x_min":159,"x_max":666,"o":"m 159 1250 q 165 1264 159 1258 q 179 1270 171 1270 q 192 1264 187 1270 q 198 1250 198 1258 l 198 60 q 192 46 198 52 q 179 40 187 40 q 165 46 171 40 q 159 60 159 52 l 159 1250 m 630 1260 q 634 1265 631 1261 q 648 1270 640 1270 q 661 1265 656 1270 q 666 1251 666 1260 q 662 1235 666 1242 l 399 645 l 662 76 q 666 59 666 68 q 661 45 666 50 q 648 40 656 40 q 634 45 640 40 q 630 50 631 49 l 361 632 q 357 645 357 639 q 361 658 357 651 l 630 1260 z "},"L":{"ha":635,"x_min":159,"x_max":536,"o":"m 159 1250 q 165 1264 159 1258 q 179 1270 171 1270 q 192 1264 187 1270 q 198 1250 198 1258 l 198 79 l 516 79 q 530 73 524 79 q 536 60 536 67 q 530 46 536 52 q 516 40 524 40 l 179 40 q 165 46 171 40 q 159 60 159 52 l 159 1250 z "},"M":{"ha":1230,"x_min":159,"x_max":992,"o":"m 953 1258 q 959 1265 955 1261 q 972 1270 964 1270 q 986 1264 980 1270 q 992 1250 992 1258 l 992 59 q 987 46 992 52 q 972 40 980 40 q 958 47 965 40 q 952 59 952 52 l 952 1158 l 596 378 q 583 364 592 368 q 576 362 580 362 q 570 364 574 362 q 559 373 562 366 l 198 1159 l 198 60 q 192 46 198 52 q 179 40 187 40 q 165 46 171 40 q 159 60 159 52 l 159 1250 q 165 1264 159 1258 q 179 1270 171 1270 q 193 1264 187 1270 q 195 1261 195 1262 l 576 432 l 953 1258 z "},"N":{"ha":992,"x_min":159,"x_max":754,"o":"m 198 60 q 192 46 198 52 q 179 40 187 40 q 165 46 171 40 q 159 60 159 52 l 159 1251 q 165 1265 159 1259 q 179 1271 171 1271 q 192 1266 188 1271 q 195 1262 194 1264 l 714 147 l 714 1251 q 720 1265 714 1259 q 734 1271 726 1271 q 748 1265 742 1271 q 754 1251 754 1259 l 754 59 q 749 46 754 52 q 734 40 742 40 q 721 46 726 40 q 713 57 716 50 l 198 1170 l 198 60 z "},"O":{"ha":794,"x_min":119,"x_max":595,"o":"m 471 1229 q 463 1235 465 1232 q 456 1249 456 1241 q 462 1263 456 1257 q 476 1269 468 1269 q 489 1265 484 1269 q 526 1235 508 1252 q 595 1066 595 1165 l 595 242 q 526 73 595 144 q 486 41 507 55 q 476 39 482 39 q 462 45 468 39 q 456 59 456 51 q 462 73 456 66 q 465 75 464 75 q 497 102 481 86 q 556 242 556 160 l 556 1066 q 497 1206 556 1149 q 471 1229 487 1217 m 226 1266 q 238 1270 231 1270 q 252 1264 246 1270 q 258 1250 258 1258 q 253 1236 258 1242 q 248 1232 249 1233 q 217 1206 232 1221 q 159 1066 159 1149 l 159 242 q 217 102 159 160 q 250 75 232 87 q 252 74 251 74 q 258 60 258 67 q 252 46 258 52 q 238 40 246 40 q 226 43 231 40 q 188 73 206 56 q 119 242 119 144 l 119 1066 q 188 1235 119 1165 q 226 1266 207 1253 z "},"P":{"ha":794,"x_min":159,"x_max":635,"o":"m 416 436 q 403 430 409 436 q 397 416 397 424 q 403 402 397 408 q 420 396 409 396 q 565 464 503 402 q 635 633 635 535 l 635 1031 q 565 1199 635 1129 q 397 1269 495 1269 l 179 1269 q 165 1263 171 1269 q 159 1249 159 1257 l 159 59 q 165 45 159 51 q 179 39 171 39 q 192 45 187 39 q 198 59 198 51 l 198 1229 l 397 1229 q 537 1171 479 1229 q 595 1031 595 1113 l 595 633 q 537 493 595 551 q 416 436 486 441 z "},"Q":{"ha":794,"x_min":119,"x_max":643,"o":"m 589 199 q 584 189 588 193 q 569 184 577 184 q 556 189 562 184 q 550 203 550 195 q 550 209 550 207 q 556 258 556 231 l 556 1052 q 498 1192 556 1134 q 357 1250 439 1250 q 217 1192 275 1250 q 159 1052 159 1134 l 159 258 q 212 126 159 175 q 325 62 265 77 l 629 -45 q 641 -54 638 -48 q 643 -63 643 -59 q 642 -70 643 -66 q 633 -81 639 -78 q 623 -83 628 -83 q 615 -82 619 -83 l 298 27 q 188 90 229 51 q 119 258 119 160 l 119 1052 q 189 1220 119 1150 q 357 1290 259 1290 q 525 1220 455 1290 q 595 1052 595 1150 l 595 258 q 589 199 595 227 z "},"R":{"ha":833,"x_min":159,"x_max":675,"o":"m 478 501 q 549 542 518 512 q 595 655 595 588 l 595 1071 q 548 1184 595 1138 q 437 1230 501 1230 l 198 1230 l 198 60 q 192 46 198 52 q 179 40 187 40 q 165 46 171 40 q 159 60 159 52 l 159 1250 q 165 1264 159 1258 q 179 1270 171 1270 l 437 1270 q 576 1211 518 1270 q 635 1071 635 1153 l 635 655 q 577 515 635 573 q 510 466 559 497 l 672 69 q 675 60 675 63 q 674 55 675 57 q 664 43 671 46 q 655 40 659 40 q 648 41 650 40 q 637 50 641 43 l 467 470 q 464 482 464 476 q 470 497 464 490 q 478 501 474 500 z "},"S":{"ha":635,"x_min":63,"x_max":502,"o":"m 86 97 q 77 116 77 108 q 84 130 78 124 q 98 135 89 135 q 116 125 107 134 q 254 60 171 64 l 263 60 q 396 111 339 60 q 461 249 456 166 l 461 263 q 252 674 461 441 q 63 1050 63 881 l 63 1064 q 143 1229 69 1163 q 300 1290 210 1290 l 315 1290 q 478 1212 413 1285 q 487 1193 487 1201 q 480 1181 486 1186 q 468 1175 474 1175 q 450 1185 458 1175 q 311 1249 393 1245 l 299 1249 q 169 1199 225 1249 q 103 1061 108 1144 l 103 1051 q 314 665 103 898 q 502 266 502 458 q 501 247 502 257 q 422 80 495 147 q 264 19 354 19 l 249 19 q 86 97 152 25 z "},"T":{"ha":595,"x_min":10,"x_max":486,"o":"m 30 1230 q 16 1236 22 1230 q 10 1250 10 1242 q 16 1264 10 1258 q 30 1270 22 1270 l 466 1270 q 480 1264 474 1270 q 486 1250 486 1258 q 480 1236 486 1242 q 466 1230 474 1230 l 268 1230 l 268 60 q 262 46 268 52 q 248 40 256 40 q 234 46 240 40 q 228 60 228 52 l 228 1230 l 30 1230 z "},"U":{"ha":833,"x_min":139,"x_max":615,"o":"m 139 1249 q 145 1263 139 1257 q 159 1269 151 1269 q 173 1263 167 1269 q 179 1249 179 1257 l 179 258 q 237 118 179 176 q 377 60 295 60 q 517 118 459 60 q 575 258 575 176 l 575 1249 q 581 1263 575 1257 q 595 1269 587 1269 q 609 1263 603 1269 q 615 1249 615 1257 l 615 258 q 545 90 615 160 q 377 20 475 20 q 209 90 279 20 q 139 258 139 160 l 139 1249 z "},"V":{"ha":794,"x_min":20,"x_max":694,"o":"m 20 1245 q 20 1250 20 1246 q 26 1264 20 1258 q 40 1270 32 1270 q 55 1265 49 1270 q 61 1251 59 1260 l 357 139 l 654 1251 q 661 1265 656 1259 q 675 1270 667 1270 q 688 1264 683 1270 q 694 1250 694 1258 q 694 1245 694 1246 l 377 61 q 370 45 375 51 q 357 40 365 40 q 344 45 350 40 q 337 61 339 51 l 20 1245 z "},"W":{"ha":1190,"x_min":4,"x_max":1105,"o":"m 817 60 q 811 46 815 51 q 798 40 805 40 q 786 45 790 40 q 778 61 780 51 l 555 968 l 332 62 q 324 46 330 52 q 312 40 318 40 q 299 45 304 40 q 291 61 293 52 l 4 1245 q 4 1250 4 1246 q 10 1264 4 1258 q 24 1270 16 1270 q 39 1265 33 1270 q 45 1251 43 1260 l 312 146 l 530 1042 q 540 1065 534 1059 q 556 1071 547 1071 q 569 1064 563 1071 q 579 1043 575 1058 l 798 146 l 1064 1251 q 1071 1265 1066 1259 q 1085 1270 1077 1270 q 1099 1264 1093 1270 q 1105 1250 1105 1258 q 1105 1245 1105 1246 l 817 60 z "},"X":{"ha":690,"x_min":10,"x_max":590,"o":"m 301 703 l 553 1259 q 565 1269 557 1266 q 570 1270 567 1270 q 579 1267 574 1270 q 589 1257 587 1263 q 590 1250 590 1253 q 587 1241 590 1246 l 321 655 l 588 68 q 590 60 590 63 q 589 55 590 57 q 579 43 586 46 q 570 40 574 40 q 565 41 567 40 q 553 51 557 44 l 301 606 l 48 50 q 36 41 45 44 q 31 40 34 40 q 22 43 27 40 q 12 55 15 46 q 11 60 11 57 q 13 69 11 64 l 279 655 l 11 1244 q 10 1250 10 1247 q 11 1257 10 1253 q 21 1267 13 1263 q 30 1270 26 1270 q 35 1269 33 1270 q 48 1259 44 1266 l 301 703 z "},"Y":{"ha":635,"x_min":21,"x_max":537,"o":"m 22 1241 q 21 1250 21 1244 q 26 1264 21 1259 q 40 1270 32 1270 q 54 1265 49 1270 q 59 1258 58 1261 l 279 482 l 499 1254 q 505 1264 500 1260 q 519 1270 511 1270 q 532 1264 527 1270 q 537 1250 537 1259 q 535 1237 537 1242 l 298 415 l 298 60 q 292 46 298 52 q 278 40 286 40 q 264 46 270 40 q 258 60 258 52 l 258 416 l 22 1241 z "},"Z":{"ha":670,"x_min":40,"x_max":536,"o":"m 60 1230 q 46 1236 52 1230 q 40 1250 40 1242 q 46 1264 40 1258 q 60 1270 52 1270 l 516 1270 q 530 1264 524 1270 q 536 1250 536 1258 q 535 1241 536 1245 l 89 79 l 516 79 q 530 73 524 79 q 536 60 536 67 q 530 46 536 52 q 516 40 524 40 l 60 40 q 47 46 53 40 q 41 60 41 52 q 43 71 41 66 l 486 1230 l 60 1230 z "},"[":{"ha":516,"x_min":159,"x_max":378,"o":"m 159 1448 q 165 1462 159 1456 q 179 1468 171 1468 l 358 1468 q 372 1462 366 1468 q 378 1448 378 1456 q 372 1435 378 1440 q 358 1429 366 1429 l 198 1429 l 198 -119 l 357 -119 q 371 -125 365 -119 q 377 -139 377 -131 q 371 -153 377 -147 q 357 -159 365 -159 l 179 -159 q 165 -153 171 -159 q 159 -139 159 -147 l 159 1448 z "},"\\":{"ha":516,"x_min":19,"x_max":416,"o":"m 59 1255 q 53 1264 57 1260 q 39 1270 47 1270 q 25 1264 31 1270 q 19 1250 19 1258 q 20 1242 19 1245 l 377 53 q 381 46 378 49 q 396 40 388 40 q 410 46 404 40 q 416 60 416 52 q 415 67 416 64 l 59 1255 z "},"]":{"ha":516,"x_min":60,"x_max":279,"o":"m 279 -139 q 273 -153 279 -147 q 259 -159 267 -159 l 79 -159 q 65 -153 71 -159 q 60 -139 60 -147 q 65 -125 60 -131 q 79 -119 71 -119 l 239 -119 l 239 1429 l 80 1429 q 66 1435 72 1429 q 61 1448 61 1440 q 66 1462 61 1456 q 80 1468 72 1468 l 259 1468 q 273 1462 267 1468 q 279 1448 279 1456 l 279 -139 z "},"^":{"ha":794,"x_min":85,"x_max":630,"o":"m 1896 336 q 1910 342 1903 342 q 1925 335 1918 342 q 1931 322 1931 330 q 1925 308 1931 314 l 1673 56 q 1658 50 1666 50 q 1644 55 1650 50 l 1391 308 q 1386 321 1386 313 q 1391 335 1386 329 q 1406 341 1398 341 q 1420 334 1414 341 l 1658 97 l 1896 336 z "},"_":{"ha":714,"x_min":78,"x_max":554,"o":"m 98 -79 q 84 -73 90 -79 q 78 -60 78 -67 q 84 -46 78 -52 q 98 -40 90 -40 l 534 -40 q 548 -46 542 -40 q 554 -60 554 -52 q 548 -73 554 -67 q 534 -79 542 -79 l 98 -79 z "},"`":{"ha":238,"x_min":39,"x_max":109,"o":"m 77 1291 q 68 1303 75 1299 q 59 1306 63 1306 q 54 1305 57 1306 q 42 1296 46 1303 q 39 1285 39 1291 q 40 1280 39 1283 l 70 1165 q 78 1155 71 1158 q 89 1151 84 1151 q 94 1152 91 1151 q 106 1162 101 1154 q 109 1171 109 1167 q 108 1177 109 1174 l 77 1291 z "},"a":{"ha":774,"x_min":119,"x_max":595,"o":"m 357 40 q 189 110 259 40 q 119 278 119 180 l 119 358 q 188 527 119 456 q 333 595 251 588 q 351 589 345 595 q 357 575 357 583 q 352 562 357 567 q 340 556 346 556 q 217 498 269 551 q 159 358 159 440 l 159 278 q 217 137 159 195 q 357 79 275 79 l 556 79 l 556 693 q 497 834 555 776 q 356 892 439 892 q 213 832 275 892 q 200 826 208 826 q 187 832 192 826 q 181 846 181 838 q 187 860 181 854 q 356 933 258 933 q 524 863 454 933 q 595 693 594 793 l 595 60 q 589 46 595 52 q 575 40 583 40 l 357 40 z "},"b":{"ha":833,"x_min":159,"x_max":635,"o":"m 416 873 q 403 879 409 873 q 397 893 397 885 q 403 907 397 901 q 420 913 409 913 q 565 844 503 907 q 635 676 635 774 l 635 278 q 565 110 635 180 q 397 40 495 40 l 179 40 q 165 46 171 40 q 159 60 159 52 l 159 1250 q 165 1264 159 1258 q 179 1270 171 1270 q 192 1264 187 1270 q 198 1250 198 1258 l 198 79 l 397 79 q 537 137 479 79 q 595 278 595 195 l 595 676 q 537 815 595 758 q 416 873 486 867 z "},"c":{"ha":694,"x_min":119,"x_max":534,"o":"m 497 118 q 514 126 506 126 q 528 120 522 126 q 534 106 534 114 q 525 88 534 97 q 357 19 455 19 q 189 89 259 19 q 119 257 119 159 l 119 695 q 189 864 119 794 q 357 934 259 934 q 525 864 455 934 q 534 846 534 855 q 528 832 534 838 q 514 826 522 826 q 497 834 506 826 q 357 893 439 893 q 216 834 274 893 q 159 694 159 776 l 159 258 q 216 118 159 177 q 357 60 274 60 q 497 118 439 60 z "},"d":{"ha":833,"x_min":120,"x_max":596,"o":"m 339 873 q 352 879 346 873 q 358 893 358 885 q 352 907 358 901 q 335 913 346 913 q 189 844 252 907 q 120 676 120 774 l 120 278 q 190 110 120 180 q 358 40 260 40 l 576 40 q 590 46 584 40 q 596 60 596 52 l 596 1250 q 590 1264 596 1258 q 576 1270 584 1270 q 563 1264 568 1270 q 557 1250 557 1258 l 557 79 l 358 79 q 218 137 276 79 q 160 278 160 195 l 160 676 q 218 815 160 758 q 339 873 269 867 z "},"e":{"ha":774,"x_min":119,"x_max":595,"o":"m 377 437 q 363 442 369 437 q 357 456 357 448 q 363 470 357 464 q 377 476 369 476 l 556 476 l 556 694 q 498 835 556 777 q 357 893 439 893 q 217 835 275 893 q 159 694 159 777 l 159 258 q 216 118 159 177 q 357 60 274 60 q 497 118 439 60 q 513 125 505 125 q 527 119 521 125 q 533 105 533 113 q 525 88 533 96 q 357 19 455 19 q 189 89 259 19 q 119 257 119 159 l 119 694 q 189 863 119 793 q 357 933 259 933 q 525 863 455 933 q 595 694 595 793 l 595 456 q 589 443 595 449 q 574 437 583 437 l 377 437 z "},"f":{"ha":437,"x_min":59,"x_max":337,"o":"m 159 913 l 316 913 q 330 907 324 913 q 336 893 336 901 q 330 879 336 885 q 316 873 324 873 l 159 873 l 159 61 q 152 46 159 52 q 138 40 146 40 q 125 46 131 40 q 119 60 119 52 l 119 873 l 78 873 q 64 879 70 873 q 59 893 59 885 q 64 907 59 901 q 78 913 70 913 l 119 913 l 119 1070 q 177 1212 119 1154 q 317 1270 235 1270 q 331 1264 325 1270 q 337 1250 337 1258 q 331 1236 337 1242 q 317 1230 325 1230 q 204 1184 250 1230 q 159 1070 159 1137 l 159 913 z "},"g":{"ha":833,"x_min":119,"x_max":595,"o":"m 330 80 q 351 73 345 79 q 357 61 357 67 q 351 47 357 53 q 337 41 345 41 l 334 41 q 188 109 251 48 q 119 278 119 180 l 119 675 q 189 843 119 773 q 357 913 259 913 l 575 913 q 589 907 583 913 q 595 893 595 901 l 595 0 l 594 0 l 594 -41 q 524 -209 594 -139 q 356 -279 454 -279 q 188 -209 258 -279 q 181 -192 181 -201 q 187 -179 181 -185 q 200 -173 192 -173 q 216 -180 208 -173 q 356 -238 274 -238 q 497 -180 439 -238 q 555 -79 555 -121 l 556 -79 l 556 873 l 357 873 q 217 815 275 873 q 159 675 159 757 l 159 278 q 217 138 159 195 q 330 80 265 89 z "},"h":{"ha":853,"x_min":159,"x_max":635,"o":"m 198 872 l 198 60 q 192 46 198 52 q 179 40 187 40 q 165 46 171 40 q 159 60 159 52 l 159 1250 q 165 1264 159 1258 q 179 1270 171 1270 q 192 1264 187 1270 q 198 1250 198 1258 l 198 912 l 397 912 q 565 842 495 912 q 635 674 635 772 l 635 60 q 629 46 635 52 q 615 40 623 40 q 601 46 607 40 q 595 60 595 52 l 595 674 q 537 814 595 756 q 397 872 479 872 l 198 872 z "},"i":{"ha":437,"x_min":136,"x_max":215,"o":"m 195 60 q 189 46 195 52 q 176 40 184 40 q 162 46 168 40 q 156 60 156 52 l 156 893 q 162 907 156 901 q 176 913 168 913 q 189 907 184 913 q 195 893 195 901 l 195 60 m 176 1230 q 203 1218 191 1230 q 215 1190 215 1206 q 203 1163 215 1175 q 176 1151 191 1151 q 148 1163 160 1151 q 136 1190 136 1175 q 148 1218 136 1206 q 176 1230 160 1230 z "},"j":{"ha":437,"x_min":-21,"x_max":223,"o":"m 158 0 l 158 893 q 164 907 158 901 q 178 913 170 913 q 191 907 186 913 q 197 893 197 901 l 197 0 q 139 -140 197 -81 q -1 -198 80 -198 q -15 -192 -9 -198 q -21 -179 -21 -187 q -15 -165 -21 -171 q -1 -159 -9 -159 q 112 -113 65 -159 q 158 0 158 -66 m 184 1230 q 211 1218 199 1230 q 223 1190 223 1206 q 211 1163 223 1175 q 184 1151 199 1151 q 156 1163 168 1151 q 144 1190 144 1175 q 156 1218 144 1206 q 184 1230 168 1230 z "},"k":{"ha":774,"x_min":159,"x_max":606,"o":"m 601 72 q 606 60 606 63 q 605 55 606 57 q 595 43 602 46 q 586 40 590 40 q 581 41 583 40 q 567 52 572 44 l 349 446 q 341 474 341 461 q 351 505 341 489 l 569 902 q 573 908 570 905 q 587 913 579 913 q 601 907 595 913 q 606 893 606 902 q 602 879 606 885 l 412 535 q 396 474 396 505 q 411 417 396 446 l 601 72 m 159 1250 q 165 1264 159 1258 q 179 1270 171 1270 q 192 1264 187 1270 q 198 1250 198 1258 l 198 60 q 192 46 198 52 q 179 40 187 40 q 165 46 171 40 q 159 60 159 52 l 159 1250 z "},"l":{"ha":437,"x_min":159,"x_max":198,"o":"m 159 1250 q 165 1264 159 1258 q 179 1270 171 1270 q 192 1264 187 1270 q 198 1250 198 1258 l 198 60 q 192 46 198 52 q 179 40 187 40 q 165 46 171 40 q 159 60 159 52 l 159 1250 z "},"m":{"ha":1210,"x_min":159,"x_max":992,"o":"m 198 60 q 192 46 198 52 q 179 40 187 40 q 165 46 171 40 q 159 60 159 52 l 159 893 q 165 907 159 901 q 179 913 171 913 l 754 913 q 922 843 852 913 q 992 675 992 773 l 992 60 q 986 46 992 52 q 972 40 980 40 q 958 46 964 40 q 952 60 952 52 l 952 675 q 894 815 952 757 q 754 873 836 873 l 595 873 l 595 60 q 589 46 595 52 q 575 40 583 40 q 562 46 567 40 q 556 60 556 52 l 556 873 l 198 873 l 198 60 z "},"n":{"ha":853,"x_min":159,"x_max":635,"o":"m 198 60 q 192 46 198 52 q 179 40 187 40 q 165 46 171 40 q 159 60 159 52 l 159 893 q 165 907 159 901 q 179 913 171 913 l 397 913 q 565 843 495 913 q 635 675 635 773 l 635 60 q 629 46 635 52 q 615 40 623 40 q 601 46 607 40 q 595 60 595 52 l 595 675 q 537 815 595 757 q 397 873 479 873 l 198 873 l 198 60 z "},"o":{"ha":794,"x_min":119,"x_max":595,"o":"m 471 873 q 463 879 465 876 q 456 893 456 885 q 462 907 456 901 q 476 913 468 913 q 489 909 484 913 q 526 879 508 896 q 595 710 595 809 l 595 243 q 526 74 595 145 q 486 42 507 56 q 476 40 482 40 q 462 46 468 40 q 456 60 456 52 q 462 74 456 67 q 465 76 464 76 q 497 103 481 87 q 556 243 556 161 l 556 710 q 497 850 556 793 q 471 873 487 861 m 226 910 q 238 914 231 914 q 252 908 246 914 q 258 894 258 902 q 253 880 258 886 q 248 876 249 877 q 217 850 232 865 q 159 710 159 793 l 159 243 q 217 103 159 161 q 250 76 232 88 q 252 75 251 75 q 258 61 258 68 q 252 47 258 53 q 238 41 246 41 q 226 44 231 41 q 188 74 206 57 q 119 243 119 145 l 119 710 q 188 879 119 809 q 226 910 207 897 z "},"p":{"ha":833,"x_min":159,"x_max":635,"o":"m 416 78 q 403 72 409 78 q 397 59 397 66 q 403 45 397 51 q 420 39 409 39 q 565 107 503 45 q 635 276 635 178 l 635 674 q 565 842 635 772 q 397 912 495 912 l 179 912 q 165 906 171 912 q 159 892 159 900 l 159 -299 q 165 -312 159 -307 q 179 -318 171 -318 q 192 -312 187 -318 q 198 -299 198 -307 l 198 872 l 397 872 q 537 814 479 872 q 595 674 595 756 l 595 276 q 537 136 595 193 q 416 78 486 84 z "},"q":{"ha":833,"x_min":119,"x_max":595,"o":"m 338 78 q 351 72 345 78 q 357 59 357 66 q 351 45 357 51 q 334 39 345 39 q 188 107 251 45 q 119 276 119 178 l 119 674 q 189 842 119 772 q 357 912 259 912 l 575 912 q 589 906 583 912 q 595 892 595 900 l 595 -299 q 589 -312 595 -307 q 575 -318 583 -318 q 562 -312 567 -318 q 556 -299 556 -307 l 556 872 l 357 872 q 217 814 275 872 q 159 674 159 756 l 159 276 q 217 136 159 193 q 338 78 268 84 z "},"r":{"ha":476,"x_min":139,"x_max":358,"o":"m 179 59 q 173 45 179 51 q 159 39 167 39 q 145 45 151 39 q 139 59 139 51 l 139 714 q 197 854 139 796 q 337 913 256 913 q 352 907 346 913 q 358 893 358 901 q 352 879 358 885 q 337 873 346 873 q 225 827 271 873 q 179 714 179 781 l 179 59 z "},"s":{"ha":694,"x_min":89,"x_max":530,"o":"m 495 853 q 505 834 505 842 q 499 820 505 826 q 487 815 493 815 q 466 826 476 815 q 324 891 411 884 q 300 892 312 892 q 188 855 227 892 q 125 725 128 813 q 349 483 125 600 q 530 239 530 391 q 463 75 527 132 q 299 19 399 19 q 123 94 190 22 q 114 113 114 104 q 120 127 114 121 q 132 132 126 132 q 154 119 143 132 q 296 59 211 63 l 313 59 q 431 92 384 59 q 494 242 492 148 l 494 246 q 275 491 494 378 q 89 727 89 592 q 160 878 92 824 q 318 929 225 929 l 330 929 q 495 853 429 925 z "},"t":{"ha":516,"x_min":98,"x_max":378,"o":"m 357 913 q 371 907 365 913 q 377 893 377 901 q 371 879 377 885 q 357 873 365 873 l 198 873 l 198 238 q 245 125 198 172 q 357 79 291 79 q 372 73 366 79 q 378 60 378 67 q 372 46 378 52 q 357 40 366 40 q 217 98 276 40 q 159 238 159 157 l 159 873 l 118 873 q 104 879 110 873 q 98 893 98 885 q 104 907 98 901 q 118 913 110 913 l 159 913 l 159 1130 q 165 1144 159 1138 q 179 1150 171 1150 q 192 1144 187 1150 q 198 1130 198 1138 l 198 913 l 357 913 z "},"u":{"ha":853,"x_min":139,"x_max":615,"o":"m 575 893 q 581 907 575 901 q 595 913 587 913 q 609 907 603 913 q 615 893 615 901 l 615 60 q 609 46 615 52 q 595 40 603 40 l 377 40 q 209 110 279 40 q 139 278 139 180 l 139 893 q 145 907 139 901 q 159 913 151 913 q 173 907 167 913 q 179 893 179 901 l 179 278 q 237 137 179 195 q 377 79 295 79 l 575 79 l 575 893 z "},"v":{"ha":675,"x_min":40,"x_max":557,"o":"m 318 59 q 312 45 315 50 q 298 40 306 40 q 285 45 291 40 q 278 62 280 51 l 41 886 q 40 893 40 889 q 46 907 40 901 q 60 913 52 913 q 73 908 68 913 q 78 901 77 904 l 299 125 l 519 897 q 525 907 520 903 q 539 913 531 913 q 552 907 547 913 q 557 893 557 902 q 555 880 557 885 l 318 59 z "},"w":{"ha":1130,"x_min":20,"x_max":1016,"o":"m 299 59 q 292 45 296 50 q 278 40 286 40 q 265 45 271 40 q 258 62 260 51 l 21 886 q 20 893 20 889 q 26 907 20 901 q 40 913 32 913 q 54 908 49 913 q 59 901 58 904 l 279 125 l 499 896 q 505 908 500 903 q 519 913 511 913 q 533 908 528 913 q 538 901 537 904 l 758 125 l 978 897 q 984 907 979 903 q 998 913 990 913 q 1011 907 1006 913 q 1016 893 1016 902 q 1014 880 1016 885 l 778 59 q 771 45 775 50 q 757 40 765 40 q 744 45 750 40 q 737 62 739 51 l 518 822 l 299 59 z "},"x":{"ha":694,"x_min":59,"x_max":560,"o":"m 331 475 l 554 72 q 558 60 558 64 q 557 54 558 57 q 548 43 554 46 q 539 40 543 40 q 534 41 536 40 q 520 52 525 44 l 310 435 l 100 55 q 84 40 93 43 q 79 39 82 39 q 70 42 75 39 q 61 54 63 45 q 60 59 60 56 q 62 67 60 63 l 287 475 l 63 880 q 59 893 59 886 q 64 907 59 901 q 78 913 70 913 q 92 908 87 913 q 96 902 94 906 l 310 515 l 522 902 q 526 908 523 905 q 540 913 532 913 q 554 907 548 913 q 560 893 560 901 q 556 880 560 886 l 331 475 z "},"y":{"ha":833,"x_min":139,"x_max":615,"o":"m 575 893 q 581 907 575 901 q 595 913 587 913 q 609 907 603 913 q 615 893 615 901 l 615 -99 q 557 -239 615 -181 q 417 -298 498 -298 q 277 -240 335 -298 q 241 -193 255 -218 q 238 -179 238 -187 q 243 -165 238 -170 q 256 -160 248 -160 q 268 -163 265 -160 q 273 -170 271 -166 q 306 -211 286 -191 q 417 -258 351 -258 q 529 -212 483 -258 q 575 -99 575 -166 l 575 40 l 377 40 q 209 110 279 40 q 139 278 139 180 l 139 893 q 145 907 139 901 q 159 913 151 913 q 173 907 167 913 q 179 893 179 901 l 179 278 q 237 137 179 195 q 377 79 295 79 l 575 79 l 575 893 z "},"z":{"ha":635,"x_min":40,"x_max":516,"o":"m 60 873 q 46 879 52 873 q 40 893 40 885 q 46 907 40 901 q 60 913 52 913 l 496 913 q 510 907 504 913 q 516 893 516 901 q 515 886 516 888 l 92 79 l 496 79 q 510 73 504 79 q 516 60 516 67 q 510 46 516 52 q 496 40 504 40 l 60 40 q 46 46 53 40 q 40 60 40 53 q 42 68 40 65 l 463 873 l 60 873 z "},"{":{"ha":496,"x_min":0,"x_max":398,"o":"m 377 1270 q 392 1264 386 1270 q 398 1250 398 1258 q 392 1236 398 1242 q 377 1230 386 1230 q 264 1184 311 1230 q 218 1071 218 1138 l 218 774 q 161 634 218 692 q 115 595 156 630 q 162 557 157 560 q 218 417 218 499 l 218 119 q 264 6 218 53 q 377 -40 311 -40 q 392 -46 386 -40 q 398 -60 398 -52 q 392 -73 398 -67 q 377 -79 386 -79 q 237 -21 296 -79 q 179 119 179 38 l 179 417 q 133 529 179 482 q 20 575 87 575 q 6 581 12 575 q 0 595 0 587 q 6 609 0 603 q 20 615 12 615 q 133 662 87 615 q 179 774 179 708 l 179 1071 q 237 1211 179 1153 q 377 1270 296 1270 z "},"|":{"ha":437,"x_min":159,"x_max":198,"o":"m 159 1409 q 165 1423 159 1417 q 179 1429 171 1429 q 192 1423 187 1429 q 198 1409 198 1417 l 198 -100 q 192 -114 198 -108 q 179 -120 187 -120 q 165 -114 171 -120 q 159 -100 159 -108 l 159 1409 z "},"}":{"ha":496,"x_min":20,"x_max":418,"o":"m 41 -20 q 26 -14 32 -20 q 20 0 20 -8 q 26 14 20 8 q 41 20 32 20 q 153 66 107 20 q 199 179 199 112 l 199 476 q 257 616 199 558 q 303 655 262 620 q 256 693 261 690 q 199 833 199 751 l 199 1131 q 153 1244 199 1197 q 41 1290 107 1290 q 26 1296 32 1290 q 20 1310 20 1302 q 26 1323 20 1317 q 41 1329 32 1329 q 181 1271 122 1329 q 239 1131 239 1212 l 239 833 q 285 721 239 768 q 398 675 330 675 q 412 669 406 675 q 418 655 418 663 q 412 641 418 647 q 398 635 406 635 q 285 588 330 635 q 239 476 239 542 l 239 179 q 181 39 239 97 q 41 -20 122 -20 z "},"~":{"ha":556,"x_min":40,"x_max":436,"o":"m 59 635 q 45 640 50 635 q 40 655 40 646 q 45 667 40 662 q 63 677 52 674 q 132 688 95 688 q 217 676 172 688 q 320 659 271 659 q 402 671 362 659 q 417 675 411 675 q 431 669 426 675 q 436 655 436 664 q 431 642 436 647 q 414 633 424 636 q 342 620 380 620 q 259 633 304 620 q 155 650 204 650 q 69 637 111 650 q 59 635 64 635 z "},"¡":{"ha":437,"x_min":139,"x_max":218,"o":"m 198 -298 q 192 -312 198 -306 q 179 -317 187 -317 q 165 -312 171 -317 q 159 -298 159 -306 l 159 615 q 165 629 159 623 q 179 635 171 635 q 192 629 187 635 q 198 615 198 623 l 198 -298 m 179 833 q 151 845 163 833 q 139 873 139 857 q 151 901 139 889 q 179 913 163 913 q 206 901 194 913 q 218 873 218 889 q 206 845 218 857 q 179 833 194 833 z "},"¢":{"ha":694,"x_min":119,"x_max":534,"o":"m 316 933 l 316 1091 q 322 1105 316 1099 q 336 1111 328 1111 q 350 1105 344 1111 q 356 1091 356 1099 l 356 937 q 525 864 467 922 q 534 846 534 855 q 528 832 534 838 q 514 826 522 826 q 497 834 506 826 q 357 893 439 893 q 216 834 274 893 q 159 694 159 776 l 159 258 q 216 118 159 177 q 357 60 274 60 q 497 118 439 60 q 514 126 506 126 q 528 120 522 126 q 534 106 534 114 q 525 88 534 97 q 356 16 467 31 l 356 -139 q 350 -153 356 -147 q 336 -159 344 -159 q 322 -153 328 -159 q 316 -139 316 -147 l 316 20 q 188 88 233 45 q 119 257 119 159 l 119 695 q 188 864 119 794 q 316 933 233 908 z "},"£":{"ha":675,"x_min":80,"x_max":537,"o":"m 141 837 q 121 1024 121 960 q 191 1200 121 1130 q 359 1270 261 1270 q 528 1200 457 1270 q 531 1196 530 1198 q 537 1183 537 1190 q 531 1169 537 1175 q 517 1163 525 1163 q 499 1174 509 1163 q 483 1211 503 1172 l 471 1199 q 359 1229 441 1229 q 218 1171 276 1229 q 161 1023 161 1112 q 186 833 161 959 l 497 833 q 511 827 505 833 q 517 813 517 821 q 511 800 517 806 q 497 794 505 794 l 195 794 q 259 516 237 634 l 497 516 q 511 510 505 516 q 517 496 517 504 q 511 482 517 488 q 497 476 505 476 l 265 476 q 279 332 279 356 q 184 79 279 225 l 517 79 q 531 73 525 79 q 537 60 537 67 q 531 46 537 52 q 517 40 525 40 l 120 40 q 106 45 111 40 q 100 58 100 50 q 114 79 100 67 q 146 108 131 92 q 239 332 239 200 q 220 476 239 359 l 100 476 q 86 482 92 476 q 80 496 80 488 q 86 510 80 504 q 100 516 92 516 l 212 516 q 160 756 186 647 q 152 794 159 760 l 100 794 q 86 800 92 794 q 80 813 80 806 q 86 828 80 821 q 141 837 91 832 z "},"¤":{"ha":833,"x_min":117,"x_max":635,"o":"m 123 781 q 117 794 117 786 q 123 808 117 802 q 137 813 129 813 q 152 808 146 813 l 228 732 q 257 738 253 738 q 271 732 265 738 q 277 718 277 726 q 272 704 277 710 q 262 697 268 700 q 236 676 247 688 q 178 536 178 618 q 236 396 178 453 q 260 375 247 384 q 273 366 268 370 q 277 353 277 361 q 271 339 277 345 q 257 333 265 333 q 245 336 250 333 q 211 363 242 338 l 152 303 q 137 297 145 297 q 124 303 130 297 q 118 317 118 309 q 124 331 118 325 l 184 391 q 138 536 138 470 q 202 701 138 614 l 123 781 m 628 331 q 634 317 634 325 q 629 304 635 309 q 615 298 623 298 q 600 304 606 298 l 549 355 q 506 335 513 343 q 495 332 502 332 q 481 338 487 332 q 475 352 475 344 q 481 365 475 360 q 489 372 484 368 q 516 396 503 383 q 574 536 574 453 q 516 676 574 618 q 488 700 503 689 q 482 705 485 701 q 475 719 475 711 q 481 733 475 727 q 495 739 487 739 q 526 733 500 739 l 601 809 q 614 814 606 814 q 628 809 622 814 q 634 794 634 803 q 628 780 634 786 l 550 701 q 614 536 614 614 q 568 391 614 470 l 628 331 z "},"¥":{"ha":675,"x_min":40,"x_max":556,"o":"m 316 238 l 316 60 q 311 46 316 52 q 297 40 305 40 q 283 46 289 40 q 277 60 277 52 l 277 238 l 80 238 q 66 244 72 238 q 61 258 61 250 q 66 272 61 266 q 80 278 72 278 l 277 278 l 277 416 l 248 516 l 80 516 q 66 522 72 516 q 61 536 61 528 q 66 550 61 544 q 80 556 72 556 l 236 556 l 41 1241 q 40 1250 40 1244 q 45 1264 40 1259 q 59 1270 51 1270 q 72 1265 67 1270 q 77 1258 76 1261 l 298 482 l 518 1254 q 524 1264 519 1260 q 538 1270 530 1270 q 551 1264 546 1270 q 556 1250 556 1259 q 554 1237 556 1242 l 357 556 l 516 556 q 530 550 524 556 q 536 536 536 544 q 530 522 536 528 q 516 516 524 516 l 346 516 l 316 415 l 316 278 l 516 278 q 530 272 524 278 q 536 258 536 266 q 530 244 536 250 q 516 238 524 238 l 316 238 z "},"¦":{"ha":437,"x_min":159,"x_max":199,"o":"m 198 -298 q 192 -312 198 -306 q 179 -317 187 -317 q 165 -312 171 -317 q 159 -298 159 -306 l 159 536 q 165 550 159 544 q 179 556 171 556 q 192 550 187 556 q 198 536 198 544 l 198 -298 m 199 774 q 193 760 199 766 q 180 754 188 754 q 166 760 172 754 q 160 774 160 766 l 160 1607 q 166 1621 160 1615 q 180 1627 172 1627 q 193 1621 188 1627 q 199 1607 199 1615 l 199 774 z "},"§":{"ha":694,"x_min":79,"x_max":529,"o":"m 174 648 l 289 532 q 495 164 495 336 l 495 163 q 425 -5 495 64 q 257 -75 355 -75 q 85 -2 159 -75 q 79 12 79 5 q 85 26 79 20 q 99 32 91 32 q 114 26 107 32 q 257 -35 176 -35 q 398 24 340 -35 q 455 164 455 82 q 225 540 455 320 l 145 620 q 139 635 139 627 q 145 649 139 643 q 159 655 151 655 q 174 648 166 655 m 435 667 l 319 783 q 113 1151 113 978 l 113 1152 q 183 1320 113 1250 q 351 1390 253 1390 q 523 1316 449 1390 q 529 1303 529 1310 q 523 1289 529 1295 q 509 1283 517 1283 q 494 1289 501 1283 q 351 1349 433 1349 q 210 1291 268 1349 q 153 1151 153 1232 q 383 775 153 994 l 463 694 q 469 680 469 688 q 463 666 469 672 q 449 660 457 660 q 435 667 441 660 z "},"¨":{"ha":595,"x_min":79,"x_max":447,"o":"m 119 1230 q 147 1218 135 1230 q 159 1190 159 1206 q 147 1163 159 1175 q 119 1151 135 1151 q 91 1163 103 1151 q 79 1190 79 1175 q 91 1218 79 1206 q 119 1230 103 1230 m 408 1230 q 436 1218 424 1230 q 447 1190 447 1206 q 436 1163 447 1175 q 408 1151 424 1151 q 380 1163 392 1151 q 368 1190 368 1175 q 380 1218 368 1206 q 408 1230 392 1230 z "},"©":{"ha":1468,"x_min":79,"x_max":1310,"o":"m 870 443 q 834 395 855 417 q 693 337 776 337 q 554 396 612 337 q 495 536 495 454 l 495 774 q 554 914 495 855 q 693 972 612 972 q 834 914 775 972 q 871 865 856 892 q 874 853 874 859 q 868 839 874 845 q 854 833 862 833 q 840 840 846 833 q 834 848 836 843 q 806 886 822 869 q 693 933 758 933 q 581 886 627 933 q 535 774 535 840 l 535 536 q 581 423 535 469 q 693 377 627 377 q 806 424 758 377 q 837 466 826 444 q 840 469 837 467 q 854 475 846 475 q 868 469 862 475 q 874 455 874 463 q 870 443 874 449 m 812 1219 q 800 1226 805 1220 q 794 1239 794 1231 q 800 1253 794 1247 q 813 1259 806 1259 q 819 1259 817 1259 q 1130 1090 994 1224 q 1310 655 1310 909 q 1130 220 1310 401 q 820 52 995 86 q 813 51 816 51 q 800 57 806 51 q 794 70 794 63 q 800 85 794 78 q 809 90 804 89 q 1101 248 975 121 q 1270 655 1270 416 q 1101 1062 1270 894 q 812 1219 977 1187 m 570 1259 q 575 1259 572 1259 q 589 1253 583 1259 q 595 1239 595 1247 q 590 1225 595 1231 q 580 1219 585 1220 q 288 1062 414 1188 q 119 655 119 894 q 288 248 119 416 q 580 90 414 121 q 590 85 586 88 q 595 70 595 79 q 589 57 595 63 q 575 51 583 51 q 570 51 572 51 q 260 220 395 85 q 79 655 79 401 q 260 1090 79 909 q 570 1259 395 1224 z "},"ª":{"ha":734,"x_min":119,"x_max":595,"o":"m 139 40 q 125 46 131 40 q 119 60 119 52 q 125 73 119 67 q 139 79 131 79 l 575 79 q 588 73 582 79 q 594 60 594 67 q 588 46 594 52 q 575 40 582 40 l 139 40 m 357 455 q 189 525 259 455 q 119 694 119 595 q 188 863 119 793 q 333 932 251 925 q 351 926 345 932 q 357 912 357 920 q 352 898 357 904 q 340 892 346 892 q 217 834 269 887 q 159 693 159 777 q 217 553 159 611 q 357 495 275 495 l 556 495 l 556 1050 q 497 1190 555 1132 q 356 1248 439 1248 q 213 1188 275 1248 q 200 1183 208 1183 q 187 1188 192 1183 q 181 1202 181 1194 q 187 1216 181 1210 q 356 1289 258 1289 q 524 1219 454 1289 q 595 1050 594 1149 l 595 475 q 589 461 595 467 q 575 455 583 455 l 357 455 z "},"«":{"ha":952,"x_min":119,"x_max":767,"o":"z "},"¬":{"ha":754,"x_min":79,"x_max":595,"o":"m 99 635 q 85 641 91 635 q 79 655 79 647 q 85 669 79 663 q 99 675 91 675 l 575 675 q 589 669 583 675 q 595 655 595 663 l 595 417 q 590 404 595 410 q 575 398 583 398 q 562 404 567 398 q 556 417 556 410 l 556 635 l 99 635 z "},"®":{"ha":1468,"x_min":79,"x_max":1310,"o":"m 812 1219 q 800 1226 805 1220 q 794 1239 794 1231 q 800 1253 794 1247 q 813 1259 806 1259 q 819 1259 817 1259 q 1130 1090 994 1224 q 1310 655 1310 909 q 1130 220 1310 401 q 820 52 995 86 q 813 51 816 51 q 800 57 806 51 q 794 70 794 63 q 800 85 794 78 q 809 90 804 89 q 1101 248 975 121 q 1270 655 1270 416 q 1101 1062 1270 894 q 812 1219 977 1187 m 570 1259 q 575 1259 572 1259 q 589 1253 583 1259 q 595 1239 595 1247 q 590 1225 595 1231 q 580 1219 585 1220 q 288 1062 414 1188 q 119 655 119 894 q 288 248 119 416 q 580 90 414 121 q 590 85 586 88 q 595 70 595 79 q 589 57 595 63 q 575 51 583 51 q 570 51 572 51 q 260 220 395 85 q 79 655 79 401 q 260 1090 79 909 q 570 1259 395 1224 m 795 485 q 781 526 781 512 q 791 546 781 537 q 827 580 807 561 q 874 694 874 629 l 874 775 q 827 887 874 841 q 715 934 780 934 l 556 934 l 556 358 q 550 344 556 350 q 535 338 544 338 q 521 344 527 338 q 515 358 515 350 l 515 953 q 521 967 515 961 q 535 973 527 973 l 715 973 q 855 915 797 973 q 914 775 914 856 l 914 694 q 856 555 914 613 q 822 525 850 549 l 891 364 q 892 357 892 362 q 890 348 892 352 q 880 339 887 341 q 871 337 875 337 q 864 339 868 337 q 853 352 857 343 l 795 485 z "},"°":{"ha":794,"x_min":119,"x_max":595,"o":"m 471 1230 q 463 1236 465 1233 q 456 1250 456 1242 q 462 1264 456 1258 q 476 1270 468 1270 q 489 1266 484 1270 q 526 1236 508 1253 q 595 1067 595 1166 q 526 904 595 974 q 486 871 507 885 q 476 869 482 869 q 462 875 468 869 q 456 889 456 881 q 462 904 456 897 q 465 906 464 906 q 497 933 481 917 q 556 1067 556 990 q 497 1207 556 1150 q 471 1230 487 1218 m 226 1267 q 238 1271 231 1271 q 252 1265 246 1271 q 258 1251 258 1259 q 253 1237 258 1243 q 248 1233 249 1234 q 217 1207 232 1222 q 159 1067 159 1150 q 217 933 159 990 q 250 906 232 918 q 252 905 251 905 q 258 890 258 898 q 252 876 258 882 q 238 870 246 870 q 226 873 231 870 q 188 904 206 886 q 119 1067 119 974 q 188 1236 119 1166 q 226 1267 207 1254 z "},"±":{"ha":675,"x_min":80,"x_max":517,"o":"m 278 595 l 100 595 q 86 601 92 595 q 80 615 80 607 q 86 629 80 623 q 100 635 92 635 l 278 635 l 278 813 q 284 827 278 821 q 298 833 290 833 q 312 827 306 833 q 317 813 317 821 l 317 635 l 497 635 q 511 629 505 635 q 517 615 517 623 q 511 601 517 607 q 497 595 505 595 l 317 595 l 317 417 q 312 403 317 409 q 298 397 306 397 q 284 403 290 397 q 278 417 278 409 l 278 595 m 100 119 q 86 125 92 119 q 80 139 80 131 q 86 153 80 147 q 100 159 92 159 l 497 159 q 511 153 505 159 q 517 139 517 147 q 511 125 517 131 q 497 119 505 119 l 100 119 z "},"²":{"ha":635,"x_min":79,"x_max":479,"o":"m 101 477 q 87 483 93 477 q 81 497 81 489 q 238 815 81 711 q 419 1063 419 942 l 419 1072 q 373 1185 419 1139 q 260 1231 326 1231 q 148 1185 195 1231 q 119 1147 131 1168 q 114 1138 117 1141 q 99 1132 107 1132 q 85 1138 91 1132 q 79 1152 79 1144 q 82 1164 79 1158 q 119 1212 97 1190 q 260 1271 179 1271 q 400 1212 341 1271 q 458 1072 458 1154 q 307 829 458 936 q 126 517 129 710 l 459 517 q 473 511 467 517 q 479 497 479 505 q 473 483 479 489 q 459 477 467 477 l 101 477 z "},"³":{"ha":635,"x_min":79,"x_max":458,"o":"m 83 582 q 79 594 79 588 q 85 608 79 602 q 99 614 91 614 q 113 608 107 614 q 116 605 116 606 q 148 563 127 583 q 260 516 195 516 q 373 562 326 516 q 419 675 419 608 l 419 694 q 373 807 419 760 q 261 853 327 853 l 260 853 q 246 859 252 853 q 240 873 240 865 q 246 887 240 881 q 260 893 252 893 l 261 893 q 373 939 327 893 q 419 1052 419 986 l 419 1071 q 373 1184 419 1138 q 260 1230 326 1230 q 148 1184 195 1230 q 119 1146 131 1167 q 114 1137 117 1140 q 99 1131 107 1131 q 85 1137 91 1131 q 79 1151 79 1143 q 82 1163 79 1157 q 119 1211 97 1189 q 260 1270 179 1270 q 400 1211 341 1270 q 458 1071 458 1153 l 458 1052 q 401 912 458 970 q 355 873 396 908 q 402 834 397 837 q 458 694 458 777 l 458 675 q 400 535 458 593 q 260 476 341 476 q 119 534 178 476 q 83 582 98 556 z "},"´":{"ha":238,"x_min":39,"x_max":109,"o":"m 70 1290 q 79 1302 72 1298 q 89 1305 84 1305 q 94 1304 91 1305 q 106 1295 102 1302 q 109 1284 109 1290 q 108 1279 109 1282 l 77 1164 q 69 1154 76 1157 q 59 1150 63 1150 q 54 1151 57 1150 q 42 1161 47 1153 q 39 1170 39 1166 q 40 1176 39 1173 l 70 1290 z "},"µ":{"ha":852,"x_min":139,"x_max":615,"o":"m 575 80 l 575 893 q 581 907 575 901 q 595 913 587 913 q 609 907 603 913 q 615 893 615 901 l 615 -298 q 609 -312 615 -306 q 595 -317 603 -317 q 581 -312 587 -317 q 575 -298 575 -306 l 575 41 l 377 41 q 209 111 279 41 q 139 279 139 181 l 139 893 q 145 907 139 901 q 159 913 151 913 q 173 907 167 913 q 179 893 179 901 l 179 279 q 237 138 179 196 q 377 80 295 80 l 575 80 z "},"¶":{"ha":1111,"x_min":78,"x_max":991,"o":"m 280 604 q 294 592 287 599 q 298 582 298 589 q 292 568 298 574 q 278 563 286 563 q 267 565 272 563 q 188 626 226 589 q 78 893 78 737 q 189 1159 78 1049 q 455 1270 300 1270 l 971 1270 q 985 1264 979 1270 q 991 1250 991 1258 q 985 1236 991 1242 q 971 1230 979 1230 l 813 1230 l 813 60 q 807 46 813 52 q 793 40 801 40 q 779 46 785 40 q 773 60 773 52 l 773 1230 l 535 1230 l 535 60 q 529 46 535 52 q 515 40 523 40 q 501 46 507 40 q 495 60 495 52 l 495 1230 q 217 1131 315 1230 q 118 893 118 1033 q 217 655 118 753 q 280 604 247 625 z "},"·":{"ha":397,"x_min":117,"x_max":196,"o":"m 157 674 q 185 662 173 674 q 196 634 196 650 q 185 606 196 618 q 157 594 173 594 q 129 606 141 594 q 117 634 117 618 q 129 662 117 650 q 157 674 141 674 z "},"∙":{"ha":397,"x_min":117,"x_max":196,"o":"m 157 674 q 185 662 173 674 q 196 634 196 650 q 185 606 196 618 q 157 594 173 594 q 129 606 141 594 q 117 634 117 618 q 129 662 117 650 q 157 674 141 674 z "},"¸":{"ha":357,"x_min":0,"x_max":279,"o":"m 119 20 q 125 34 119 28 q 139 40 131 40 q 153 34 147 40 q 159 20 159 28 l 159 -97 q 239 -139 215 -116 q 279 -238 279 -180 q 238 -336 279 -296 q 140 -377 197 -377 l 20 -377 q 6 -371 12 -377 q 0 -357 0 -365 q 6 -343 0 -349 q 20 -337 12 -337 l 139 -337 q 209 -309 181 -337 q 238 -238 238 -280 q 209 -168 238 -196 q 139 -139 181 -139 q 125 -133 131 -139 q 119 -119 119 -127 l 119 20 z "},"¹":{"ha":516,"x_min":79,"x_max":357,"o":"m 99 1230 q 85 1236 91 1230 q 79 1250 79 1242 q 85 1264 79 1258 q 99 1270 91 1270 l 220 1270 q 233 1264 227 1270 q 238 1250 238 1259 l 238 516 l 337 516 q 351 510 345 516 q 357 496 357 504 q 351 482 357 488 q 337 476 345 476 l 99 476 q 85 482 91 476 q 79 496 79 488 q 85 510 79 504 q 99 516 91 516 l 198 516 l 198 1230 l 99 1230 z "},"º":{"ha":794,"x_min":119,"x_max":595,"o":"m 139 40 q 125 46 131 40 q 119 60 119 52 q 125 73 119 67 q 139 79 131 79 l 574 79 q 588 73 582 79 q 594 60 594 67 q 588 46 594 52 q 574 40 582 40 l 139 40 m 471 1223 q 463 1229 465 1226 q 456 1243 456 1235 q 462 1257 456 1251 q 476 1263 468 1263 q 489 1259 484 1263 q 526 1229 508 1246 q 595 1061 595 1159 l 595 593 q 526 425 595 495 q 486 392 507 406 q 476 390 482 390 q 462 396 468 390 q 456 410 456 402 q 462 425 456 418 q 465 427 464 427 q 497 453 481 438 q 556 593 556 511 l 556 1061 q 497 1200 556 1143 q 471 1223 487 1211 m 226 1260 q 238 1264 231 1264 q 252 1258 246 1264 q 258 1244 258 1252 q 253 1230 258 1236 q 248 1226 249 1227 q 217 1200 232 1215 q 159 1061 159 1143 l 159 593 q 217 453 159 511 q 250 427 232 438 q 252 426 251 426 q 258 411 258 419 q 252 397 258 403 q 238 391 246 391 q 226 394 231 391 q 188 425 206 407 q 119 593 119 495 l 119 1061 q 188 1229 119 1159 q 226 1260 207 1247 z "},"»":{"ha":952,"x_min":119,"x_max":767,"o":"z "},"¼":{"ha":1548,"x_min":79,"x_max":1388,"o":"m 99 1230 q 85 1236 91 1230 q 79 1250 79 1242 q 85 1264 79 1258 q 99 1270 91 1270 l 220 1270 q 233 1264 227 1270 q 238 1250 238 1259 l 238 516 l 337 516 q 351 510 345 516 q 357 496 357 504 q 351 482 357 488 q 337 476 345 476 l 99 476 q 85 482 91 476 q 79 496 79 488 q 85 510 79 504 q 99 516 91 516 l 198 516 l 198 1230 l 99 1230 m 793 1247 q 803 1266 795 1257 q 815 1270 808 1270 q 828 1264 823 1270 q 833 1250 833 1259 q 833 1248 833 1249 l 557 63 q 548 46 555 54 q 533 40 541 40 q 521 45 526 40 q 516 60 516 51 q 517 66 516 63 l 793 1247 m 1348 636 q 1354 650 1348 644 q 1368 656 1360 656 q 1382 650 1376 656 q 1388 636 1388 644 l 1388 20 q 1382 6 1388 12 q 1368 0 1376 0 q 1354 6 1360 0 q 1348 20 1348 12 l 1348 198 l 971 198 q 957 204 963 198 q 951 218 951 210 q 953 229 951 223 l 1109 770 q 1120 790 1111 782 q 1134 796 1126 796 q 1145 791 1141 796 q 1150 776 1150 786 q 1149 767 1150 770 l 998 238 l 1348 238 l 1348 636 z "},"½":{"ha":1548,"x_min":79,"x_max":1392,"o":"m 99 1230 q 85 1236 91 1230 q 79 1250 79 1242 q 85 1264 79 1258 q 99 1270 91 1270 l 220 1270 q 233 1264 227 1270 q 238 1250 238 1259 l 238 516 l 337 516 q 351 510 345 516 q 357 496 357 504 q 351 482 357 488 q 337 476 345 476 l 99 476 q 85 482 91 476 q 79 496 79 488 q 85 510 79 504 q 99 516 91 516 l 198 516 l 198 1230 l 99 1230 m 793 1247 q 803 1266 795 1257 q 815 1270 808 1270 q 828 1264 823 1270 q 833 1250 833 1259 q 833 1248 833 1249 l 557 63 q 548 46 555 54 q 533 40 541 40 q 521 45 526 40 q 516 60 516 51 q 517 66 516 63 l 793 1247 m 1014 0 q 1000 6 1006 0 q 994 20 994 12 q 1151 338 994 234 q 1331 585 1331 465 l 1331 595 q 1285 708 1331 662 q 1173 754 1239 754 q 1061 707 1108 754 q 1032 670 1044 690 q 1027 661 1030 664 q 1012 655 1020 655 q 998 661 1004 655 q 992 675 992 667 q 995 687 992 681 q 1032 735 1010 713 q 1173 794 1091 794 q 1313 735 1254 794 q 1371 595 1371 677 q 1219 352 1371 458 q 1039 40 1042 233 l 1372 40 q 1386 34 1380 40 q 1392 20 1392 28 q 1386 6 1392 12 q 1372 0 1380 0 l 1014 0 z "},"¾":{"ha":1667,"x_min":79,"x_max":1507,"o":"m 83 582 q 79 594 79 588 q 85 608 79 602 q 99 614 91 614 q 113 608 107 614 q 116 605 116 606 q 148 563 127 583 q 260 516 195 516 q 373 562 326 516 q 419 675 419 608 l 419 694 q 373 807 419 760 q 261 853 327 853 l 260 853 q 246 859 252 853 q 240 873 240 865 q 246 887 240 881 q 260 893 252 893 l 261 893 q 373 939 327 893 q 419 1052 419 986 l 419 1071 q 373 1184 419 1138 q 260 1230 326 1230 q 148 1184 195 1230 q 119 1146 131 1167 q 114 1137 117 1140 q 99 1131 107 1131 q 85 1137 91 1131 q 79 1151 79 1143 q 82 1163 79 1157 q 119 1211 97 1189 q 260 1270 179 1270 q 400 1211 341 1270 q 458 1071 458 1153 l 458 1052 q 401 912 458 970 q 355 873 396 908 q 402 834 397 837 q 458 694 458 777 l 458 675 q 400 535 458 593 q 260 476 341 476 q 119 534 178 476 q 83 582 98 556 m 912 1247 q 922 1266 914 1257 q 935 1270 927 1270 q 947 1264 942 1270 q 952 1250 952 1259 q 952 1248 952 1249 l 676 63 q 667 46 674 54 q 652 40 660 40 q 640 45 645 40 q 635 60 635 51 q 636 66 635 63 l 912 1247 m 1467 636 q 1473 650 1467 644 q 1487 656 1479 656 q 1501 650 1495 656 q 1507 636 1507 644 l 1507 20 q 1501 6 1507 12 q 1487 0 1495 0 q 1473 6 1479 0 q 1467 20 1467 12 l 1467 198 l 1090 198 q 1076 204 1082 198 q 1070 218 1070 210 q 1072 229 1070 223 l 1228 770 q 1239 790 1230 782 q 1253 796 1245 796 q 1264 791 1260 796 q 1269 776 1269 786 q 1268 767 1269 770 l 1117 238 l 1467 238 l 1467 636 z "},"¿":{"ha":635,"x_min":79,"x_max":495,"o":"m 298 616 q 304 631 298 625 q 317 637 310 637 q 331 631 325 637 q 337 616 337 625 q 228 255 337 438 q 119 -68 119 72 q 177 -218 119 -160 q 317 -277 234 -277 q 460 -216 399 -277 q 475 -210 467 -210 q 489 -216 483 -210 q 495 -230 495 -222 q 489 -244 495 -237 q 317 -317 416 -317 q 149 -248 219 -317 q 79 -69 79 -178 l 79 -68 q 188 284 79 100 q 298 616 298 467 m 316 833 q 289 845 301 833 q 277 873 277 857 q 289 901 277 889 q 316 913 301 913 q 344 901 332 913 q 356 873 356 889 q 344 845 356 857 q 316 833 332 833 z "},"À":{"ha":794,"x_min":20,"x_max":694,"o":"m 357 354 q 371 348 365 354 q 377 334 377 342 q 371 320 377 326 q 357 314 365 314 l 129 314 l 61 60 q 54 46 59 51 q 40 40 48 40 q 26 46 32 40 q 20 60 20 52 q 20 64 20 63 l 337 1248 q 344 1264 339 1258 q 357 1269 350 1269 q 370 1264 365 1269 q 377 1248 375 1258 l 694 64 q 694 60 694 63 q 688 46 694 52 q 675 40 683 40 q 662 46 667 40 q 654 60 656 52 l 357 1170 l 140 354 l 357 354 m 349 1648 q 340 1660 347 1656 q 330 1663 335 1663 q 325 1662 328 1663 q 313 1653 317 1660 q 311 1642 311 1648 q 312 1637 311 1640 l 342 1522 q 350 1512 343 1515 q 361 1508 356 1508 q 366 1509 363 1508 q 378 1519 373 1511 q 381 1528 381 1524 q 380 1534 381 1531 l 349 1648 z "},"Á":{"ha":794,"x_min":20,"x_max":694,"o":"m 357 354 q 371 348 365 354 q 377 334 377 342 q 371 320 377 326 q 357 314 365 314 l 129 314 l 61 60 q 54 46 59 51 q 40 40 48 40 q 26 46 32 40 q 20 60 20 52 q 20 64 20 63 l 337 1248 q 344 1264 339 1258 q 357 1269 350 1269 q 370 1264 365 1269 q 377 1248 375 1258 l 694 64 q 694 60 694 63 q 688 46 694 52 q 675 40 683 40 q 662 46 667 40 q 654 60 656 52 l 357 1170 l 140 354 l 357 354 m 365 1647 q 374 1659 367 1655 q 384 1662 379 1662 q 389 1661 386 1662 q 401 1652 397 1659 q 404 1641 404 1647 q 403 1636 404 1639 l 372 1521 q 364 1511 371 1514 q 353 1507 358 1507 q 348 1508 351 1507 q 336 1518 341 1510 q 333 1527 333 1523 q 334 1533 333 1530 l 365 1647 z "},"Â":{"ha":794,"x_min":20,"x_max":694,"o":"m 357 354 q 371 348 365 354 q 377 334 377 342 q 371 320 377 326 q 357 314 365 314 l 129 314 l 61 60 q 54 46 59 51 q 40 40 48 40 q 26 46 32 40 q 20 60 20 52 q 20 64 20 63 l 337 1248 q 344 1264 339 1258 q 357 1269 350 1269 q 370 1264 365 1269 q 377 1248 375 1258 l 694 64 q 694 60 694 63 q 688 46 694 52 q 675 40 683 40 q 662 46 667 40 q 654 60 656 52 l 357 1170 l 140 354 l 357 354 m 480 1544 q 489 1528 489 1536 q 483 1513 489 1520 q 469 1508 477 1508 q 454 1514 460 1508 l 357 1612 l 259 1513 q 245 1508 253 1508 q 231 1513 237 1508 q 225 1528 225 1520 q 230 1542 225 1536 l 342 1653 q 357 1659 348 1659 q 371 1654 365 1659 l 480 1544 z "},"Ã":{"ha":794,"x_min":20,"x_max":694,"o":"m 357 354 q 371 348 365 354 q 377 334 377 342 q 371 320 377 326 q 357 314 365 314 l 129 314 l 61 60 q 54 46 59 51 q 40 40 48 40 q 26 46 32 40 q 20 60 20 52 q 20 64 20 63 l 337 1248 q 344 1264 339 1258 q 357 1269 350 1269 q 370 1264 365 1269 q 377 1248 375 1258 l 694 64 q 694 60 694 63 q 688 46 694 52 q 675 40 683 40 q 662 46 667 40 q 654 60 656 52 l 357 1170 l 140 354 l 357 354 m 193 1545 q 186 1543 189 1543 q 180 1545 184 1543 q 167 1555 170 1548 q 164 1564 164 1560 q 166 1570 164 1565 q 176 1582 168 1579 q 254 1599 208 1599 q 361 1583 301 1599 q 455 1569 417 1569 q 519 1582 494 1569 q 530 1585 524 1585 q 538 1584 535 1585 q 549 1574 545 1582 q 552 1564 552 1568 q 551 1560 552 1563 q 541 1547 548 1551 q 455 1528 507 1528 q 350 1544 409 1528 q 254 1558 293 1558 q 193 1545 217 1558 z "},"Ä":{"ha":794,"x_min":20,"x_max":694,"o":"m 357 354 q 371 348 365 354 q 377 334 377 342 q 371 320 377 326 q 357 314 365 314 l 129 314 l 61 60 q 54 46 59 51 q 40 40 48 40 q 26 46 32 40 q 20 60 20 52 q 20 64 20 63 l 337 1248 q 344 1264 339 1258 q 357 1269 350 1269 q 370 1264 365 1269 q 377 1248 375 1258 l 694 64 q 694 60 694 63 q 688 46 694 52 q 675 40 683 40 q 662 46 667 40 q 654 60 656 52 l 357 1170 l 140 354 l 357 354 m 213 1587 q 241 1575 229 1587 q 253 1548 253 1563 q 241 1520 253 1532 q 213 1508 229 1508 q 186 1520 197 1508 q 174 1548 174 1532 q 186 1575 174 1563 q 213 1587 197 1587 m 502 1587 q 530 1575 518 1587 q 542 1548 542 1563 q 530 1520 542 1532 q 502 1508 518 1508 q 474 1520 486 1508 q 462 1548 462 1532 q 474 1575 462 1563 q 502 1587 486 1587 z "},"Å":{"ha":794,"x_min":20,"x_max":694,"o":"m 357 354 q 371 348 365 354 q 377 334 377 342 q 371 320 377 326 q 357 314 365 314 l 129 314 l 61 60 q 54 46 59 51 q 40 40 48 40 q 26 46 32 40 q 20 60 20 52 q 20 64 20 63 l 337 1248 q 344 1264 339 1258 q 357 1269 350 1269 q 370 1264 365 1269 q 377 1248 375 1258 l 694 64 q 694 60 694 63 q 688 46 694 52 q 675 40 683 40 q 662 46 667 40 q 654 60 656 52 l 357 1170 l 140 354 l 357 354 m 357 1666 q 413 1642 390 1666 q 437 1586 437 1619 q 413 1530 437 1554 q 357 1507 390 1507 q 301 1530 324 1507 q 278 1586 278 1554 q 301 1642 278 1619 q 357 1666 324 1666 z "},"Æ":{"ha":1012,"x_min":20,"x_max":882,"o":"m 337 314 l 129 314 l 62 62 q 52 46 59 53 q 37 40 45 40 q 25 45 30 40 q 20 60 20 51 q 20 64 20 63 l 337 1251 q 344 1264 338 1258 q 358 1270 351 1270 l 860 1270 q 876 1264 870 1270 q 882 1249 882 1258 q 876 1234 882 1241 q 860 1228 869 1228 l 594 1228 l 594 675 l 803 675 q 817 669 812 675 q 823 654 823 663 q 816 639 823 646 q 803 633 812 633 l 594 633 l 594 82 l 860 82 q 876 75 869 82 q 882 61 882 69 q 876 46 882 53 q 860 40 869 40 l 576 40 q 561 46 567 40 q 555 61 555 53 l 555 1230 l 373 1230 l 140 354 l 337 354 q 351 348 345 354 q 357 334 357 342 q 351 320 357 326 q 337 314 345 314 z "},"Ç":{"ha":675,"x_min":119,"x_max":534,"o":"m 307 22 q 188 88 230 48 q 119 257 119 159 l 119 1053 q 189 1221 119 1151 q 357 1291 259 1291 q 528 1217 455 1291 q 534 1203 534 1211 q 528 1189 534 1195 q 514 1184 522 1184 q 501 1189 506 1184 q 357 1250 438 1250 q 216 1191 274 1250 q 159 1052 159 1133 l 159 258 q 216 118 159 177 q 357 60 274 60 q 500 121 439 60 q 514 126 506 126 q 528 120 522 126 q 534 106 534 114 q 528 92 534 98 q 346 16 465 28 l 346 -97 q 427 -139 403 -116 q 466 -238 466 -180 q 426 -336 466 -296 q 327 -377 385 -377 l 207 -377 q 193 -371 199 -377 q 188 -357 188 -365 q 193 -343 188 -349 q 207 -337 199 -337 l 326 -337 q 397 -309 368 -337 q 426 -238 426 -280 q 397 -168 426 -196 q 326 -139 368 -139 q 313 -133 318 -139 q 307 -119 307 -127 l 307 22 z "},"È":{"ha":714,"x_min":159,"x_max":576,"o":"m 159 1250 q 165 1264 159 1258 q 179 1270 171 1270 l 557 1270 q 570 1264 564 1270 q 576 1250 576 1258 q 570 1236 576 1242 q 557 1230 564 1230 l 198 1230 l 198 675 l 496 675 q 510 669 504 675 q 516 655 516 663 q 510 641 516 647 q 496 635 504 635 l 198 635 l 198 79 l 557 79 q 570 73 564 79 q 576 60 576 67 q 570 46 576 52 q 557 40 564 40 l 179 40 q 165 46 171 40 q 159 60 159 52 l 159 1250 m 359 1648 q 350 1660 357 1656 q 340 1663 345 1663 q 335 1662 338 1663 q 323 1653 327 1660 q 320 1642 320 1648 q 321 1637 320 1640 l 352 1522 q 360 1512 353 1515 q 371 1508 366 1508 q 376 1509 373 1508 q 388 1519 383 1511 q 391 1528 391 1524 q 390 1534 391 1531 l 359 1648 z "},"É":{"ha":714,"x_min":159,"x_max":576,"o":"m 159 1250 q 165 1264 159 1258 q 179 1270 171 1270 l 557 1270 q 570 1264 564 1270 q 576 1250 576 1258 q 570 1236 576 1242 q 557 1230 564 1230 l 198 1230 l 198 675 l 496 675 q 510 669 504 675 q 516 655 516 663 q 510 641 516 647 q 496 635 504 635 l 198 635 l 198 79 l 557 79 q 570 73 564 79 q 576 60 576 67 q 570 46 576 52 q 557 40 564 40 l 179 40 q 165 46 171 40 q 159 60 159 52 l 159 1250 m 376 1647 q 385 1659 378 1655 q 395 1662 390 1662 q 400 1661 397 1662 q 412 1652 408 1659 q 415 1641 415 1647 q 414 1636 415 1639 l 383 1521 q 375 1511 382 1514 q 364 1507 369 1507 q 359 1508 362 1507 q 347 1518 352 1510 q 344 1527 344 1523 q 345 1533 344 1530 l 376 1647 z "},"Ê":{"ha":714,"x_min":159,"x_max":576,"o":"m 159 1250 q 165 1264 159 1258 q 179 1270 171 1270 l 557 1270 q 570 1264 564 1270 q 576 1250 576 1258 q 570 1236 576 1242 q 557 1230 564 1230 l 198 1230 l 198 675 l 496 675 q 510 669 504 675 q 516 655 516 663 q 510 641 516 647 q 496 635 504 635 l 198 635 l 198 79 l 557 79 q 570 73 564 79 q 576 60 576 67 q 570 46 576 52 q 557 40 564 40 l 179 40 q 165 46 171 40 q 159 60 159 52 l 159 1250 m 491 1544 q 500 1528 500 1536 q 494 1513 500 1520 q 480 1508 488 1508 q 465 1514 471 1508 l 368 1612 l 270 1513 q 256 1508 264 1508 q 242 1513 248 1508 q 236 1528 236 1520 q 241 1542 236 1536 l 353 1653 q 368 1659 359 1659 q 382 1654 376 1659 l 491 1544 z "},"Ë":{"ha":714,"x_min":159,"x_max":576,"o":"m 159 1250 q 165 1264 159 1258 q 179 1270 171 1270 l 557 1270 q 570 1264 564 1270 q 576 1250 576 1258 q 570 1236 576 1242 q 557 1230 564 1230 l 198 1230 l 198 675 l 496 675 q 510 669 504 675 q 516 655 516 663 q 510 641 516 647 q 496 635 504 635 l 198 635 l 198 79 l 557 79 q 570 73 564 79 q 576 60 576 67 q 570 46 576 52 q 557 40 564 40 l 179 40 q 165 46 171 40 q 159 60 159 52 l 159 1250 m 223 1587 q 251 1575 239 1587 q 263 1548 263 1563 q 251 1520 263 1532 q 223 1508 239 1508 q 195 1520 207 1508 q 184 1548 184 1532 q 195 1575 184 1563 q 223 1587 207 1587 m 512 1587 q 540 1575 528 1587 q 552 1548 552 1563 q 540 1520 552 1532 q 512 1508 528 1508 q 484 1520 496 1508 q 472 1548 472 1532 q 484 1575 472 1563 q 512 1587 496 1587 z "},"Ì":{"ha":437,"x_min":132,"x_max":202,"o":"m 159 1250 q 165 1264 159 1258 q 179 1270 171 1270 q 192 1264 187 1270 q 198 1250 198 1258 l 198 60 q 192 46 198 52 q 179 40 187 40 q 165 46 171 40 q 159 60 159 52 l 159 1250 m 171 1648 q 162 1660 169 1656 q 152 1663 157 1663 q 147 1662 150 1663 q 135 1653 139 1660 q 132 1642 132 1648 q 133 1637 132 1640 l 164 1522 q 172 1512 165 1515 q 183 1508 178 1508 q 188 1509 185 1508 q 199 1519 194 1511 q 202 1528 202 1524 q 201 1534 202 1531 l 171 1648 z "},"Í":{"ha":437,"x_min":155,"x_max":225,"o":"m 159 1250 q 165 1264 159 1258 q 179 1270 171 1270 q 192 1264 187 1270 q 198 1250 198 1258 l 198 60 q 192 46 198 52 q 179 40 187 40 q 165 46 171 40 q 159 60 159 52 l 159 1250 m 187 1647 q 195 1659 188 1655 q 205 1662 200 1662 q 210 1661 207 1662 q 222 1652 218 1659 q 225 1641 225 1647 q 224 1636 225 1639 l 193 1521 q 186 1511 192 1514 q 175 1507 180 1507 q 170 1508 173 1507 q 158 1518 163 1510 q 155 1527 155 1523 q 156 1533 155 1530 l 187 1647 z "},"Î":{"ha":437,"x_min":47,"x_max":311,"o":"m 159 1250 q 165 1264 159 1258 q 179 1270 171 1270 q 192 1264 187 1270 q 198 1250 198 1258 l 198 60 q 192 46 198 52 q 179 40 187 40 q 165 46 171 40 q 159 60 159 52 l 159 1250 m 302 1544 q 311 1528 311 1536 q 305 1513 311 1520 q 291 1508 299 1508 q 276 1514 282 1508 l 179 1612 l 80 1513 q 66 1508 74 1508 q 53 1513 59 1508 q 47 1528 47 1520 q 52 1542 47 1536 l 164 1653 q 179 1659 170 1659 q 192 1654 187 1659 l 302 1544 z "},"Ï":{"ha":437,"x_min":-5,"x_max":363,"o":"m 160 1250 q 166 1264 160 1258 q 180 1270 172 1270 q 193 1264 188 1270 q 199 1250 199 1258 l 199 60 q 193 46 199 52 q 180 40 188 40 q 166 46 172 40 q 160 60 160 52 l 160 1250 m 35 1587 q 63 1575 51 1587 q 74 1548 74 1563 q 63 1520 74 1532 q 35 1508 51 1508 q 7 1520 19 1508 q -5 1548 -5 1532 q 7 1575 -5 1563 q 35 1587 19 1587 m 323 1587 q 351 1575 339 1587 q 363 1548 363 1563 q 351 1520 363 1532 q 323 1508 339 1508 q 296 1520 308 1508 q 284 1548 284 1532 q 296 1575 284 1563 q 323 1587 308 1587 z "},"Ð":{"ha":794,"x_min":41,"x_max":635,"o":"m 159 675 l 159 1250 q 165 1264 159 1258 q 179 1270 171 1270 l 397 1270 q 565 1200 495 1270 q 635 1032 635 1130 l 635 276 q 565 108 635 178 q 420 40 503 46 q 403 46 409 40 q 397 60 397 52 q 403 73 397 67 q 416 79 409 79 q 537 137 486 85 q 595 276 595 193 l 595 1032 q 537 1172 595 1114 q 397 1230 479 1230 l 198 1230 l 198 675 l 298 675 q 312 669 306 675 q 317 655 317 663 q 312 641 317 647 q 298 635 306 635 l 198 635 l 198 60 q 192 46 198 52 q 179 40 187 40 q 165 46 171 40 q 159 60 159 52 l 159 635 l 61 635 q 47 641 53 635 q 41 655 41 647 q 47 669 41 663 q 61 675 53 675 l 159 675 z "},"Ñ":{"ha":992,"x_min":159,"x_max":754,"o":"m 198 60 q 192 46 198 52 q 179 40 187 40 q 165 46 171 40 q 159 60 159 52 l 159 1251 q 165 1265 159 1259 q 179 1271 171 1271 q 192 1266 188 1271 q 195 1262 194 1264 l 714 147 l 714 1251 q 720 1265 714 1259 q 734 1271 726 1271 q 748 1265 742 1271 q 754 1251 754 1259 l 754 59 q 749 46 754 52 q 734 40 742 40 q 721 46 726 40 q 713 57 716 50 l 198 1170 l 198 60 m 293 1545 q 285 1543 289 1543 q 279 1545 283 1543 q 266 1555 269 1548 q 263 1564 263 1560 q 265 1570 263 1565 q 275 1582 267 1579 q 353 1599 308 1599 q 460 1583 400 1599 q 555 1569 516 1569 q 618 1582 593 1569 q 629 1585 623 1585 q 637 1584 634 1585 q 648 1574 644 1582 q 651 1564 651 1568 q 650 1560 651 1563 q 640 1547 647 1551 q 555 1528 606 1528 q 449 1544 508 1528 q 353 1558 392 1558 q 293 1545 316 1558 z "},"Ò":{"ha":794,"x_min":119,"x_max":595,"o":"m 471 1229 q 463 1235 465 1232 q 456 1249 456 1241 q 462 1263 456 1257 q 476 1269 468 1269 q 489 1265 484 1269 q 526 1235 508 1252 q 595 1066 595 1165 l 595 242 q 526 73 595 144 q 486 41 507 55 q 476 39 482 39 q 462 45 468 39 q 456 59 456 51 q 462 73 456 66 q 465 75 464 75 q 497 102 481 86 q 556 242 556 160 l 556 1066 q 497 1206 556 1149 q 471 1229 487 1217 m 226 1266 q 238 1270 231 1270 q 252 1264 246 1270 q 258 1250 258 1258 q 253 1236 258 1242 q 248 1232 249 1233 q 217 1206 232 1221 q 159 1066 159 1149 l 159 242 q 217 102 159 160 q 250 75 232 87 q 252 74 251 74 q 258 60 258 67 q 252 46 258 52 q 238 40 246 40 q 226 43 231 40 q 188 73 206 56 q 119 242 119 144 l 119 1066 q 188 1235 119 1165 q 226 1266 207 1253 m 349 1648 q 340 1660 347 1656 q 330 1663 335 1663 q 325 1662 328 1663 q 313 1653 317 1660 q 311 1642 311 1648 q 312 1637 311 1640 l 342 1522 q 350 1512 343 1515 q 361 1508 356 1508 q 366 1509 363 1508 q 378 1519 373 1511 q 381 1528 381 1524 q 380 1534 381 1531 l 349 1648 z "},"Ó":{"ha":794,"x_min":119,"x_max":595,"o":"m 471 1229 q 463 1235 465 1232 q 456 1249 456 1241 q 462 1263 456 1257 q 476 1269 468 1269 q 489 1265 484 1269 q 526 1235 508 1252 q 595 1066 595 1165 l 595 242 q 526 73 595 144 q 486 41 507 55 q 476 39 482 39 q 462 45 468 39 q 456 59 456 51 q 462 73 456 66 q 465 75 464 75 q 497 102 481 86 q 556 242 556 160 l 556 1066 q 497 1206 556 1149 q 471 1229 487 1217 m 226 1266 q 238 1270 231 1270 q 252 1264 246 1270 q 258 1250 258 1258 q 253 1236 258 1242 q 248 1232 249 1233 q 217 1206 232 1221 q 159 1066 159 1149 l 159 242 q 217 102 159 160 q 250 75 232 87 q 252 74 251 74 q 258 60 258 67 q 252 46 258 52 q 238 40 246 40 q 226 43 231 40 q 188 73 206 56 q 119 242 119 144 l 119 1066 q 188 1235 119 1165 q 226 1266 207 1253 m 365 1647 q 374 1659 367 1655 q 384 1662 379 1662 q 389 1661 386 1662 q 401 1652 397 1659 q 404 1641 404 1647 q 403 1636 404 1639 l 372 1521 q 364 1511 371 1514 q 353 1507 358 1507 q 348 1508 351 1507 q 336 1518 341 1510 q 333 1527 333 1523 q 334 1533 333 1530 l 365 1647 z "},"Ô":{"ha":794,"x_min":119,"x_max":595,"o":"m 471 1229 q 463 1235 465 1232 q 456 1249 456 1241 q 462 1263 456 1257 q 476 1269 468 1269 q 489 1265 484 1269 q 526 1235 508 1252 q 595 1066 595 1165 l 595 242 q 526 73 595 144 q 486 41 507 55 q 476 39 482 39 q 462 45 468 39 q 456 59 456 51 q 462 73 456 66 q 465 75 464 75 q 497 102 481 86 q 556 242 556 160 l 556 1066 q 497 1206 556 1149 q 471 1229 487 1217 m 226 1266 q 238 1270 231 1270 q 252 1264 246 1270 q 258 1250 258 1258 q 253 1236 258 1242 q 248 1232 249 1233 q 217 1206 232 1221 q 159 1066 159 1149 l 159 242 q 217 102 159 160 q 250 75 232 87 q 252 74 251 74 q 258 60 258 67 q 252 46 258 52 q 238 40 246 40 q 226 43 231 40 q 188 73 206 56 q 119 242 119 144 l 119 1066 q 188 1235 119 1165 q 226 1266 207 1253 m 480 1544 q 489 1528 489 1536 q 483 1513 489 1520 q 469 1508 477 1508 q 454 1514 460 1508 l 357 1612 l 259 1513 q 245 1508 253 1508 q 231 1513 237 1508 q 225 1528 225 1520 q 230 1542 225 1536 l 342 1653 q 357 1659 348 1659 q 371 1654 365 1659 l 480 1544 z "},"Õ":{"ha":794,"x_min":119,"x_max":595,"o":"m 471 1229 q 463 1235 465 1232 q 456 1249 456 1241 q 462 1263 456 1257 q 476 1269 468 1269 q 489 1265 484 1269 q 526 1235 508 1252 q 595 1066 595 1165 l 595 242 q 526 73 595 144 q 486 41 507 55 q 476 39 482 39 q 462 45 468 39 q 456 59 456 51 q 462 73 456 66 q 465 75 464 75 q 497 102 481 86 q 556 242 556 160 l 556 1066 q 497 1206 556 1149 q 471 1229 487 1217 m 226 1266 q 238 1270 231 1270 q 252 1264 246 1270 q 258 1250 258 1258 q 253 1236 258 1242 q 248 1232 249 1233 q 217 1206 232 1221 q 159 1066 159 1149 l 159 242 q 217 102 159 160 q 250 75 232 87 q 252 74 251 74 q 258 60 258 67 q 252 46 258 52 q 238 40 246 40 q 226 43 231 40 q 188 73 206 56 q 119 242 119 144 l 119 1066 q 188 1235 119 1165 q 226 1266 207 1253 m 193 1545 q 186 1543 189 1543 q 180 1545 184 1543 q 167 1555 170 1548 q 164 1564 164 1560 q 166 1570 164 1565 q 176 1582 168 1579 q 254 1599 208 1599 q 361 1583 301 1599 q 455 1569 417 1569 q 519 1582 494 1569 q 530 1585 524 1585 q 538 1584 535 1585 q 549 1574 545 1582 q 552 1564 552 1568 q 551 1560 552 1563 q 541 1547 548 1551 q 455 1528 507 1528 q 350 1544 409 1528 q 254 1558 293 1558 q 193 1545 217 1558 z "},"Ö":{"ha":794,"x_min":119,"x_max":595,"o":"m 471 1229 q 463 1235 465 1232 q 456 1249 456 1241 q 462 1263 456 1257 q 476 1269 468 1269 q 489 1265 484 1269 q 526 1235 508 1252 q 595 1066 595 1165 l 595 242 q 526 73 595 144 q 486 41 507 55 q 476 39 482 39 q 462 45 468 39 q 456 59 456 51 q 462 73 456 66 q 465 75 464 75 q 497 102 481 86 q 556 242 556 160 l 556 1066 q 497 1206 556 1149 q 471 1229 487 1217 m 226 1266 q 238 1270 231 1270 q 252 1264 246 1270 q 258 1250 258 1258 q 253 1236 258 1242 q 248 1232 249 1233 q 217 1206 232 1221 q 159 1066 159 1149 l 159 242 q 217 102 159 160 q 250 75 232 87 q 252 74 251 74 q 258 60 258 67 q 252 46 258 52 q 238 40 246 40 q 226 43 231 40 q 188 73 206 56 q 119 242 119 144 l 119 1066 q 188 1235 119 1165 q 226 1266 207 1253 m 213 1587 q 241 1575 229 1587 q 253 1548 253 1563 q 241 1520 253 1532 q 213 1508 229 1508 q 186 1520 197 1508 q 174 1548 174 1532 q 186 1575 174 1563 q 213 1587 197 1587 m 502 1587 q 530 1575 518 1587 q 542 1548 542 1563 q 530 1520 542 1532 q 502 1508 518 1508 q 474 1520 486 1508 q 462 1548 462 1532 q 474 1575 462 1563 q 502 1587 486 1587 z "},"×":{"ha":556,"x_min":79,"x_max":400,"o":"m 1081 224 l 955 350 q 949 364 949 356 q 955 378 949 372 q 969 384 961 384 q 983 378 977 384 l 1109 253 l 1235 379 q 1249 384 1241 384 q 1263 379 1257 384 q 1269 365 1269 373 q 1263 351 1269 356 l 1137 224 l 1264 98 q 1269 83 1269 92 q 1264 69 1269 75 q 1250 64 1258 64 q 1236 69 1241 64 l 1109 196 l 982 70 q 968 65 977 65 q 954 70 960 65 q 949 84 949 76 q 954 98 949 93 l 1081 224 z "},"Ø":{"ha":794,"x_min":139,"x_max":615,"o":"m 397 1292 q 546 1221 494 1272 q 615 1053 615 1151 l 615 776 q 609 762 615 768 q 595 756 603 756 q 581 762 587 756 q 575 776 575 768 l 575 1053 q 517 1193 575 1135 q 377 1251 459 1251 q 237 1193 295 1251 q 179 1053 179 1135 l 179 776 q 173 762 179 768 q 159 756 167 756 q 145 762 151 756 q 139 776 139 768 l 139 1053 q 208 1221 139 1151 q 357 1292 260 1272 l 357 1448 q 363 1462 357 1456 q 377 1468 369 1468 q 391 1462 385 1468 q 397 1448 397 1456 l 397 1292 m 357 19 q 208 89 260 39 q 139 258 139 160 l 139 535 q 145 549 139 543 q 159 555 151 555 q 173 549 167 555 q 179 535 179 543 l 179 258 q 237 118 179 176 q 377 60 295 60 q 517 118 459 60 q 575 258 575 176 l 575 535 q 581 549 575 543 q 595 555 587 555 q 609 549 603 555 q 615 535 615 543 l 615 258 q 546 89 615 160 q 397 19 494 39 l 397 -137 q 391 -151 397 -145 q 377 -157 385 -157 q 363 -151 369 -157 q 357 -137 357 -145 l 357 19 z "},"Ù":{"ha":833,"x_min":139,"x_max":615,"o":"m 139 1249 q 145 1263 139 1257 q 159 1269 151 1269 q 173 1263 167 1269 q 179 1249 179 1257 l 179 258 q 237 118 179 176 q 377 60 295 60 q 517 118 459 60 q 575 258 575 176 l 575 1249 q 581 1263 575 1257 q 595 1269 587 1269 q 609 1263 603 1269 q 615 1249 615 1257 l 615 258 q 545 90 615 160 q 377 20 475 20 q 209 90 279 20 q 139 258 139 160 l 139 1249 m 369 1648 q 360 1660 367 1656 q 350 1663 355 1663 q 345 1662 348 1663 q 333 1653 337 1660 q 330 1642 330 1648 q 331 1637 330 1640 l 362 1522 q 370 1512 363 1515 q 381 1508 376 1508 q 386 1509 383 1508 q 398 1519 393 1511 q 401 1528 401 1524 q 400 1534 401 1531 l 369 1648 z "},"Ú":{"ha":833,"x_min":139,"x_max":615,"o":"m 139 1249 q 145 1263 139 1257 q 159 1269 151 1269 q 173 1263 167 1269 q 179 1249 179 1257 l 179 258 q 237 118 179 176 q 377 60 295 60 q 517 118 459 60 q 575 258 575 176 l 575 1249 q 581 1263 575 1257 q 595 1269 587 1269 q 609 1263 603 1269 q 615 1249 615 1257 l 615 258 q 545 90 615 160 q 377 20 475 20 q 209 90 279 20 q 139 258 139 160 l 139 1249 m 385 1647 q 394 1659 387 1655 q 404 1662 399 1662 q 409 1661 406 1662 q 421 1652 417 1659 q 424 1641 424 1647 q 423 1636 424 1639 l 392 1521 q 384 1511 391 1514 q 373 1507 378 1507 q 368 1508 371 1507 q 356 1518 361 1510 q 353 1527 353 1523 q 354 1533 353 1530 l 385 1647 z "},"Û":{"ha":833,"x_min":139,"x_max":615,"o":"m 139 1249 q 145 1263 139 1257 q 159 1269 151 1269 q 173 1263 167 1269 q 179 1249 179 1257 l 179 258 q 237 118 179 176 q 377 60 295 60 q 517 118 459 60 q 575 258 575 176 l 575 1249 q 581 1263 575 1257 q 595 1269 587 1269 q 609 1263 603 1269 q 615 1249 615 1257 l 615 258 q 545 90 615 160 q 377 20 475 20 q 209 90 279 20 q 139 258 139 160 l 139 1249 m 500 1544 q 509 1528 509 1536 q 503 1513 509 1520 q 489 1508 497 1508 q 474 1514 480 1508 l 377 1612 l 279 1513 q 265 1508 273 1508 q 251 1513 257 1508 q 245 1528 245 1520 q 250 1542 245 1536 l 362 1653 q 377 1659 368 1659 q 391 1654 385 1659 l 500 1544 z "},"Ü":{"ha":833,"x_min":139,"x_max":615,"o":"m 139 1249 q 145 1263 139 1257 q 159 1269 151 1269 q 173 1263 167 1269 q 179 1249 179 1257 l 179 258 q 237 118 179 176 q 377 60 295 60 q 517 118 459 60 q 575 258 575 176 l 575 1249 q 581 1263 575 1257 q 595 1269 587 1269 q 609 1263 603 1269 q 615 1249 615 1257 l 615 258 q 545 90 615 160 q 377 20 475 20 q 209 90 279 20 q 139 258 139 160 l 139 1249 m 233 1587 q 261 1575 249 1587 q 273 1548 273 1563 q 261 1520 273 1532 q 233 1508 249 1508 q 205 1520 217 1508 q 193 1548 193 1532 q 205 1575 193 1563 q 233 1587 217 1587 m 522 1587 q 550 1575 538 1587 q 562 1548 562 1563 q 550 1520 562 1532 q 522 1508 538 1508 q 494 1520 506 1508 q 482 1548 482 1532 q 494 1575 482 1563 q 522 1587 506 1587 z "},"Ý":{"ha":635,"x_min":21,"x_max":537,"o":"m 22 1241 q 21 1250 21 1244 q 26 1264 21 1259 q 40 1270 32 1270 q 54 1265 49 1270 q 59 1258 58 1261 l 279 482 l 499 1254 q 505 1264 500 1260 q 519 1270 511 1270 q 532 1264 527 1270 q 537 1250 537 1259 q 535 1237 537 1242 l 298 415 l 298 60 q 292 46 298 52 q 278 40 286 40 q 264 46 270 40 q 258 60 258 52 l 258 416 l 22 1241 m 287 1647 q 296 1659 289 1655 q 306 1662 301 1662 q 311 1661 308 1662 q 322 1652 318 1659 q 325 1641 325 1647 q 324 1636 325 1639 l 294 1521 q 286 1511 293 1514 q 275 1507 280 1507 q 270 1508 273 1507 q 258 1518 263 1510 q 255 1527 255 1523 q 256 1533 255 1530 l 287 1647 z "},"Þ":{"ha":794,"x_min":159,"x_max":635,"o":"m 198 1133 l 397 1133 q 565 1063 495 1133 q 635 895 635 993 l 635 497 q 565 328 635 399 q 420 260 503 266 q 403 266 409 260 q 397 280 397 272 q 403 294 397 288 q 416 300 409 300 q 537 357 486 306 q 595 497 595 415 l 595 895 q 537 1035 595 977 q 397 1093 479 1093 l 198 1093 l 198 -77 q 192 -91 198 -85 q 179 -97 187 -97 q 165 -91 171 -97 q 159 -77 159 -85 l 159 1250 q 165 1264 159 1258 q 179 1270 171 1270 q 192 1264 187 1270 q 198 1250 198 1258 l 198 1133 z "},"ß":{"ha":794,"x_min":119,"x_max":595,"o":"m 395 635 q 381 641 387 635 q 375 655 375 647 q 381 669 375 663 q 395 675 387 675 l 396 675 q 508 721 461 675 q 556 833 556 767 l 556 1032 q 498 1172 556 1114 q 357 1230 439 1230 q 217 1172 275 1230 q 159 1032 159 1114 l 159 60 q 153 46 159 52 q 139 40 147 40 q 125 46 131 40 q 119 60 119 52 l 119 1032 q 189 1200 119 1130 q 357 1270 259 1270 q 525 1200 455 1270 q 595 1032 595 1130 l 595 833 q 536 693 595 752 q 490 655 531 689 q 537 615 532 619 q 595 476 595 558 l 595 237 q 537 98 595 156 q 397 40 478 40 q 382 46 388 40 q 376 60 376 52 q 382 73 376 67 q 397 79 388 79 q 509 125 462 79 q 556 237 556 171 l 556 476 q 508 589 556 543 q 396 635 461 635 l 395 635 z "},"à":{"ha":774,"x_min":119,"x_max":595,"o":"m 357 40 q 189 110 259 40 q 119 278 119 180 l 119 358 q 188 527 119 456 q 333 595 251 588 q 351 589 345 595 q 357 575 357 583 q 352 562 357 567 q 340 556 346 556 q 217 498 269 551 q 159 358 159 440 l 159 278 q 217 137 159 195 q 357 79 275 79 l 556 79 l 556 693 q 497 834 555 776 q 356 892 439 892 q 213 832 275 892 q 200 826 208 826 q 187 832 192 826 q 181 846 181 838 q 187 860 181 854 q 356 933 258 933 q 524 863 454 933 q 595 693 594 793 l 595 60 q 589 46 595 52 q 575 40 583 40 l 357 40 m 349 1291 q 340 1303 347 1299 q 330 1306 335 1306 q 325 1305 328 1306 q 313 1296 317 1303 q 311 1285 311 1291 q 312 1280 311 1283 l 342 1165 q 350 1155 343 1158 q 361 1151 356 1151 q 366 1152 363 1151 q 378 1162 373 1154 q 381 1171 381 1167 q 380 1177 381 1174 l 349 1291 z "},"á":{"ha":774,"x_min":119,"x_max":595,"o":"m 357 40 q 189 110 259 40 q 119 278 119 180 l 119 358 q 188 527 119 456 q 333 595 251 588 q 351 589 345 595 q 357 575 357 583 q 352 562 357 567 q 340 556 346 556 q 217 498 269 551 q 159 358 159 440 l 159 278 q 217 137 159 195 q 357 79 275 79 l 556 79 l 556 693 q 497 834 555 776 q 356 892 439 892 q 213 832 275 892 q 200 826 208 826 q 187 832 192 826 q 181 846 181 838 q 187 860 181 854 q 356 933 258 933 q 524 863 454 933 q 595 693 594 793 l 595 60 q 589 46 595 52 q 575 40 583 40 l 357 40 m 365 1290 q 374 1302 367 1298 q 384 1305 379 1305 q 389 1304 386 1305 q 401 1295 397 1302 q 404 1284 404 1290 q 403 1279 404 1282 l 372 1164 q 364 1154 371 1157 q 353 1150 358 1150 q 348 1151 351 1150 q 336 1161 341 1153 q 333 1170 333 1166 q 334 1176 333 1173 l 365 1290 z "},"â":{"ha":774,"x_min":119,"x_max":595,"o":"m 357 40 q 189 110 259 40 q 119 278 119 180 l 119 358 q 188 527 119 456 q 333 595 251 588 q 351 589 345 595 q 357 575 357 583 q 352 562 357 567 q 340 556 346 556 q 217 498 269 551 q 159 358 159 440 l 159 278 q 217 137 159 195 q 357 79 275 79 l 556 79 l 556 693 q 497 834 555 776 q 356 892 439 892 q 213 832 275 892 q 200 826 208 826 q 187 832 192 826 q 181 846 181 838 q 187 860 181 854 q 356 933 258 933 q 524 863 454 933 q 595 693 594 793 l 595 60 q 589 46 595 52 q 575 40 583 40 l 357 40 m 480 1187 q 489 1171 489 1179 q 483 1156 489 1163 q 469 1151 477 1151 q 454 1157 460 1151 l 357 1255 l 259 1156 q 245 1151 253 1151 q 231 1156 237 1151 q 225 1171 225 1163 q 230 1185 225 1179 l 342 1296 q 357 1302 348 1302 q 371 1297 365 1302 l 480 1187 z "},"ã":{"ha":774,"x_min":119,"x_max":595,"o":"m 357 40 q 189 110 259 40 q 119 278 119 180 l 119 358 q 188 527 119 456 q 333 595 251 588 q 351 589 345 595 q 357 575 357 583 q 352 562 357 567 q 340 556 346 556 q 217 498 269 551 q 159 358 159 440 l 159 278 q 217 137 159 195 q 357 79 275 79 l 556 79 l 556 693 q 497 834 555 776 q 356 892 439 892 q 213 832 275 892 q 200 826 208 826 q 187 832 192 826 q 181 846 181 838 q 187 860 181 854 q 356 933 258 933 q 524 863 454 933 q 595 693 594 793 l 595 60 q 589 46 595 52 q 575 40 583 40 l 357 40 m 193 1188 q 186 1186 189 1186 q 180 1188 184 1186 q 167 1197 170 1190 q 164 1207 164 1202 q 166 1213 164 1208 q 176 1225 168 1222 q 254 1242 208 1242 q 361 1226 301 1242 q 455 1212 417 1212 q 519 1225 494 1212 q 530 1228 524 1228 q 538 1227 535 1228 q 549 1217 545 1225 q 552 1207 552 1211 q 551 1202 552 1205 q 541 1189 548 1193 q 455 1171 507 1171 q 350 1187 409 1171 q 254 1200 293 1200 q 193 1188 217 1200 z "},"ä":{"ha":774,"x_min":119,"x_max":595,"o":"m 357 40 q 189 110 259 40 q 119 278 119 180 l 119 358 q 188 527 119 456 q 333 595 251 588 q 351 589 345 595 q 357 575 357 583 q 352 562 357 567 q 340 556 346 556 q 217 498 269 551 q 159 358 159 440 l 159 278 q 217 137 159 195 q 357 79 275 79 l 556 79 l 556 693 q 497 834 555 776 q 356 892 439 892 q 213 832 275 892 q 200 826 208 826 q 187 832 192 826 q 181 846 181 838 q 187 860 181 854 q 356 933 258 933 q 524 863 454 933 q 595 693 594 793 l 595 60 q 589 46 595 52 q 575 40 583 40 l 357 40 m 213 1230 q 241 1218 229 1230 q 253 1190 253 1206 q 241 1163 253 1175 q 213 1151 229 1151 q 186 1163 197 1151 q 174 1190 174 1175 q 186 1218 174 1206 q 213 1230 197 1230 m 502 1230 q 530 1218 518 1230 q 542 1190 542 1206 q 530 1163 542 1175 q 502 1151 518 1151 q 474 1163 486 1151 q 462 1190 462 1175 q 474 1218 462 1206 q 502 1230 486 1230 z "},"å":{"ha":774,"x_min":119,"x_max":595,"o":"m 357 40 q 189 110 259 40 q 119 278 119 180 l 119 358 q 188 527 119 456 q 333 595 251 588 q 351 589 345 595 q 357 575 357 583 q 352 562 357 567 q 340 556 346 556 q 217 498 269 551 q 159 358 159 440 l 159 278 q 217 137 159 195 q 357 79 275 79 l 556 79 l 556 693 q 497 834 555 776 q 356 892 439 892 q 213 832 275 892 q 200 826 208 826 q 187 832 192 826 q 181 846 181 838 q 187 860 181 854 q 356 933 258 933 q 524 863 454 933 q 595 693 594 793 l 595 60 q 589 46 595 52 q 575 40 583 40 l 357 40 m 357 1309 q 413 1285 390 1309 q 437 1229 437 1262 q 413 1173 437 1196 q 357 1150 390 1150 q 301 1173 324 1150 q 278 1229 278 1196 q 301 1285 278 1262 q 357 1309 324 1309 z "},"æ":{"ha":1230,"x_min":119,"x_max":1032,"o":"m 615 93 q 590 46 592 49 q 575 40 583 40 l 357 40 q 189 110 259 40 q 119 278 119 180 l 119 358 q 188 527 119 456 q 333 595 251 588 q 351 589 345 595 q 357 575 357 583 q 352 562 357 567 q 340 556 346 556 q 217 498 269 551 q 159 358 159 440 l 159 278 q 217 137 159 195 q 357 79 275 79 l 556 79 l 556 693 q 497 834 555 776 q 356 892 439 892 q 213 832 275 892 q 200 826 208 826 q 187 832 192 826 q 181 846 181 838 q 187 860 181 854 q 356 933 258 933 q 525 863 454 933 q 576 803 536 852 q 625 863 615 853 q 794 933 695 933 q 962 863 892 933 q 1032 694 1032 793 l 1032 456 q 1026 443 1032 449 q 1011 437 1020 437 l 813 437 q 800 442 806 437 q 794 456 794 448 q 800 470 794 464 q 813 476 806 476 l 992 476 l 992 694 q 934 835 992 777 q 794 893 876 893 q 653 835 711 893 q 595 694 595 777 l 595 258 q 653 118 595 177 q 794 60 710 60 q 934 118 876 60 q 949 125 941 125 q 963 119 957 125 q 969 105 969 113 q 961 88 969 96 q 794 19 892 19 q 615 93 713 19 z "},"ç":{"ha":694,"x_min":119,"x_max":534,"o":"m 307 22 q 188 88 230 48 q 119 257 119 159 l 119 695 q 189 864 119 794 q 357 934 259 934 q 525 864 455 934 q 534 846 534 855 q 528 832 534 838 q 514 826 522 826 q 497 834 506 826 q 357 893 439 893 q 216 834 274 893 q 159 694 159 776 l 159 258 q 216 118 159 177 q 357 60 274 60 q 497 118 439 60 q 514 126 506 126 q 528 120 522 126 q 534 106 534 114 q 525 88 534 97 q 347 17 464 27 l 344 -97 q 426 -139 402 -116 q 466 -238 466 -181 q 426 -336 466 -296 q 327 -377 385 -377 l 207 -377 q 193 -371 199 -377 q 188 -357 188 -365 q 193 -343 188 -349 q 207 -337 199 -337 l 326 -337 q 397 -309 368 -337 q 426 -238 426 -280 q 397 -168 426 -196 q 326 -139 368 -139 q 313 -133 318 -139 q 307 -119 307 -127 l 307 22 z "},"è":{"ha":774,"x_min":119,"x_max":595,"o":"m 377 437 q 363 442 369 437 q 357 456 357 448 q 363 470 357 464 q 377 476 369 476 l 556 476 l 556 694 q 498 835 556 777 q 357 893 439 893 q 217 835 275 893 q 159 694 159 777 l 159 258 q 216 118 159 177 q 357 60 274 60 q 497 118 439 60 q 513 125 505 125 q 527 119 521 125 q 533 105 533 113 q 525 88 533 96 q 357 19 455 19 q 189 89 259 19 q 119 257 119 159 l 119 694 q 189 863 119 793 q 357 933 259 933 q 525 863 455 933 q 595 694 595 793 l 595 456 q 589 443 595 449 q 574 437 583 437 l 377 437 m 349 1291 q 340 1303 347 1299 q 330 1306 335 1306 q 325 1305 328 1306 q 313 1296 317 1303 q 311 1285 311 1291 q 312 1280 311 1283 l 342 1165 q 350 1155 343 1158 q 361 1151 356 1151 q 366 1152 363 1151 q 378 1162 373 1154 q 381 1171 381 1167 q 380 1177 381 1174 l 349 1291 z "},"é":{"ha":774,"x_min":119,"x_max":595,"o":"m 377 437 q 363 442 369 437 q 357 456 357 448 q 363 470 357 464 q 377 476 369 476 l 556 476 l 556 694 q 498 835 556 777 q 357 893 439 893 q 217 835 275 893 q 159 694 159 777 l 159 258 q 216 118 159 177 q 357 60 274 60 q 497 118 439 60 q 513 125 505 125 q 527 119 521 125 q 533 105 533 113 q 525 88 533 96 q 357 19 455 19 q 189 89 259 19 q 119 257 119 159 l 119 694 q 189 863 119 793 q 357 933 259 933 q 525 863 455 933 q 595 694 595 793 l 595 456 q 589 443 595 449 q 574 437 583 437 l 377 437 m 365 1290 q 374 1302 367 1298 q 384 1305 379 1305 q 389 1304 386 1305 q 401 1295 397 1302 q 404 1284 404 1290 q 403 1279 404 1282 l 372 1164 q 364 1154 371 1157 q 353 1150 358 1150 q 348 1151 351 1150 q 336 1161 341 1153 q 333 1170 333 1166 q 334 1176 333 1173 l 365 1290 z "},"ê":{"ha":774,"x_min":119,"x_max":595,"o":"m 377 437 q 363 442 369 437 q 357 456 357 448 q 363 470 357 464 q 377 476 369 476 l 556 476 l 556 694 q 498 835 556 777 q 357 893 439 893 q 217 835 275 893 q 159 694 159 777 l 159 258 q 216 118 159 177 q 357 60 274 60 q 497 118 439 60 q 513 125 505 125 q 527 119 521 125 q 533 105 533 113 q 525 88 533 96 q 357 19 455 19 q 189 89 259 19 q 119 257 119 159 l 119 694 q 189 863 119 793 q 357 933 259 933 q 525 863 455 933 q 595 694 595 793 l 595 456 q 589 443 595 449 q 574 437 583 437 l 377 437 m 480 1187 q 489 1171 489 1179 q 483 1156 489 1163 q 469 1151 477 1151 q 454 1157 460 1151 l 357 1255 l 259 1156 q 245 1151 253 1151 q 231 1156 237 1151 q 225 1171 225 1163 q 230 1185 225 1179 l 342 1296 q 357 1302 348 1302 q 371 1297 365 1302 l 480 1187 z "},"ë":{"ha":774,"x_min":119,"x_max":595,"o":"m 377 437 q 363 442 369 437 q 357 456 357 448 q 363 470 357 464 q 377 476 369 476 l 556 476 l 556 694 q 498 835 556 777 q 357 893 439 893 q 217 835 275 893 q 159 694 159 777 l 159 258 q 216 118 159 177 q 357 60 274 60 q 497 118 439 60 q 513 125 505 125 q 527 119 521 125 q 533 105 533 113 q 525 88 533 96 q 357 19 455 19 q 189 89 259 19 q 119 257 119 159 l 119 694 q 189 863 119 793 q 357 933 259 933 q 525 863 455 933 q 595 694 595 793 l 595 456 q 589 443 595 449 q 574 437 583 437 l 377 437 m 213 1230 q 241 1218 229 1230 q 253 1190 253 1206 q 241 1163 253 1175 q 213 1151 229 1151 q 186 1163 197 1151 q 174 1190 174 1175 q 186 1218 174 1206 q 213 1230 197 1230 m 502 1230 q 530 1218 518 1230 q 542 1190 542 1206 q 530 1163 542 1175 q 502 1151 518 1151 q 474 1163 486 1151 q 462 1190 462 1175 q 474 1218 462 1206 q 502 1230 486 1230 z "},"ì":{"ha":437,"x_min":132,"x_max":202,"o":"m 198 60 q 192 46 198 52 q 179 40 187 40 q 165 46 171 40 q 159 60 159 52 l 159 893 q 165 907 159 901 q 179 913 171 913 q 192 907 187 913 q 198 893 198 901 l 198 60 m 171 1291 q 162 1303 169 1299 q 152 1306 157 1306 q 147 1305 150 1306 q 135 1296 139 1303 q 132 1285 132 1291 q 133 1280 132 1283 l 164 1165 q 172 1155 165 1158 q 183 1151 178 1151 q 188 1152 185 1151 q 199 1162 194 1154 q 202 1171 202 1167 q 201 1177 202 1174 l 171 1291 z "},"í":{"ha":437,"x_min":155,"x_max":225,"o":"m 198 60 q 192 46 198 52 q 179 40 187 40 q 165 46 171 40 q 159 60 159 52 l 159 893 q 165 907 159 901 q 179 913 171 913 q 192 907 187 913 q 198 893 198 901 l 198 60 m 187 1290 q 195 1302 188 1298 q 205 1305 200 1305 q 210 1304 207 1305 q 222 1295 218 1302 q 225 1284 225 1290 q 224 1279 225 1282 l 193 1164 q 186 1154 192 1157 q 175 1150 180 1150 q 170 1151 173 1150 q 158 1161 163 1153 q 155 1170 155 1166 q 156 1176 155 1173 l 187 1290 z "},"î":{"ha":437,"x_min":47,"x_max":311,"o":"m 198 60 q 192 46 198 52 q 179 40 187 40 q 165 46 171 40 q 159 60 159 52 l 159 893 q 165 907 159 901 q 179 913 171 913 q 192 907 187 913 q 198 893 198 901 l 198 60 m 302 1187 q 311 1171 311 1179 q 305 1156 311 1163 q 291 1151 299 1151 q 276 1157 282 1151 l 179 1255 l 80 1156 q 66 1151 74 1151 q 53 1156 59 1151 q 47 1171 47 1163 q 52 1185 47 1179 l 164 1296 q 179 1302 170 1302 q 192 1297 187 1302 l 302 1187 z "},"ï":{"ha":437,"x_min":-5,"x_max":363,"o":"m 199 60 q 193 46 199 52 q 180 40 188 40 q 166 46 172 40 q 160 60 160 52 l 160 893 q 166 907 160 901 q 180 913 172 913 q 193 907 188 913 q 199 893 199 901 l 199 60 m 35 1230 q 63 1218 51 1230 q 74 1190 74 1206 q 63 1163 74 1175 q 35 1151 51 1151 q 7 1163 19 1151 q -5 1190 -5 1175 q 7 1218 -5 1206 q 35 1230 19 1230 m 323 1230 q 351 1218 339 1230 q 363 1190 363 1206 q 351 1163 363 1175 q 323 1151 339 1151 q 296 1163 308 1151 q 284 1190 284 1175 q 296 1218 284 1206 q 323 1230 308 1230 z "},"ð":{"ha":774,"x_min":100,"x_max":576,"o":"m 182 1184 q 168 1189 174 1184 q 163 1198 164 1192 q 164 1193 164 1195 l 132 1313 q 131 1317 131 1315 q 134 1328 131 1323 q 146 1337 138 1335 q 151 1338 149 1338 q 161 1335 156 1338 q 170 1323 168 1331 l 189 1246 q 337 1290 283 1290 q 505 1220 436 1290 q 575 1052 575 1150 l 575 1011 l 576 1011 l 576 257 q 506 89 576 159 q 338 19 437 19 q 170 89 240 19 q 100 257 100 159 l 100 557 q 170 725 100 655 q 314 794 232 787 q 332 788 326 794 q 338 774 338 782 q 333 759 338 765 q 321 754 328 755 q 198 696 250 749 q 140 557 140 639 l 140 257 q 198 117 140 175 q 338 59 256 59 q 479 117 421 59 q 537 257 537 175 l 537 1090 l 536 1090 q 478 1190 536 1132 q 337 1249 421 1249 q 197 1190 255 1249 q 182 1184 189 1184 z "},"ñ":{"ha":853,"x_min":159,"x_max":635,"o":"m 198 60 q 192 46 198 52 q 179 40 187 40 q 165 46 171 40 q 159 60 159 52 l 159 893 q 165 907 159 901 q 179 913 171 913 l 397 913 q 565 843 495 913 q 635 675 635 773 l 635 60 q 629 46 635 52 q 615 40 623 40 q 601 46 607 40 q 595 60 595 52 l 595 675 q 537 815 595 757 q 397 873 479 873 l 198 873 l 198 60 m 233 1188 q 225 1186 229 1186 q 219 1188 223 1186 q 206 1197 209 1190 q 203 1207 203 1202 q 205 1213 203 1208 q 215 1225 207 1222 q 294 1242 248 1242 q 401 1226 340 1242 q 495 1212 456 1212 q 559 1225 534 1212 q 569 1228 563 1228 q 577 1227 574 1228 q 588 1217 584 1225 q 591 1207 591 1211 q 590 1202 591 1205 q 580 1189 587 1193 q 495 1171 547 1171 q 390 1187 448 1171 q 294 1200 332 1200 q 233 1188 257 1200 z "},"ò":{"ha":794,"x_min":119,"x_max":595,"o":"m 471 873 q 463 879 465 876 q 456 893 456 885 q 462 907 456 901 q 476 913 468 913 q 489 909 484 913 q 526 879 508 896 q 595 710 595 809 l 595 243 q 526 74 595 145 q 486 42 507 56 q 476 40 482 40 q 462 46 468 40 q 456 60 456 52 q 462 74 456 67 q 465 76 464 76 q 497 103 481 87 q 556 243 556 161 l 556 710 q 497 850 556 793 q 471 873 487 861 m 226 910 q 238 914 231 914 q 252 908 246 914 q 258 894 258 902 q 253 880 258 886 q 248 876 249 877 q 217 850 232 865 q 159 710 159 793 l 159 243 q 217 103 159 161 q 250 76 232 88 q 252 75 251 75 q 258 61 258 68 q 252 47 258 53 q 238 41 246 41 q 226 44 231 41 q 188 74 206 57 q 119 243 119 145 l 119 710 q 188 879 119 809 q 226 910 207 897 m 349 1291 q 340 1303 347 1299 q 330 1306 335 1306 q 325 1305 328 1306 q 313 1296 317 1303 q 311 1285 311 1291 q 312 1280 311 1283 l 342 1165 q 350 1155 343 1158 q 361 1151 356 1151 q 366 1152 363 1151 q 378 1162 373 1154 q 381 1171 381 1167 q 380 1177 381 1174 l 349 1291 z "},"ó":{"ha":794,"x_min":119,"x_max":595,"o":"m 471 873 q 463 879 465 876 q 456 893 456 885 q 462 907 456 901 q 476 913 468 913 q 489 909 484 913 q 526 879 508 896 q 595 710 595 809 l 595 243 q 526 74 595 145 q 486 42 507 56 q 476 40 482 40 q 462 46 468 40 q 456 60 456 52 q 462 74 456 67 q 465 76 464 76 q 497 103 481 87 q 556 243 556 161 l 556 710 q 497 850 556 793 q 471 873 487 861 m 226 910 q 238 914 231 914 q 252 908 246 914 q 258 894 258 902 q 253 880 258 886 q 248 876 249 877 q 217 850 232 865 q 159 710 159 793 l 159 243 q 217 103 159 161 q 250 76 232 88 q 252 75 251 75 q 258 61 258 68 q 252 47 258 53 q 238 41 246 41 q 226 44 231 41 q 188 74 206 57 q 119 243 119 145 l 119 710 q 188 879 119 809 q 226 910 207 897 m 365 1290 q 374 1302 367 1298 q 384 1305 379 1305 q 389 1304 386 1305 q 401 1295 397 1302 q 404 1284 404 1290 q 403 1279 404 1282 l 372 1164 q 364 1154 371 1157 q 353 1150 358 1150 q 348 1151 351 1150 q 336 1161 341 1153 q 333 1170 333 1166 q 334 1176 333 1173 l 365 1290 z "},"ô":{"ha":794,"x_min":119,"x_max":595,"o":"m 471 873 q 463 879 465 876 q 456 893 456 885 q 462 907 456 901 q 476 913 468 913 q 489 909 484 913 q 526 879 508 896 q 595 710 595 809 l 595 243 q 526 74 595 145 q 486 42 507 56 q 476 40 482 40 q 462 46 468 40 q 456 60 456 52 q 462 74 456 67 q 465 76 464 76 q 497 103 481 87 q 556 243 556 161 l 556 710 q 497 850 556 793 q 471 873 487 861 m 226 910 q 238 914 231 914 q 252 908 246 914 q 258 894 258 902 q 253 880 258 886 q 248 876 249 877 q 217 850 232 865 q 159 710 159 793 l 159 243 q 217 103 159 161 q 250 76 232 88 q 252 75 251 75 q 258 61 258 68 q 252 47 258 53 q 238 41 246 41 q 226 44 231 41 q 188 74 206 57 q 119 243 119 145 l 119 710 q 188 879 119 809 q 226 910 207 897 m 480 1187 q 489 1171 489 1179 q 483 1156 489 1163 q 469 1151 477 1151 q 454 1157 460 1151 l 357 1255 l 259 1156 q 245 1151 253 1151 q 231 1156 237 1151 q 225 1171 225 1163 q 230 1185 225 1179 l 342 1296 q 357 1302 348 1302 q 371 1297 365 1302 l 480 1187 z "},"õ":{"ha":794,"x_min":119,"x_max":595,"o":"m 471 873 q 463 879 465 876 q 456 893 456 885 q 462 907 456 901 q 476 913 468 913 q 489 909 484 913 q 526 879 508 896 q 595 710 595 809 l 595 243 q 526 74 595 145 q 486 42 507 56 q 476 40 482 40 q 462 46 468 40 q 456 60 456 52 q 462 74 456 67 q 465 76 464 76 q 497 103 481 87 q 556 243 556 161 l 556 710 q 497 850 556 793 q 471 873 487 861 m 226 910 q 238 914 231 914 q 252 908 246 914 q 258 894 258 902 q 253 880 258 886 q 248 876 249 877 q 217 850 232 865 q 159 710 159 793 l 159 243 q 217 103 159 161 q 250 76 232 88 q 252 75 251 75 q 258 61 258 68 q 252 47 258 53 q 238 41 246 41 q 226 44 231 41 q 188 74 206 57 q 119 243 119 145 l 119 710 q 188 879 119 809 q 226 910 207 897 m 193 1188 q 186 1186 189 1186 q 180 1188 184 1186 q 167 1197 170 1190 q 164 1207 164 1202 q 166 1213 164 1208 q 176 1225 168 1222 q 254 1242 208 1242 q 361 1226 301 1242 q 455 1212 417 1212 q 519 1225 494 1212 q 530 1228 524 1228 q 538 1227 535 1228 q 549 1217 545 1225 q 552 1207 552 1211 q 551 1202 552 1205 q 541 1189 548 1193 q 455 1171 507 1171 q 350 1187 409 1171 q 254 1200 293 1200 q 193 1188 217 1200 z "},"ö":{"ha":794,"x_min":119,"x_max":595,"o":"m 471 873 q 463 879 465 876 q 456 893 456 885 q 462 907 456 901 q 476 913 468 913 q 489 909 484 913 q 526 879 508 896 q 595 710 595 809 l 595 243 q 526 74 595 145 q 486 42 507 56 q 476 40 482 40 q 462 46 468 40 q 456 60 456 52 q 462 74 456 67 q 465 76 464 76 q 497 103 481 87 q 556 243 556 161 l 556 710 q 497 850 556 793 q 471 873 487 861 m 226 910 q 238 914 231 914 q 252 908 246 914 q 258 894 258 902 q 253 880 258 886 q 248 876 249 877 q 217 850 232 865 q 159 710 159 793 l 159 243 q 217 103 159 161 q 250 76 232 88 q 252 75 251 75 q 258 61 258 68 q 252 47 258 53 q 238 41 246 41 q 226 44 231 41 q 188 74 206 57 q 119 243 119 145 l 119 710 q 188 879 119 809 q 226 910 207 897 m 213 1230 q 241 1218 229 1230 q 253 1190 253 1206 q 241 1163 253 1175 q 213 1151 229 1151 q 186 1163 197 1151 q 174 1190 174 1175 q 186 1218 174 1206 q 213 1230 197 1230 m 502 1230 q 530 1218 518 1230 q 542 1190 542 1206 q 530 1163 542 1175 q 502 1151 518 1151 q 474 1163 486 1151 q 462 1190 462 1175 q 474 1218 462 1206 q 502 1230 486 1230 z "},"÷":{"ha":675,"x_min":80,"x_max":517,"o":"m 100 595 q 86 601 92 595 q 80 615 80 607 q 86 629 80 623 q 100 635 92 635 l 497 635 q 511 629 505 635 q 517 615 517 623 q 511 601 517 607 q 497 595 505 595 l 100 595 m 304 357 q 331 345 319 357 q 343 317 343 333 q 331 290 343 302 q 304 278 319 278 q 276 290 288 278 q 264 317 264 302 q 276 345 264 333 q 304 357 288 357 m 304 962 q 331 950 319 962 q 343 923 343 938 q 331 895 343 907 q 304 883 319 883 q 276 895 288 883 q 264 923 264 907 q 276 950 264 938 q 304 962 288 962 z "},"ø":{"ha":794,"x_min":139,"x_max":615,"o":"m 397 935 q 546 864 494 915 q 615 695 615 794 l 615 597 q 609 583 615 589 q 595 577 603 577 q 581 583 587 577 q 575 597 575 589 l 575 695 q 517 836 575 778 q 377 894 459 894 q 237 836 295 894 q 179 695 179 778 l 179 597 q 173 583 179 589 q 159 577 167 577 q 145 583 151 577 q 139 597 139 589 l 139 695 q 208 864 139 794 q 357 935 260 915 l 357 1091 q 363 1105 357 1099 q 377 1111 369 1111 q 391 1105 385 1111 q 397 1091 397 1099 l 397 935 m 357 19 q 208 89 260 39 q 139 258 139 160 l 139 356 q 145 370 139 364 q 159 376 151 376 q 173 370 167 376 q 179 356 179 364 l 179 258 q 237 118 179 176 q 377 60 295 60 q 517 118 459 60 q 575 258 575 176 l 575 356 q 581 370 575 364 q 595 376 587 376 q 609 370 603 376 q 615 356 615 364 l 615 258 q 546 89 615 160 q 397 19 494 39 l 397 -137 q 391 -151 397 -145 q 377 -157 385 -157 q 363 -151 369 -157 q 357 -137 357 -145 l 357 19 z "},"ù":{"ha":853,"x_min":139,"x_max":615,"o":"m 575 893 q 581 907 575 901 q 595 913 587 913 q 609 907 603 913 q 615 893 615 901 l 615 60 q 609 46 615 52 q 595 40 603 40 l 377 40 q 209 110 279 40 q 139 278 139 180 l 139 893 q 145 907 139 901 q 159 913 151 913 q 173 907 167 913 q 179 893 179 901 l 179 278 q 237 137 179 195 q 377 79 295 79 l 575 79 l 575 893 m 369 1291 q 360 1303 367 1299 q 350 1306 355 1306 q 345 1305 348 1306 q 333 1296 337 1303 q 330 1285 330 1291 q 331 1280 330 1283 l 362 1165 q 370 1155 363 1158 q 381 1151 376 1151 q 386 1152 383 1151 q 398 1162 393 1154 q 401 1171 401 1167 q 400 1177 401 1174 l 369 1291 z "},"ú":{"ha":853,"x_min":139,"x_max":615,"o":"m 575 893 q 581 907 575 901 q 595 913 587 913 q 609 907 603 913 q 615 893 615 901 l 615 60 q 609 46 615 52 q 595 40 603 40 l 377 40 q 209 110 279 40 q 139 278 139 180 l 139 893 q 145 907 139 901 q 159 913 151 913 q 173 907 167 913 q 179 893 179 901 l 179 278 q 237 137 179 195 q 377 79 295 79 l 575 79 l 575 893 m 385 1290 q 394 1302 387 1298 q 404 1305 399 1305 q 409 1304 406 1305 q 421 1295 417 1302 q 424 1284 424 1290 q 423 1279 424 1282 l 392 1164 q 384 1154 391 1157 q 373 1150 378 1150 q 368 1151 371 1150 q 356 1161 361 1153 q 353 1170 353 1166 q 354 1176 353 1173 l 385 1290 z "},"û":{"ha":853,"x_min":139,"x_max":615,"o":"m 575 893 q 581 907 575 901 q 595 913 587 913 q 609 907 603 913 q 615 893 615 901 l 615 60 q 609 46 615 52 q 595 40 603 40 l 377 40 q 209 110 279 40 q 139 278 139 180 l 139 893 q 145 907 139 901 q 159 913 151 913 q 173 907 167 913 q 179 893 179 901 l 179 278 q 237 137 179 195 q 377 79 295 79 l 575 79 l 575 893 m 500 1187 q 509 1171 509 1179 q 503 1156 509 1163 q 489 1151 497 1151 q 474 1157 480 1151 l 377 1255 l 279 1156 q 265 1151 273 1151 q 251 1156 257 1151 q 245 1171 245 1163 q 250 1185 245 1179 l 362 1296 q 377 1302 368 1302 q 391 1297 385 1302 l 500 1187 z "},"ü":{"ha":853,"x_min":139,"x_max":615,"o":"m 575 893 q 581 907 575 901 q 595 913 587 913 q 609 907 603 913 q 615 893 615 901 l 615 60 q 609 46 615 52 q 595 40 603 40 l 377 40 q 209 110 279 40 q 139 278 139 180 l 139 893 q 145 907 139 901 q 159 913 151 913 q 173 907 167 913 q 179 893 179 901 l 179 278 q 237 137 179 195 q 377 79 295 79 l 575 79 l 575 893 m 233 1230 q 261 1218 249 1230 q 273 1190 273 1206 q 261 1163 273 1175 q 233 1151 249 1151 q 205 1163 217 1151 q 193 1190 193 1175 q 205 1218 193 1206 q 233 1230 217 1230 m 522 1230 q 550 1218 538 1230 q 562 1190 562 1206 q 550 1163 562 1175 q 522 1151 538 1151 q 494 1163 506 1151 q 482 1190 482 1175 q 494 1218 482 1206 q 522 1230 506 1230 z "},"ý":{"ha":833,"x_min":139,"x_max":615,"o":"m 575 893 q 581 907 575 901 q 595 913 587 913 q 609 907 603 913 q 615 893 615 901 l 615 -99 q 557 -239 615 -181 q 417 -298 498 -298 q 277 -240 335 -298 q 241 -193 255 -218 q 238 -179 238 -187 q 243 -165 238 -170 q 256 -160 248 -160 q 268 -163 265 -160 q 273 -170 271 -166 q 306 -211 286 -191 q 417 -258 351 -258 q 529 -212 483 -258 q 575 -99 575 -166 l 575 40 l 377 40 q 209 110 279 40 q 139 278 139 180 l 139 893 q 145 907 139 901 q 159 913 151 913 q 173 907 167 913 q 179 893 179 901 l 179 278 q 237 137 179 195 q 377 79 295 79 l 575 79 l 575 893 m 385 1290 q 394 1302 387 1298 q 404 1305 399 1305 q 409 1304 406 1305 q 421 1295 417 1302 q 424 1284 424 1290 q 423 1279 424 1282 l 392 1164 q 384 1154 391 1157 q 373 1150 378 1150 q 368 1151 371 1150 q 356 1161 361 1153 q 353 1170 353 1166 q 354 1176 353 1173 l 385 1290 z "},"þ":{"ha":833,"x_min":159,"x_max":635,"o":"m 198 912 l 397 912 q 565 842 495 912 q 635 674 635 772 l 635 276 q 565 107 635 178 q 420 39 503 45 q 403 45 409 39 q 397 59 397 51 q 404 73 397 66 q 415 78 408 78 q 537 136 486 84 q 595 276 595 193 l 595 674 q 537 814 595 756 q 397 872 479 872 l 198 872 l 198 -299 q 192 -312 198 -307 q 179 -318 187 -318 q 165 -312 171 -318 q 159 -299 159 -307 l 159 1250 q 165 1264 159 1258 q 179 1270 171 1270 q 192 1264 187 1270 q 198 1250 198 1258 l 198 912 z "},"ÿ":{"ha":833,"x_min":139,"x_max":615,"o":"m 575 893 q 581 907 575 901 q 595 913 587 913 q 609 907 603 913 q 615 893 615 901 l 615 -99 q 557 -239 615 -181 q 417 -298 498 -298 q 277 -240 335 -298 q 241 -193 255 -218 q 238 -179 238 -187 q 243 -165 238 -170 q 256 -160 248 -160 q 268 -163 265 -160 q 273 -170 271 -166 q 306 -211 286 -191 q 417 -258 351 -258 q 529 -212 483 -258 q 575 -99 575 -166 l 575 40 l 377 40 q 209 110 279 40 q 139 278 139 180 l 139 893 q 145 907 139 901 q 159 913 151 913 q 173 907 167 913 q 179 893 179 901 l 179 278 q 237 137 179 195 q 377 79 295 79 l 575 79 l 575 893 m 233 1230 q 261 1218 249 1230 q 273 1190 273 1206 q 261 1163 273 1175 q 233 1151 249 1151 q 205 1163 217 1151 q 193 1190 193 1175 q 205 1218 193 1206 q 233 1230 217 1230 m 522 1230 q 550 1218 538 1230 q 562 1190 562 1206 q 550 1163 562 1175 q 522 1151 538 1151 q 494 1163 506 1151 q 482 1190 482 1175 q 494 1218 482 1206 q 522 1230 506 1230 z "},"Ā":{"ha":794,"x_min":20,"x_max":694,"o":"m 357 354 q 371 348 365 354 q 377 334 377 342 q 371 320 377 326 q 357 314 365 314 l 129 314 l 61 60 q 54 46 59 51 q 40 40 48 40 q 26 46 32 40 q 20 60 20 52 q 20 64 20 63 l 337 1248 q 344 1264 339 1258 q 357 1269 350 1269 q 370 1264 365 1269 q 377 1248 375 1258 l 694 64 q 694 60 694 63 q 688 46 694 52 q 675 40 683 40 q 662 46 667 40 q 654 60 656 52 l 357 1170 l 140 354 l 357 354 m 238 1508 q 224 1514 230 1508 q 218 1528 218 1520 q 224 1542 218 1536 q 238 1548 230 1548 l 476 1548 q 490 1542 484 1548 q 496 1528 496 1536 q 490 1514 496 1520 q 476 1508 484 1508 l 238 1508 z "},"ā":{"ha":774,"x_min":119,"x_max":595,"o":"m 357 40 q 189 110 259 40 q 119 278 119 180 l 119 358 q 188 527 119 456 q 333 595 251 588 q 351 589 345 595 q 357 575 357 583 q 352 562 357 567 q 340 556 346 556 q 217 498 269 551 q 159 358 159 440 l 159 278 q 217 137 159 195 q 357 79 275 79 l 556 79 l 556 693 q 497 834 555 776 q 356 892 439 892 q 213 832 275 892 q 200 826 208 826 q 187 832 192 826 q 181 846 181 838 q 187 860 181 854 q 356 933 258 933 q 524 863 454 933 q 595 693 594 793 l 595 60 q 589 46 595 52 q 575 40 583 40 l 357 40 m 238 1151 q 224 1157 230 1151 q 218 1171 218 1163 q 224 1185 218 1179 q 238 1190 230 1190 l 476 1190 q 490 1185 484 1190 q 496 1171 496 1179 q 490 1157 496 1163 q 476 1151 484 1151 l 238 1151 z "},"Ă":{"ha":794,"x_min":20,"x_max":694,"o":"m 357 354 q 371 348 365 354 q 377 334 377 342 q 371 320 377 326 q 357 314 365 314 l 129 314 l 61 60 q 54 46 59 51 q 40 40 48 40 q 26 46 32 40 q 20 60 20 52 q 20 64 20 63 l 337 1248 q 344 1264 339 1258 q 357 1269 350 1269 q 370 1264 365 1269 q 377 1248 375 1258 l 694 64 q 694 60 694 63 q 688 46 694 52 q 675 40 683 40 q 662 46 667 40 q 654 60 656 52 l 357 1170 l 140 354 l 357 354 m 231 1545 q 222 1557 224 1549 q 221 1563 221 1560 q 224 1572 221 1567 q 237 1582 229 1580 q 243 1583 240 1583 q 253 1580 248 1583 q 357 1549 306 1549 q 462 1580 410 1550 q 472 1582 466 1582 q 479 1581 476 1582 q 491 1572 487 1579 q 494 1562 494 1566 q 493 1556 494 1559 q 484 1544 491 1548 q 363 1508 422 1509 l 357 1508 q 231 1545 294 1508 z "},"ă":{"ha":774,"x_min":119,"x_max":595,"o":"m 357 40 q 189 110 259 40 q 119 278 119 180 l 119 358 q 188 527 119 456 q 333 595 251 588 q 351 589 345 595 q 357 575 357 583 q 352 562 357 567 q 340 556 346 556 q 217 498 269 551 q 159 358 159 440 l 159 278 q 217 137 159 195 q 357 79 275 79 l 556 79 l 556 693 q 497 834 555 776 q 356 892 439 892 q 213 832 275 892 q 200 826 208 826 q 187 832 192 826 q 181 846 181 838 q 187 860 181 854 q 356 933 258 933 q 524 863 454 933 q 595 693 594 793 l 595 60 q 589 46 595 52 q 575 40 583 40 l 357 40 m 231 1188 q 222 1199 224 1191 q 221 1205 221 1202 q 224 1215 221 1210 q 237 1225 229 1223 q 243 1226 240 1226 q 253 1223 248 1226 q 357 1191 306 1191 q 462 1223 410 1192 q 472 1225 466 1225 q 479 1224 476 1225 q 491 1215 487 1222 q 494 1204 494 1209 q 493 1198 494 1201 q 484 1187 491 1190 q 363 1151 422 1152 l 357 1151 q 231 1188 294 1151 z "},"Ą":{"ha":794,"x_min":20,"x_max":813,"o":"m 647 81 l 357 1170 l 140 354 l 357 354 q 371 348 365 354 q 377 334 377 342 q 371 320 377 326 q 357 314 365 314 l 129 314 l 61 60 q 54 46 59 51 q 40 40 48 40 q 26 46 32 40 q 20 60 20 52 q 20 64 20 63 l 337 1248 q 344 1264 339 1258 q 357 1269 350 1269 q 370 1264 365 1269 q 377 1248 375 1258 l 694 64 q 694 60 694 63 q 688 46 694 52 q 675 40 683 40 q 604 11 633 40 q 575 -60 575 -18 q 604 -130 575 -101 q 675 -159 633 -159 l 794 -159 q 808 -165 802 -159 q 813 -179 813 -171 q 808 -192 813 -187 q 794 -198 802 -198 l 674 -198 q 575 -158 616 -198 q 535 -60 535 -117 q 575 40 535 -2 q 647 81 594 59 z "},"ą":{"ha":774,"x_min":119,"x_max":714,"o":"m 462 40 l 357 40 q 189 110 259 40 q 119 278 119 180 l 119 358 q 188 527 119 456 q 333 595 251 588 q 351 589 345 595 q 357 575 357 583 q 352 562 357 567 q 340 556 346 556 q 217 498 269 551 q 159 358 159 440 l 159 278 q 217 137 159 195 q 357 79 275 79 l 556 79 l 556 693 q 497 834 555 776 q 356 892 439 892 q 213 832 275 892 q 200 826 208 826 q 187 832 192 826 q 181 846 181 838 q 187 860 181 854 q 356 933 258 933 q 524 863 454 933 q 595 693 594 793 l 595 60 q 589 46 595 52 q 575 40 583 40 q 505 11 534 40 q 476 -60 476 -18 q 505 -130 476 -101 q 575 -159 534 -159 l 694 -159 q 708 -165 702 -159 q 714 -179 714 -171 q 708 -192 714 -187 q 694 -198 702 -198 l 574 -198 q 476 -158 517 -198 q 436 -60 436 -117 q 462 40 436 -35 z "},"Ć":{"ha":675,"x_min":119,"x_max":534,"o":"m 500 121 q 514 126 506 126 q 528 120 522 126 q 534 106 534 114 q 528 92 534 98 q 357 19 455 19 q 189 89 259 19 q 119 257 119 159 l 119 1053 q 189 1221 119 1151 q 357 1291 259 1291 q 528 1217 455 1291 q 534 1203 534 1211 q 528 1189 534 1195 q 514 1184 522 1184 q 501 1189 506 1184 q 357 1250 438 1250 q 216 1191 274 1250 q 159 1052 159 1133 l 159 258 q 216 118 159 177 q 357 60 274 60 q 500 121 439 60 m 334 1647 q 343 1659 336 1655 q 353 1662 348 1662 q 358 1661 355 1662 q 370 1652 366 1659 q 373 1641 373 1647 q 372 1636 373 1639 l 341 1521 q 333 1511 340 1514 q 322 1507 327 1507 q 317 1508 320 1507 q 306 1518 311 1510 q 303 1527 303 1523 q 304 1533 303 1530 l 334 1647 z "},"ć":{"ha":694,"x_min":119,"x_max":534,"o":"m 497 118 q 514 126 506 126 q 528 120 522 126 q 534 106 534 114 q 525 88 534 97 q 357 19 455 19 q 189 89 259 19 q 119 257 119 159 l 119 695 q 189 864 119 794 q 357 934 259 934 q 525 864 455 934 q 534 846 534 855 q 528 832 534 838 q 514 826 522 826 q 497 834 506 826 q 357 893 439 893 q 216 834 274 893 q 159 694 159 776 l 159 258 q 216 118 159 177 q 357 60 274 60 q 497 118 439 60 m 334 1290 q 343 1302 336 1298 q 353 1305 348 1305 q 358 1304 355 1305 q 370 1295 366 1302 q 373 1284 373 1290 q 372 1279 373 1282 l 341 1164 q 333 1154 340 1157 q 322 1150 327 1150 q 317 1151 320 1150 q 306 1161 311 1153 q 303 1170 303 1166 q 304 1176 303 1173 l 334 1290 z "},"Ĉ":{"ha":675,"x_min":119,"x_max":534,"o":"m 500 121 q 514 126 506 126 q 528 120 522 126 q 534 106 534 114 q 528 92 534 98 q 357 19 455 19 q 189 89 259 19 q 119 257 119 159 l 119 1053 q 189 1221 119 1151 q 357 1291 259 1291 q 528 1217 455 1291 q 534 1203 534 1211 q 528 1189 534 1195 q 514 1184 522 1184 q 501 1189 506 1184 q 357 1250 438 1250 q 216 1191 274 1250 q 159 1052 159 1133 l 159 258 q 216 118 159 177 q 357 60 274 60 q 500 121 439 60 m 449 1544 q 458 1528 458 1536 q 452 1513 458 1520 q 438 1508 446 1508 q 424 1514 430 1508 l 326 1612 l 228 1513 q 214 1508 222 1508 q 200 1513 206 1508 q 194 1528 194 1520 q 199 1542 194 1536 l 312 1653 q 326 1659 317 1659 q 340 1654 334 1659 l 449 1544 z "},"ĉ":{"ha":694,"x_min":119,"x_max":534,"o":"m 497 118 q 514 126 506 126 q 528 120 522 126 q 534 106 534 114 q 525 88 534 97 q 357 19 455 19 q 189 89 259 19 q 119 257 119 159 l 119 695 q 189 864 119 794 q 357 934 259 934 q 525 864 455 934 q 534 846 534 855 q 528 832 534 838 q 514 826 522 826 q 497 834 506 826 q 357 893 439 893 q 216 834 274 893 q 159 694 159 776 l 159 258 q 216 118 159 177 q 357 60 274 60 q 497 118 439 60 m 449 1187 q 458 1171 458 1179 q 452 1156 458 1163 q 438 1151 446 1151 q 424 1157 430 1151 l 326 1255 l 228 1156 q 214 1151 222 1151 q 200 1156 206 1151 q 194 1171 194 1163 q 199 1185 194 1179 l 312 1296 q 326 1302 317 1302 q 340 1297 334 1302 l 449 1187 z "},"Ċ":{"ha":675,"x_min":119,"x_max":534,"o":"m 500 121 q 514 126 506 126 q 528 120 522 126 q 534 106 534 114 q 528 92 534 98 q 357 19 455 19 q 189 89 259 19 q 119 257 119 159 l 119 1053 q 189 1221 119 1151 q 357 1291 259 1291 q 528 1217 455 1291 q 534 1203 534 1211 q 528 1189 534 1195 q 514 1184 522 1184 q 501 1189 506 1184 q 357 1250 438 1250 q 216 1191 274 1250 q 159 1052 159 1133 l 159 258 q 216 118 159 177 q 357 60 274 60 q 500 121 439 60 z "},"ċ":{"ha":694,"x_min":119,"x_max":534,"o":"m 497 118 q 514 126 506 126 q 528 120 522 126 q 534 106 534 114 q 525 88 534 97 q 357 19 455 19 q 189 89 259 19 q 119 257 119 159 l 119 695 q 189 864 119 794 q 357 934 259 934 q 525 864 455 934 q 534 846 534 855 q 528 832 534 838 q 514 826 522 826 q 497 834 506 826 q 357 893 439 893 q 216 834 274 893 q 159 694 159 776 l 159 258 q 216 118 159 177 q 357 60 274 60 q 497 118 439 60 z "},"Č":{"ha":675,"x_min":119,"x_max":534,"o":"m 500 121 q 514 126 506 126 q 528 120 522 126 q 534 106 534 114 q 528 92 534 98 q 357 19 455 19 q 189 89 259 19 q 119 257 119 159 l 119 1053 q 189 1221 119 1151 q 357 1291 259 1291 q 528 1217 455 1291 q 534 1203 534 1211 q 528 1189 534 1195 q 514 1184 522 1184 q 501 1189 506 1184 q 357 1250 438 1250 q 216 1191 274 1250 q 159 1052 159 1133 l 159 258 q 216 118 159 177 q 357 60 274 60 q 500 121 439 60 z "},"č":{"ha":694,"x_min":119,"x_max":534,"o":"m 497 118 q 514 126 506 126 q 528 120 522 126 q 534 106 534 114 q 525 88 534 97 q 357 19 455 19 q 189 89 259 19 q 119 257 119 159 l 119 695 q 189 864 119 794 q 357 934 259 934 q 525 864 455 934 q 534 846 534 855 q 528 832 534 838 q 514 826 522 826 q 497 834 506 826 q 357 893 439 893 q 216 834 274 893 q 159 694 159 776 l 159 258 q 216 118 159 177 q 357 60 274 60 q 497 118 439 60 z "},"Ď":{"ha":794,"x_min":159,"x_max":635,"o":"m 416 79 q 537 137 486 85 q 595 276 595 193 l 595 1032 q 537 1172 595 1114 q 397 1230 479 1230 l 198 1230 l 198 60 q 192 46 198 52 q 179 40 187 40 q 165 46 171 40 q 159 60 159 52 l 159 1250 q 165 1264 159 1258 q 179 1270 171 1270 l 397 1270 q 565 1200 495 1270 q 635 1032 635 1130 l 635 276 q 565 108 635 178 q 420 40 503 46 q 403 46 409 40 q 397 60 397 52 q 403 73 397 67 q 416 79 409 79 z "},"ď":{"ha":992,"x_min":119,"x_max":824,"o":"m 338 873 q 351 879 345 873 q 357 893 357 885 q 351 907 357 901 q 334 913 345 913 q 188 844 251 907 q 119 676 119 774 l 119 278 q 189 110 119 180 q 357 40 259 40 l 575 40 q 589 46 583 40 q 595 60 595 52 l 595 1250 q 589 1264 595 1258 q 575 1270 583 1270 q 562 1264 567 1270 q 556 1250 556 1258 l 556 79 l 357 79 q 217 137 275 79 q 159 278 159 195 l 159 676 q 217 815 159 758 q 338 873 268 867 z "},"Đ":{"ha":794,"x_min":39,"x_max":633,"o":"m 157 675 l 157 1250 q 163 1264 157 1258 q 177 1270 169 1270 l 395 1270 q 563 1200 493 1270 q 633 1032 633 1130 l 633 276 q 563 108 633 178 q 418 40 501 46 q 401 46 407 40 q 395 60 395 52 q 401 73 395 67 q 414 79 407 79 q 535 137 484 85 q 593 276 593 193 l 593 1032 q 535 1172 593 1114 q 395 1230 477 1230 l 196 1230 l 196 675 l 296 675 q 310 669 304 675 q 315 655 315 663 q 310 641 315 647 q 296 635 304 635 l 196 635 l 196 60 q 190 46 196 52 q 177 40 185 40 q 163 46 169 40 q 157 60 157 52 l 157 635 l 59 635 q 45 641 51 635 q 39 655 39 647 q 45 669 39 663 q 59 675 51 675 l 157 675 z "},"đ":{"ha":833,"x_min":120,"x_max":676,"o":"m 596 1112 l 596 60 q 590 46 596 52 q 576 40 584 40 l 358 40 q 190 110 260 40 q 120 278 120 180 l 120 676 q 189 844 120 774 q 335 913 252 907 q 352 907 346 913 q 358 893 358 901 q 352 878 358 884 q 340 873 348 873 q 218 815 269 867 q 160 676 160 758 l 160 278 q 218 137 160 195 q 358 79 276 79 l 557 79 l 557 1112 l 416 1112 q 402 1118 408 1112 q 396 1132 396 1124 q 402 1146 396 1140 q 416 1152 408 1152 l 557 1152 l 557 1250 q 563 1264 557 1258 q 576 1270 568 1270 q 590 1264 584 1270 q 596 1250 596 1258 l 596 1152 l 656 1152 q 670 1146 664 1152 q 676 1132 676 1140 q 670 1118 676 1124 q 656 1112 664 1112 l 596 1112 z "},"Ē":{"ha":714,"x_min":159,"x_max":576,"o":"m 159 1250 q 165 1264 159 1258 q 179 1270 171 1270 l 557 1270 q 570 1264 564 1270 q 576 1250 576 1258 q 570 1236 576 1242 q 557 1230 564 1230 l 198 1230 l 198 675 l 496 675 q 510 669 504 675 q 516 655 516 663 q 510 641 516 647 q 496 635 504 635 l 198 635 l 198 79 l 557 79 q 570 73 564 79 q 576 60 576 67 q 570 46 576 52 q 557 40 564 40 l 179 40 q 165 46 171 40 q 159 60 159 52 l 159 1250 m 249 1508 q 235 1514 241 1508 q 229 1528 229 1520 q 235 1542 229 1536 q 249 1548 241 1548 l 487 1548 q 501 1542 495 1548 q 507 1528 507 1536 q 501 1514 507 1520 q 487 1508 495 1508 l 249 1508 z "},"ē":{"ha":774,"x_min":119,"x_max":595,"o":"m 377 437 q 363 442 369 437 q 357 456 357 448 q 363 470 357 464 q 377 476 369 476 l 556 476 l 556 694 q 498 835 556 777 q 357 893 439 893 q 217 835 275 893 q 159 694 159 777 l 159 258 q 216 118 159 177 q 357 60 274 60 q 497 118 439 60 q 513 125 505 125 q 527 119 521 125 q 533 105 533 113 q 525 88 533 96 q 357 19 455 19 q 189 89 259 19 q 119 257 119 159 l 119 694 q 189 863 119 793 q 357 933 259 933 q 525 863 455 933 q 595 694 595 793 l 595 456 q 589 443 595 449 q 574 437 583 437 l 377 437 m 238 1151 q 224 1157 230 1151 q 218 1171 218 1163 q 224 1185 218 1179 q 238 1190 230 1190 l 476 1190 q 490 1185 484 1190 q 496 1171 496 1179 q 490 1157 496 1163 q 476 1151 484 1151 l 238 1151 z "},"Ĕ":{"ha":714,"x_min":159,"x_max":576,"o":"m 159 1250 q 165 1264 159 1258 q 179 1270 171 1270 l 557 1270 q 570 1264 564 1270 q 576 1250 576 1258 q 570 1236 576 1242 q 557 1230 564 1230 l 198 1230 l 198 675 l 496 675 q 510 669 504 675 q 516 655 516 663 q 510 641 516 647 q 496 635 504 635 l 198 635 l 198 79 l 557 79 q 570 73 564 79 q 576 60 576 67 q 570 46 576 52 q 557 40 564 40 l 179 40 q 165 46 171 40 q 159 60 159 52 l 159 1250 m 241 1545 q 232 1557 234 1549 q 231 1563 231 1560 q 234 1572 231 1567 q 247 1582 239 1580 q 253 1583 250 1583 q 263 1580 258 1583 q 367 1549 315 1549 q 472 1580 420 1550 q 482 1582 476 1582 q 489 1581 486 1582 q 501 1572 497 1579 q 504 1562 504 1566 q 503 1556 504 1559 q 494 1544 501 1548 q 373 1508 432 1509 l 367 1508 q 241 1545 304 1508 z "},"ĕ":{"ha":774,"x_min":119,"x_max":595,"o":"m 377 437 q 363 442 369 437 q 357 456 357 448 q 363 470 357 464 q 377 476 369 476 l 556 476 l 556 694 q 498 835 556 777 q 357 893 439 893 q 217 835 275 893 q 159 694 159 777 l 159 258 q 216 118 159 177 q 357 60 274 60 q 497 118 439 60 q 513 125 505 125 q 527 119 521 125 q 533 105 533 113 q 525 88 533 96 q 357 19 455 19 q 189 89 259 19 q 119 257 119 159 l 119 694 q 189 863 119 793 q 357 933 259 933 q 525 863 455 933 q 595 694 595 793 l 595 456 q 589 443 595 449 q 574 437 583 437 l 377 437 m 231 1188 q 222 1199 224 1191 q 221 1205 221 1202 q 224 1215 221 1210 q 237 1225 229 1223 q 243 1226 240 1226 q 253 1223 248 1226 q 357 1191 306 1191 q 462 1223 410 1192 q 472 1225 466 1225 q 479 1224 476 1225 q 491 1215 487 1222 q 494 1204 494 1209 q 493 1198 494 1201 q 484 1187 491 1190 q 363 1151 422 1152 l 357 1151 q 231 1188 294 1151 z "},"Ė":{"ha":714,"x_min":159,"x_max":576,"o":"m 159 1250 q 165 1264 159 1258 q 179 1270 171 1270 l 557 1270 q 570 1264 564 1270 q 576 1250 576 1258 q 570 1236 576 1242 q 557 1230 564 1230 l 198 1230 l 198 675 l 496 675 q 510 669 504 675 q 516 655 516 663 q 510 641 516 647 q 496 635 504 635 l 198 635 l 198 79 l 557 79 q 570 73 564 79 q 576 60 576 67 q 570 46 576 52 q 557 40 564 40 l 179 40 q 165 46 171 40 q 159 60 159 52 l 159 1250 z "},"ė":{"ha":774,"x_min":119,"x_max":595,"o":"m 377 437 q 363 442 369 437 q 357 456 357 448 q 363 470 357 464 q 377 476 369 476 l 556 476 l 556 694 q 498 835 556 777 q 357 893 439 893 q 217 835 275 893 q 159 694 159 777 l 159 258 q 216 118 159 177 q 357 60 274 60 q 497 118 439 60 q 513 125 505 125 q 527 119 521 125 q 533 105 533 113 q 525 88 533 96 q 357 19 455 19 q 189 89 259 19 q 119 257 119 159 l 119 694 q 189 863 119 793 q 357 933 259 933 q 525 863 455 933 q 595 694 595 793 l 595 456 q 589 443 595 449 q 574 437 583 437 l 377 437 z "},"Ę":{"ha":714,"x_min":159,"x_max":695,"o":"m 443 40 l 179 40 q 165 46 171 40 q 159 60 159 52 l 159 1250 q 165 1264 159 1258 q 179 1270 171 1270 l 557 1270 q 570 1264 564 1270 q 576 1250 576 1258 q 570 1236 576 1242 q 557 1230 564 1230 l 198 1230 l 198 675 l 496 675 q 510 669 504 675 q 516 655 516 663 q 510 641 516 647 q 496 635 504 635 l 198 635 l 198 79 l 557 79 q 570 73 564 79 q 576 60 576 67 q 570 46 576 52 q 557 40 564 40 q 486 11 515 40 q 457 -60 457 -18 q 486 -130 457 -101 q 557 -159 515 -159 l 676 -159 q 689 -165 684 -159 q 695 -179 695 -171 q 689 -192 695 -187 q 676 -198 684 -198 l 556 -198 q 457 -158 498 -198 q 417 -60 417 -117 q 443 40 417 -35 z "},"ę":{"ha":774,"x_min":119,"x_max":595,"o":"m 335 16 q 188 88 236 42 q 119 257 119 159 l 119 694 q 189 863 119 793 q 357 933 259 933 q 525 863 455 933 q 595 694 595 793 l 595 456 q 589 443 595 449 q 574 437 583 437 l 377 437 q 363 442 369 437 q 357 456 357 448 q 363 470 357 464 q 377 476 369 476 l 556 476 l 556 694 q 498 835 556 777 q 357 893 439 893 q 217 835 275 893 q 159 694 159 777 l 159 258 q 216 118 159 177 q 357 60 274 60 q 497 118 439 60 q 513 125 505 125 q 527 119 521 125 q 533 105 533 113 q 525 88 533 96 q 419 26 479 43 q 387 5 400 18 q 357 -65 357 -24 q 386 -136 357 -107 q 456 -165 415 -165 l 575 -165 q 589 -171 583 -165 q 595 -185 595 -177 q 589 -198 595 -192 q 575 -204 583 -204 l 455 -204 q 357 -164 398 -204 q 316 -65 316 -123 q 335 16 316 -43 z "},"Ě":{"ha":714,"x_min":159,"x_max":576,"o":"m 159 1250 q 165 1264 159 1258 q 179 1270 171 1270 l 557 1270 q 570 1264 564 1270 q 576 1250 576 1258 q 570 1236 576 1242 q 557 1230 564 1230 l 198 1230 l 198 675 l 496 675 q 510 669 504 675 q 516 655 516 663 q 510 641 516 647 q 496 635 504 635 l 198 635 l 198 79 l 557 79 q 570 73 564 79 q 576 60 576 67 q 570 46 576 52 q 557 40 564 40 l 179 40 q 165 46 171 40 q 159 60 159 52 l 159 1250 z "},"ě":{"ha":774,"x_min":119,"x_max":595,"o":"m 377 437 q 363 442 369 437 q 357 456 357 448 q 363 470 357 464 q 377 476 369 476 l 556 476 l 556 694 q 498 835 556 777 q 357 893 439 893 q 217 835 275 893 q 159 694 159 777 l 159 258 q 216 118 159 177 q 357 60 274 60 q 497 118 439 60 q 513 125 505 125 q 527 119 521 125 q 533 105 533 113 q 525 88 533 96 q 357 19 455 19 q 189 89 259 19 q 119 257 119 159 l 119 694 q 189 863 119 793 q 357 933 259 933 q 525 863 455 933 q 595 694 595 793 l 595 456 q 589 443 595 449 q 574 437 583 437 l 377 437 z "},"Ĝ":{"ha":795,"x_min":119,"x_max":595,"o":"m 528 1217 q 534 1203 534 1211 q 528 1189 534 1195 q 514 1184 522 1184 q 501 1189 506 1184 q 357 1250 438 1250 q 216 1191 274 1250 q 159 1052 159 1133 l 159 278 q 216 138 159 196 q 357 79 274 79 l 556 79 l 556 615 l 456 615 q 442 621 448 615 q 437 635 437 627 q 442 649 437 643 q 456 655 448 655 l 576 655 q 590 649 584 655 q 595 635 595 644 l 595 60 q 589 46 595 52 q 575 40 583 40 l 357 40 q 188 109 258 40 q 119 277 119 179 l 119 1053 q 189 1221 119 1151 q 357 1291 259 1291 q 528 1217 455 1291 m 480 1544 q 489 1528 489 1536 q 483 1513 489 1520 q 469 1508 477 1508 q 454 1514 460 1508 l 357 1612 l 259 1513 q 245 1508 253 1508 q 231 1513 237 1508 q 225 1528 225 1520 q 230 1542 225 1536 l 342 1653 q 357 1659 348 1659 q 371 1654 365 1659 l 480 1544 z "},"ĝ":{"ha":833,"x_min":119,"x_max":595,"o":"m 330 80 q 351 73 345 79 q 357 61 357 67 q 351 47 357 53 q 337 41 345 41 l 334 41 q 188 109 251 48 q 119 278 119 180 l 119 675 q 189 843 119 773 q 357 913 259 913 l 575 913 q 589 907 583 913 q 595 893 595 901 l 595 0 l 594 0 l 594 -41 q 524 -209 594 -139 q 356 -279 454 -279 q 188 -209 258 -279 q 181 -192 181 -201 q 187 -179 181 -185 q 200 -173 192 -173 q 216 -180 208 -173 q 356 -238 274 -238 q 497 -180 439 -238 q 555 -79 555 -121 l 556 -79 l 556 873 l 357 873 q 217 815 275 873 q 159 675 159 757 l 159 278 q 217 138 159 195 q 330 80 265 89 m 480 1187 q 489 1171 489 1179 q 483 1156 489 1163 q 469 1151 477 1151 q 454 1157 460 1151 l 357 1255 l 259 1156 q 245 1151 253 1151 q 231 1156 237 1151 q 225 1171 225 1163 q 230 1185 225 1179 l 342 1296 q 357 1302 348 1302 q 371 1297 365 1302 l 480 1187 z "},"Ğ":{"ha":795,"x_min":119,"x_max":595,"o":"m 528 1217 q 534 1203 534 1211 q 528 1189 534 1195 q 514 1184 522 1184 q 501 1189 506 1184 q 357 1250 438 1250 q 216 1191 274 1250 q 159 1052 159 1133 l 159 278 q 216 138 159 196 q 357 79 274 79 l 556 79 l 556 615 l 456 615 q 442 621 448 615 q 437 635 437 627 q 442 649 437 643 q 456 655 448 655 l 576 655 q 590 649 584 655 q 595 635 595 644 l 595 60 q 589 46 595 52 q 575 40 583 40 l 357 40 q 188 109 258 40 q 119 277 119 179 l 119 1053 q 189 1221 119 1151 q 357 1291 259 1291 q 528 1217 455 1291 m 231 1545 q 222 1557 224 1549 q 221 1563 221 1560 q 224 1572 221 1567 q 237 1582 229 1580 q 243 1583 240 1583 q 253 1580 248 1583 q 357 1549 306 1549 q 462 1580 410 1550 q 472 1582 466 1582 q 479 1581 476 1582 q 491 1572 487 1579 q 494 1562 494 1566 q 493 1556 494 1559 q 484 1544 491 1548 q 363 1508 422 1509 l 357 1508 q 231 1545 294 1508 z "},"ğ":{"ha":833,"x_min":119,"x_max":595,"o":"m 330 80 q 351 73 345 79 q 357 61 357 67 q 351 47 357 53 q 337 41 345 41 l 334 41 q 188 109 251 48 q 119 278 119 180 l 119 675 q 189 843 119 773 q 357 913 259 913 l 575 913 q 589 907 583 913 q 595 893 595 901 l 595 0 l 594 0 l 594 -41 q 524 -209 594 -139 q 356 -279 454 -279 q 188 -209 258 -279 q 181 -192 181 -201 q 187 -179 181 -185 q 200 -173 192 -173 q 216 -180 208 -173 q 356 -238 274 -238 q 497 -180 439 -238 q 555 -79 555 -121 l 556 -79 l 556 873 l 357 873 q 217 815 275 873 q 159 675 159 757 l 159 278 q 217 138 159 195 q 330 80 265 89 m 231 1188 q 222 1199 224 1191 q 221 1205 221 1202 q 224 1215 221 1210 q 237 1225 229 1223 q 243 1226 240 1226 q 253 1223 248 1226 q 357 1191 306 1191 q 462 1223 410 1192 q 472 1225 466 1225 q 479 1224 476 1225 q 491 1215 487 1222 q 494 1204 494 1209 q 493 1198 494 1201 q 484 1187 491 1190 q 363 1151 422 1152 l 357 1151 q 231 1188 294 1151 z "},"Ġ":{"ha":795,"x_min":119,"x_max":595,"o":"m 528 1217 q 534 1203 534 1211 q 528 1189 534 1195 q 514 1184 522 1184 q 501 1189 506 1184 q 357 1250 438 1250 q 216 1191 274 1250 q 159 1052 159 1133 l 159 278 q 216 138 159 196 q 357 79 274 79 l 556 79 l 556 615 l 456 615 q 442 621 448 615 q 437 635 437 627 q 442 649 437 643 q 456 655 448 655 l 576 655 q 590 649 584 655 q 595 635 595 644 l 595 60 q 589 46 595 52 q 575 40 583 40 l 357 40 q 188 109 258 40 q 119 277 119 179 l 119 1053 q 189 1221 119 1151 q 357 1291 259 1291 q 528 1217 455 1291 z "},"ġ":{"ha":833,"x_min":119,"x_max":595,"o":"m 330 80 q 351 73 345 79 q 357 61 357 67 q 351 47 357 53 q 337 41 345 41 l 334 41 q 188 109 251 48 q 119 278 119 180 l 119 675 q 189 843 119 773 q 357 913 259 913 l 575 913 q 589 907 583 913 q 595 893 595 901 l 595 0 l 594 0 l 594 -41 q 524 -209 594 -139 q 356 -279 454 -279 q 188 -209 258 -279 q 181 -192 181 -201 q 187 -179 181 -185 q 200 -173 192 -173 q 216 -180 208 -173 q 356 -238 274 -238 q 497 -180 439 -238 q 555 -79 555 -121 l 556 -79 l 556 873 l 357 873 q 217 815 275 873 q 159 675 159 757 l 159 278 q 217 138 159 195 q 330 80 265 89 z "},"Ģ":{"ha":795,"x_min":119,"x_max":595,"o":"m 528 1217 q 534 1203 534 1211 q 528 1189 534 1195 q 514 1184 522 1184 q 501 1189 506 1184 q 357 1250 438 1250 q 216 1191 274 1250 q 159 1052 159 1133 l 159 278 q 216 138 159 196 q 357 79 274 79 l 556 79 l 556 615 l 456 615 q 442 621 448 615 q 437 635 437 627 q 442 649 437 643 q 456 655 448 655 l 576 655 q 590 649 584 655 q 595 635 595 644 l 595 60 q 589 46 595 52 q 575 40 583 40 l 357 40 q 188 109 258 40 q 119 277 119 179 l 119 1053 q 189 1221 119 1151 q 357 1291 259 1291 q 528 1217 455 1291 z "},"ģ":{"ha":833,"x_min":119,"x_max":595,"o":"m 330 80 q 351 73 345 79 q 357 61 357 67 q 351 47 357 53 q 337 41 345 41 l 334 41 q 188 109 251 48 q 119 278 119 180 l 119 675 q 189 843 119 773 q 357 913 259 913 l 575 913 q 589 907 583 913 q 595 893 595 901 l 595 0 l 594 0 l 594 -41 q 524 -209 594 -139 q 356 -279 454 -279 q 188 -209 258 -279 q 181 -192 181 -201 q 187 -179 181 -185 q 200 -173 192 -173 q 216 -180 208 -173 q 356 -238 274 -238 q 497 -180 439 -238 q 555 -79 555 -121 l 556 -79 l 556 873 l 357 873 q 217 815 275 873 q 159 675 159 757 l 159 278 q 217 138 159 195 q 330 80 265 89 m 429 1290 q 438 1302 431 1298 q 447 1305 442 1305 q 452 1304 449 1305 q 464 1295 460 1302 q 467 1284 467 1290 q 466 1279 467 1282 l 436 1164 q 428 1154 435 1157 q 417 1150 422 1150 q 412 1151 415 1150 q 400 1161 405 1153 q 397 1170 397 1166 q 398 1176 397 1173 l 429 1290 z "},"Ĥ":{"ha":913,"x_min":159,"x_max":674,"o":"m 159 1250 q 165 1264 159 1258 q 179 1270 171 1270 q 192 1264 187 1270 q 198 1250 198 1258 l 198 675 l 634 675 l 634 1250 q 640 1264 634 1258 q 654 1270 646 1270 q 668 1264 662 1270 q 674 1250 674 1258 l 674 60 q 668 46 674 52 q 654 40 662 40 q 640 46 646 40 q 634 60 634 52 l 634 635 l 198 635 l 198 60 q 192 46 198 52 q 179 40 187 40 q 165 46 171 40 q 159 60 159 52 l 159 1250 m 540 1544 q 549 1528 549 1536 q 543 1513 549 1520 q 529 1508 537 1508 q 514 1514 520 1508 l 417 1612 l 318 1513 q 305 1508 313 1508 q 291 1513 297 1508 q 285 1528 285 1520 q 290 1542 285 1536 l 402 1653 q 417 1659 408 1659 q 431 1654 425 1659 l 540 1544 z "},"ĥ":{"ha":853,"x_min":159,"x_max":635,"o":"m 198 872 l 198 60 q 192 46 198 52 q 179 40 187 40 q 165 46 171 40 q 159 60 159 52 l 159 1250 q 165 1264 159 1258 q 179 1270 171 1270 q 192 1264 187 1270 q 198 1250 198 1258 l 198 912 l 397 912 q 565 842 495 912 q 635 674 635 772 l 635 60 q 629 46 635 52 q 615 40 623 40 q 601 46 607 40 q 595 60 595 52 l 595 674 q 537 814 595 756 q 397 872 479 872 l 198 872 m 520 1544 q 529 1528 529 1536 q 523 1513 529 1520 q 509 1508 517 1508 q 494 1514 500 1508 l 397 1612 l 299 1513 q 285 1508 293 1508 q 271 1513 277 1508 q 265 1528 265 1520 q 270 1542 265 1536 l 382 1653 q 397 1659 388 1659 q 411 1654 405 1659 l 520 1544 z "},"Ħ":{"ha":913,"x_min":40,"x_max":674,"o":"m 159 1151 l 159 1250 q 165 1264 159 1258 q 179 1270 171 1270 q 192 1264 187 1270 q 198 1250 198 1258 l 198 1151 l 396 1151 q 410 1145 404 1151 q 416 1131 416 1139 q 410 1117 416 1123 q 396 1111 404 1111 l 198 1111 l 198 675 l 634 675 l 634 1250 q 640 1264 634 1258 q 654 1270 646 1270 q 668 1264 662 1270 q 674 1250 674 1258 l 674 60 q 668 46 674 52 q 654 40 662 40 q 640 46 646 40 q 634 60 634 52 l 634 635 l 198 635 l 198 60 q 192 46 198 52 q 179 40 187 40 q 165 46 171 40 q 159 60 159 52 l 159 1111 l 60 1111 q 46 1117 52 1111 q 40 1131 40 1123 q 46 1145 40 1139 q 60 1151 52 1151 l 159 1151 z "},"ħ":{"ha":853,"x_min":159,"x_max":635,"o":"m 198 1231 l 198 912 l 397 912 q 565 842 495 912 q 635 674 635 772 l 635 60 q 629 46 635 52 q 615 40 623 40 q 601 46 607 40 q 595 60 595 52 l 595 674 q 537 814 595 756 q 397 872 479 872 l 198 872 l 198 60 q 192 46 198 52 q 179 40 187 40 q 165 46 171 40 q 159 60 159 52 l 159 1251 q 165 1265 159 1259 q 179 1271 171 1271 l 614 1271 q 628 1265 622 1271 q 634 1251 634 1259 q 628 1237 634 1243 q 614 1231 622 1231 l 198 1231 z "},"Ĩ":{"ha":437,"x_min":-15,"x_max":373,"o":"m 160 1250 q 166 1264 160 1258 q 180 1270 172 1270 q 193 1264 188 1270 q 199 1250 199 1258 l 199 60 q 193 46 199 52 q 180 40 188 40 q 166 46 172 40 q 160 60 160 52 l 160 1250 m 15 1545 q 7 1543 11 1543 q 1 1545 5 1543 q -12 1555 -9 1548 q -15 1564 -15 1560 q -13 1570 -15 1565 q -3 1582 -11 1579 q 75 1599 30 1599 q 183 1583 122 1599 q 277 1569 238 1569 q 340 1582 315 1569 q 351 1585 345 1585 q 359 1584 356 1585 q 370 1574 366 1582 q 373 1564 373 1568 q 372 1560 373 1563 q 362 1547 369 1551 q 277 1528 328 1528 q 172 1544 230 1528 q 75 1558 114 1558 q 15 1545 39 1558 z "},"ĩ":{"ha":437,"x_min":-15,"x_max":373,"o":"m 199 60 q 193 46 199 52 q 180 40 188 40 q 166 46 172 40 q 160 60 160 52 l 160 893 q 166 907 160 901 q 180 913 172 913 q 193 907 188 913 q 199 893 199 901 l 199 60 m 15 1188 q 7 1186 11 1186 q 1 1188 5 1186 q -12 1197 -9 1190 q -15 1207 -15 1202 q -13 1213 -15 1208 q -3 1225 -11 1222 q 75 1242 30 1242 q 183 1226 122 1242 q 277 1212 238 1212 q 340 1225 315 1212 q 351 1228 345 1228 q 359 1227 356 1228 q 370 1217 366 1225 q 373 1207 373 1211 q 372 1202 373 1205 q 362 1189 369 1193 q 277 1171 328 1171 q 172 1187 230 1171 q 75 1200 114 1200 q 15 1188 39 1200 z "},"Ī":{"ha":437,"x_min":40,"x_max":317,"o":"m 159 1250 q 165 1264 159 1258 q 179 1270 171 1270 q 192 1264 187 1270 q 198 1250 198 1258 l 198 60 q 192 46 198 52 q 179 40 187 40 q 165 46 171 40 q 159 60 159 52 l 159 1250 m 60 1508 q 46 1514 52 1508 q 40 1528 40 1520 q 46 1542 40 1536 q 60 1548 52 1548 l 298 1548 q 312 1542 306 1548 q 317 1528 317 1536 q 312 1514 317 1520 q 298 1508 306 1508 l 60 1508 z "},"ī":{"ha":437,"x_min":40,"x_max":317,"o":"m 198 60 q 192 46 198 52 q 179 40 187 40 q 165 46 171 40 q 159 60 159 52 l 159 893 q 165 907 159 901 q 179 913 171 913 q 192 907 187 913 q 198 893 198 901 l 198 60 m 60 1151 q 46 1157 52 1151 q 40 1171 40 1163 q 46 1185 40 1179 q 60 1190 52 1190 l 298 1190 q 312 1185 306 1190 q 317 1171 317 1179 q 312 1157 317 1163 q 298 1151 306 1151 l 60 1151 z "},"Ĭ":{"ha":437,"x_min":43,"x_max":315,"o":"m 160 1250 q 166 1264 160 1258 q 180 1270 172 1270 q 193 1264 188 1270 q 199 1250 199 1258 l 199 60 q 193 46 199 52 q 180 40 188 40 q 166 46 172 40 q 160 60 160 52 l 160 1250 m 53 1545 q 44 1557 46 1549 q 43 1563 43 1560 q 46 1572 43 1567 q 59 1582 51 1580 q 64 1583 62 1583 q 74 1580 69 1583 q 179 1549 127 1549 q 284 1580 231 1550 q 294 1582 288 1582 q 301 1581 298 1582 q 313 1572 309 1579 q 315 1562 315 1566 q 314 1556 315 1559 q 306 1544 313 1548 q 185 1508 243 1509 l 179 1508 q 53 1545 115 1508 z "},"ĭ":{"ha":437,"x_min":43,"x_max":315,"o":"m 199 60 q 193 46 199 52 q 180 40 188 40 q 166 46 172 40 q 160 60 160 52 l 160 893 q 166 907 160 901 q 180 913 172 913 q 193 907 188 913 q 199 893 199 901 l 199 60 m 53 1188 q 44 1199 46 1191 q 43 1205 43 1202 q 46 1215 43 1210 q 59 1225 51 1223 q 64 1226 62 1226 q 74 1223 69 1226 q 179 1191 127 1191 q 284 1223 231 1192 q 294 1225 288 1225 q 301 1224 298 1225 q 313 1215 309 1222 q 315 1204 315 1209 q 314 1198 315 1201 q 306 1187 313 1190 q 185 1151 243 1152 l 179 1151 q 53 1188 115 1151 z "},"Į":{"ha":437,"x_min":39,"x_max":317,"o":"m 159 81 l 159 1250 q 165 1264 159 1258 q 179 1270 171 1270 q 192 1264 187 1270 q 198 1250 198 1258 l 198 60 q 192 46 198 52 q 179 40 187 40 q 108 11 137 40 q 79 -60 79 -18 q 108 -130 79 -101 q 179 -159 137 -159 l 298 -159 q 312 -165 306 -159 q 317 -179 317 -171 q 312 -192 317 -187 q 298 -198 306 -198 l 178 -198 q 79 -158 120 -198 q 39 -60 39 -117 q 79 40 39 -2 q 159 81 103 63 z "},"į":{"ha":437,"x_min":39,"x_max":317,"o":"m 213 1218 q 219 1212 213 1218 q 225 1190 225 1206 q 213 1163 225 1175 q 186 1151 201 1151 q 158 1163 170 1151 q 146 1190 146 1175 q 158 1218 146 1206 q 186 1230 170 1230 q 213 1218 201 1230 m 159 81 l 159 893 q 165 907 159 901 q 179 913 171 913 q 192 907 187 913 q 198 893 198 901 l 198 60 q 192 46 198 52 q 179 40 187 40 q 108 11 137 40 q 79 -60 79 -18 q 108 -130 79 -101 q 179 -159 137 -159 l 298 -159 q 312 -165 306 -159 q 317 -179 317 -171 q 312 -192 317 -187 q 298 -198 306 -198 l 178 -198 q 79 -158 120 -198 q 39 -60 39 -117 q 79 40 39 -2 q 159 81 103 63 z "},"İ":{"ha":437,"x_min":139,"x_max":218,"o":"m 159 1250 q 165 1264 159 1258 q 179 1270 171 1270 q 192 1264 187 1270 q 198 1250 198 1258 l 198 60 q 192 46 198 52 q 179 40 187 40 q 165 46 171 40 q 159 60 159 52 l 159 1250 z "},"ı":{"ha":437,"x_min":159,"x_max":198,"o":"m 198 60 q 192 46 198 52 q 179 40 187 40 q 165 46 171 40 q 159 60 159 52 l 159 893 q 165 907 159 901 q 179 913 171 913 q 192 907 187 913 q 198 893 198 901 l 198 60 z "},"Ĳ":{"ha":933,"x_min":159,"x_max":713,"o":"m 159 1250 q 165 1264 159 1258 q 179 1270 171 1270 q 192 1264 187 1270 q 198 1250 198 1258 l 198 60 q 192 46 198 52 q 179 40 187 40 q 165 46 171 40 q 159 60 159 52 l 159 1250 m 555 1230 q 541 1236 547 1230 q 535 1250 535 1242 q 541 1264 535 1258 q 555 1270 547 1270 l 693 1270 q 707 1264 701 1270 q 713 1250 713 1258 l 713 237 q 656 97 713 155 q 516 40 598 40 q 501 46 507 40 q 495 60 495 52 q 501 73 495 67 q 516 79 507 79 q 627 125 584 82 q 674 237 674 171 l 674 1230 l 555 1230 z "},"ĳ":{"ha":873,"x_min":136,"x_max":660,"o":"m 195 60 q 189 46 195 52 q 176 40 184 40 q 162 46 168 40 q 156 60 156 52 l 156 893 q 162 907 156 901 q 176 913 168 913 q 189 907 184 913 q 195 893 195 901 l 195 60 m 176 1230 q 203 1218 191 1230 q 215 1190 215 1206 q 203 1163 215 1175 q 176 1151 191 1151 q 148 1163 160 1151 q 136 1190 136 1175 q 148 1218 136 1206 q 176 1230 160 1230 m 594 0 l 594 893 q 600 907 594 901 q 614 913 606 913 q 628 907 622 913 q 634 893 634 901 l 634 0 q 575 -140 634 -81 q 436 -198 517 -198 q 422 -192 428 -198 q 416 -179 416 -187 q 422 -165 416 -171 q 436 -159 428 -159 q 548 -113 502 -159 q 594 0 594 -66 m 620 1230 q 648 1218 636 1230 q 660 1190 660 1206 q 648 1163 660 1175 q 620 1151 636 1151 q 592 1163 604 1151 q 580 1190 580 1175 q 592 1218 580 1206 q 620 1230 604 1230 z "},"Ĵ":{"ha":496,"x_min":59,"x_max":339,"o":"m 118 1230 q 104 1236 110 1230 q 98 1250 98 1242 q 104 1264 98 1258 q 118 1270 110 1270 l 257 1270 q 271 1264 265 1270 q 277 1250 277 1258 l 277 237 q 219 97 277 155 q 79 40 162 40 q 64 46 70 40 q 59 60 59 52 q 64 73 59 67 q 79 79 70 79 q 190 125 148 82 q 237 237 237 171 l 237 1230 l 118 1230 m 330 1544 q 339 1528 339 1536 q 333 1513 339 1520 q 319 1508 327 1508 q 305 1514 311 1508 l 207 1612 l 109 1513 q 95 1508 103 1508 q 81 1513 87 1508 q 75 1528 75 1520 q 80 1542 75 1536 l 192 1653 q 207 1659 198 1659 q 221 1654 215 1659 l 330 1544 z "},"ĵ":{"ha":437,"x_min":-21,"x_max":312,"o":"m 158 0 l 158 893 q 164 907 158 901 q 178 913 170 913 q 191 907 186 913 q 197 893 197 901 l 197 0 q 139 -140 197 -81 q -1 -198 80 -198 q -15 -192 -9 -198 q -21 -179 -21 -187 q -15 -165 -21 -171 q -1 -159 -9 -159 q 112 -113 65 -159 q 158 0 158 -66 m 303 1187 q 312 1171 312 1179 q 306 1156 312 1163 q 292 1151 300 1151 q 277 1157 283 1151 l 180 1255 l 81 1156 q 67 1151 75 1151 q 54 1156 60 1151 q 48 1171 48 1163 q 53 1185 48 1179 l 165 1296 q 180 1302 171 1302 q 193 1297 188 1302 l 303 1187 z "},"Ķ":{"ha":833,"x_min":159,"x_max":666,"o":"m 159 1250 q 165 1264 159 1258 q 179 1270 171 1270 q 192 1264 187 1270 q 198 1250 198 1258 l 198 60 q 192 46 198 52 q 179 40 187 40 q 165 46 171 40 q 159 60 159 52 l 159 1250 m 630 1260 q 634 1265 631 1261 q 648 1270 640 1270 q 661 1265 656 1270 q 666 1251 666 1260 q 662 1235 666 1242 l 399 645 l 662 76 q 666 59 666 68 q 661 45 666 50 q 648 40 656 40 q 634 45 640 40 q 630 50 631 49 l 361 632 q 357 645 357 639 q 361 658 357 651 l 630 1260 z "},"ķ":{"ha":774,"x_min":159,"x_max":606,"o":"m 601 72 q 606 60 606 63 q 605 55 606 57 q 595 43 602 46 q 586 40 590 40 q 581 41 583 40 q 567 52 572 44 l 349 446 q 341 474 341 461 q 351 505 341 489 l 569 902 q 573 908 570 905 q 587 913 579 913 q 601 907 595 913 q 606 893 606 902 q 602 879 606 885 l 412 535 q 396 474 396 505 q 411 417 396 446 l 601 72 m 159 1250 q 165 1264 159 1258 q 179 1270 171 1270 q 192 1264 187 1270 q 198 1250 198 1258 l 198 60 q 192 46 198 52 q 179 40 187 40 q 165 46 171 40 q 159 60 159 52 l 159 1250 z "},"ĸ":{"ha":794,"x_min":159,"x_max":648,"o":"m 159 893 q 165 907 159 901 q 179 913 171 913 q 192 907 187 913 q 198 893 198 901 l 198 60 q 192 46 198 52 q 179 40 187 40 q 165 46 171 40 q 159 60 159 52 l 159 893 m 361 467 q 358 473 360 470 q 358 476 358 473 q 360 483 358 480 l 610 902 q 614 908 611 905 q 628 913 620 913 q 642 907 636 913 q 648 895 648 901 q 642 878 647 886 l 401 475 l 642 73 q 644 69 643 71 q 647 60 647 63 q 646 55 647 57 q 636 43 643 46 q 627 40 631 40 q 622 41 624 40 q 608 53 613 44 l 361 467 z "},"Ĺ":{"ha":635,"x_min":159,"x_max":536,"o":"m 159 1250 q 165 1264 159 1258 q 179 1270 171 1270 q 192 1264 187 1270 q 198 1250 198 1258 l 198 79 l 516 79 q 530 73 524 79 q 536 60 536 67 q 530 46 536 52 q 516 40 524 40 l 179 40 q 165 46 171 40 q 159 60 159 52 l 159 1250 m 369 1647 q 378 1659 371 1655 q 388 1662 383 1662 q 393 1661 390 1662 q 405 1652 401 1659 q 408 1641 408 1647 q 407 1636 408 1639 l 376 1521 q 368 1511 375 1514 q 357 1507 362 1507 q 352 1508 355 1507 q 340 1518 345 1510 q 337 1527 337 1523 q 338 1533 337 1530 l 369 1647 z "},"ĺ":{"ha":437,"x_min":159,"x_max":229,"o":"m 159 1250 q 165 1264 159 1258 q 179 1270 171 1270 q 192 1264 187 1270 q 198 1250 198 1258 l 198 60 q 192 46 198 52 q 179 40 187 40 q 165 46 171 40 q 159 60 159 52 l 159 1250 m 190 1647 q 199 1659 192 1655 q 209 1662 204 1662 q 214 1661 211 1662 q 226 1652 222 1659 q 229 1641 229 1647 q 228 1636 229 1639 l 197 1521 q 189 1511 196 1514 q 179 1507 184 1507 q 174 1508 177 1507 q 162 1518 167 1510 q 159 1527 159 1523 q 160 1533 159 1530 l 190 1647 z "},"Ļ":{"ha":635,"x_min":159,"x_max":536,"o":"m 159 1250 q 165 1264 159 1258 q 179 1270 171 1270 q 192 1264 187 1270 q 198 1250 198 1258 l 198 79 l 516 79 q 530 73 524 79 q 536 60 536 67 q 530 46 536 52 q 516 40 524 40 l 179 40 q 165 46 171 40 q 159 60 159 52 l 159 1250 z "},"ļ":{"ha":437,"x_min":129,"x_max":199,"o":"m 159 1250 q 165 1264 159 1258 q 179 1270 171 1270 q 192 1264 187 1270 q 198 1250 198 1258 l 198 60 q 192 46 198 52 q 179 40 187 40 q 165 46 171 40 q 159 60 159 52 l 159 1250 z "},"Ľ":{"ha":635,"x_min":159,"x_max":547,"o":"m 159 1250 q 165 1264 159 1258 q 179 1270 171 1270 q 192 1264 187 1270 q 198 1250 198 1258 l 198 79 l 516 79 q 530 73 524 79 q 536 60 536 67 q 530 46 536 52 q 516 40 524 40 l 179 40 q 165 46 171 40 q 159 60 159 52 l 159 1250 z "},"ľ":{"ha":675,"x_min":159,"x_max":547,"o":"m 159 1250 q 165 1264 159 1258 q 179 1270 171 1270 q 192 1264 187 1270 q 198 1250 198 1258 l 198 60 q 192 46 198 52 q 179 40 187 40 q 165 46 171 40 q 159 60 159 52 l 159 1250 z "},"Ŀ":{"ha":635,"x_min":159,"x_max":536,"o":"m 159 1250 q 165 1264 159 1258 q 179 1270 171 1270 q 192 1264 187 1270 q 198 1250 198 1258 l 198 79 l 516 79 q 530 73 524 79 q 536 60 536 67 q 530 46 536 52 q 516 40 524 40 l 179 40 q 165 46 171 40 q 159 60 159 52 l 159 1250 m 475 704 q 503 692 491 704 q 515 665 515 681 q 503 637 515 649 q 475 625 491 625 q 447 637 459 625 q 436 665 436 649 q 447 692 436 681 q 475 704 459 704 z "},"ŀ":{"ha":595,"x_min":159,"x_max":515,"o":"m 159 1250 q 165 1264 159 1258 q 179 1270 171 1270 q 192 1264 187 1270 q 198 1250 198 1258 l 198 60 q 192 46 198 52 q 179 40 187 40 q 165 46 171 40 q 159 60 159 52 l 159 1250 m 475 704 q 503 692 491 704 q 515 665 515 681 q 503 637 515 649 q 475 625 491 625 q 447 637 459 625 q 436 665 436 649 q 447 692 436 681 q 475 704 459 704 z "},"Ł":{"ha":635,"x_min":28,"x_max":537,"o":"m 160 683 l 160 1250 q 166 1264 160 1258 q 180 1270 172 1270 q 193 1264 188 1270 q 199 1250 199 1258 l 199 723 l 341 865 q 356 871 347 871 q 370 865 364 871 q 376 852 376 859 q 370 837 376 844 l 199 666 l 199 79 l 517 79 q 531 73 525 79 q 537 60 537 67 q 531 46 537 52 q 517 40 525 40 l 180 40 q 166 46 172 40 q 160 60 160 52 l 160 627 l 63 530 q 48 524 57 524 q 34 529 40 524 q 28 544 28 536 q 34 557 28 552 l 160 683 z "},"ł":{"ha":437,"x_min":0,"x_max":348,"o":"m 160 710 l 160 1250 q 166 1264 160 1258 q 180 1270 172 1270 q 193 1264 188 1270 q 199 1250 199 1258 l 199 751 l 313 865 q 328 871 319 871 q 342 865 336 871 q 348 852 348 859 q 342 837 348 844 l 199 695 l 199 60 q 193 46 199 52 q 180 40 188 40 q 166 46 172 40 q 160 60 160 52 l 160 655 l 35 530 q 20 524 29 524 q 6 529 12 524 q 0 544 0 536 q 6 557 0 552 l 160 710 z "},"Ń":{"ha":992,"x_min":159,"x_max":754,"o":"m 198 60 q 192 46 198 52 q 179 40 187 40 q 165 46 171 40 q 159 60 159 52 l 159 1251 q 165 1265 159 1259 q 179 1271 171 1271 q 192 1266 188 1271 q 195 1262 194 1264 l 714 147 l 714 1251 q 720 1265 714 1259 q 734 1271 726 1271 q 748 1265 742 1271 q 754 1251 754 1259 l 754 59 q 749 46 754 52 q 734 40 742 40 q 721 46 726 40 q 713 57 716 50 l 198 1170 l 198 60 m 464 1647 q 473 1659 466 1655 q 483 1662 478 1662 q 488 1661 485 1662 q 500 1652 496 1659 q 503 1641 503 1647 q 502 1636 503 1639 l 471 1521 q 463 1511 470 1514 q 452 1507 457 1507 q 447 1508 450 1507 q 436 1518 440 1510 q 433 1527 433 1523 q 434 1533 433 1530 l 464 1647 z "},"ń":{"ha":853,"x_min":159,"x_max":635,"o":"m 198 60 q 192 46 198 52 q 179 40 187 40 q 165 46 171 40 q 159 60 159 52 l 159 893 q 165 907 159 901 q 179 913 171 913 l 397 913 q 565 843 495 913 q 635 675 635 773 l 635 60 q 629 46 635 52 q 615 40 623 40 q 601 46 607 40 q 595 60 595 52 l 595 675 q 537 815 595 757 q 397 873 479 873 l 198 873 l 198 60 m 405 1290 q 414 1302 407 1298 q 424 1305 419 1305 q 429 1304 426 1305 q 440 1295 437 1302 q 443 1284 443 1290 q 442 1279 443 1282 l 412 1164 q 404 1154 411 1157 q 393 1150 398 1150 q 388 1151 391 1150 q 376 1161 381 1153 q 373 1170 373 1166 q 374 1176 373 1173 l 405 1290 z "},"Ņ":{"ha":992,"x_min":159,"x_max":754,"o":"m 198 60 q 192 46 198 52 q 179 40 187 40 q 165 46 171 40 q 159 60 159 52 l 159 1251 q 165 1265 159 1259 q 179 1271 171 1271 q 192 1266 188 1271 q 195 1262 194 1264 l 714 147 l 714 1251 q 720 1265 714 1259 q 734 1271 726 1271 q 748 1265 742 1271 q 754 1251 754 1259 l 754 59 q 749 46 754 52 q 734 40 742 40 q 721 46 726 40 q 713 57 716 50 l 198 1170 l 198 60 z "},"ņ":{"ha":853,"x_min":159,"x_max":635,"o":"m 198 60 q 192 46 198 52 q 179 40 187 40 q 165 46 171 40 q 159 60 159 52 l 159 893 q 165 907 159 901 q 179 913 171 913 l 397 913 q 565 843 495 913 q 635 675 635 773 l 635 60 q 629 46 635 52 q 615 40 623 40 q 601 46 607 40 q 595 60 595 52 l 595 675 q 537 815 595 757 q 397 873 479 873 l 198 873 l 198 60 z "},"Ň":{"ha":992,"x_min":159,"x_max":754,"o":"m 198 60 q 192 46 198 52 q 179 40 187 40 q 165 46 171 40 q 159 60 159 52 l 159 1251 q 165 1265 159 1259 q 179 1271 171 1271 q 192 1266 188 1271 q 195 1262 194 1264 l 714 147 l 714 1251 q 720 1265 714 1259 q 734 1271 726 1271 q 748 1265 742 1271 q 754 1251 754 1259 l 754 59 q 749 46 754 52 q 734 40 742 40 q 721 46 726 40 q 713 57 716 50 l 198 1170 l 198 60 z "},"ň":{"ha":853,"x_min":159,"x_max":635,"o":"m 198 60 q 192 46 198 52 q 179 40 187 40 q 165 46 171 40 q 159 60 159 52 l 159 893 q 165 907 159 901 q 179 913 171 913 l 397 913 q 565 843 495 913 q 635 675 635 773 l 635 60 q 629 46 635 52 q 615 40 623 40 q 601 46 607 40 q 595 60 595 52 l 595 675 q 537 815 595 757 q 397 873 479 873 l 198 873 l 198 60 z "},"ŉ":{"ha":853,"x_min":39,"x_max":634,"o":"m 70 1290 q 79 1302 72 1298 q 89 1305 84 1305 q 94 1304 91 1305 q 106 1295 102 1302 q 109 1284 109 1290 q 108 1279 109 1282 l 77 1164 q 69 1154 76 1157 q 59 1150 63 1150 q 54 1151 57 1150 q 42 1161 47 1153 q 39 1170 39 1166 q 40 1176 39 1173 l 70 1290 m 197 60 q 191 46 197 52 q 178 40 186 40 q 164 46 170 40 q 158 60 158 52 l 158 893 q 164 907 158 901 q 178 913 170 913 l 396 913 q 564 843 494 913 q 634 675 634 773 l 634 60 q 628 46 634 52 q 614 40 622 40 q 600 46 606 40 q 594 60 594 52 l 594 675 q 536 815 594 757 q 396 873 478 873 l 197 873 l 197 60 z "},"Ŋ":{"ha":992,"x_min":159,"x_max":754,"o":"m 714 55 l 198 1170 l 198 60 q 192 46 198 52 q 179 40 187 40 q 165 46 171 40 q 159 60 159 52 l 159 1251 q 165 1265 159 1259 q 179 1271 171 1271 q 192 1266 188 1271 q 195 1262 194 1264 l 714 147 l 714 1251 q 720 1265 714 1259 q 734 1271 726 1271 q 748 1265 742 1271 q 754 1251 754 1259 l 754 -40 q 695 -180 754 -121 q 556 -238 637 -238 q 541 -232 547 -238 q 535 -218 535 -226 q 541 -204 535 -210 q 556 -198 547 -198 q 668 -152 622 -198 q 714 -40 714 -106 l 714 55 z "},"ŋ":{"ha":853,"x_min":159,"x_max":635,"o":"m 595 675 q 537 815 595 757 q 397 873 479 873 l 198 873 l 198 60 q 192 46 198 52 q 179 40 187 40 q 165 46 171 40 q 159 60 159 52 l 159 893 q 165 907 159 901 q 179 913 171 913 l 397 913 q 565 843 495 913 q 635 675 635 773 l 635 -40 q 576 -180 635 -121 q 437 -238 518 -238 q 422 -232 428 -238 q 416 -218 416 -226 q 422 -204 416 -210 q 437 -198 428 -198 q 549 -152 503 -198 q 595 -40 595 -106 l 595 675 z "},"Ō":{"ha":794,"x_min":119,"x_max":595,"o":"m 471 1229 q 463 1235 465 1232 q 456 1249 456 1241 q 462 1263 456 1257 q 476 1269 468 1269 q 489 1265 484 1269 q 526 1235 508 1252 q 595 1066 595 1165 l 595 242 q 526 73 595 144 q 486 41 507 55 q 476 39 482 39 q 462 45 468 39 q 456 59 456 51 q 462 73 456 66 q 465 75 464 75 q 497 102 481 86 q 556 242 556 160 l 556 1066 q 497 1206 556 1149 q 471 1229 487 1217 m 226 1266 q 238 1270 231 1270 q 252 1264 246 1270 q 258 1250 258 1258 q 253 1236 258 1242 q 248 1232 249 1233 q 217 1206 232 1221 q 159 1066 159 1149 l 159 242 q 217 102 159 160 q 250 75 232 87 q 252 74 251 74 q 258 60 258 67 q 252 46 258 52 q 238 40 246 40 q 226 43 231 40 q 188 73 206 56 q 119 242 119 144 l 119 1066 q 188 1235 119 1165 q 226 1266 207 1253 m 238 1508 q 224 1514 230 1508 q 218 1528 218 1520 q 224 1542 218 1536 q 238 1548 230 1548 l 476 1548 q 490 1542 484 1548 q 496 1528 496 1536 q 490 1514 496 1520 q 476 1508 484 1508 l 238 1508 z "},"ō":{"ha":794,"x_min":119,"x_max":595,"o":"m 471 873 q 463 879 465 876 q 456 893 456 885 q 462 907 456 901 q 476 913 468 913 q 489 909 484 913 q 526 879 508 896 q 595 710 595 809 l 595 243 q 526 74 595 145 q 486 42 507 56 q 476 40 482 40 q 462 46 468 40 q 456 60 456 52 q 462 74 456 67 q 465 76 464 76 q 497 103 481 87 q 556 243 556 161 l 556 710 q 497 850 556 793 q 471 873 487 861 m 226 910 q 238 914 231 914 q 252 908 246 914 q 258 894 258 902 q 253 880 258 886 q 248 876 249 877 q 217 850 232 865 q 159 710 159 793 l 159 243 q 217 103 159 161 q 250 76 232 88 q 252 75 251 75 q 258 61 258 68 q 252 47 258 53 q 238 41 246 41 q 226 44 231 41 q 188 74 206 57 q 119 243 119 145 l 119 710 q 188 879 119 809 q 226 910 207 897 m 238 1151 q 224 1157 230 1151 q 218 1171 218 1163 q 224 1185 218 1179 q 238 1190 230 1190 l 476 1190 q 490 1185 484 1190 q 496 1171 496 1179 q 490 1157 496 1163 q 476 1151 484 1151 l 238 1151 z "},"Ŏ":{"ha":794,"x_min":119,"x_max":595,"o":"m 471 1229 q 463 1235 465 1232 q 456 1249 456 1241 q 462 1263 456 1257 q 476 1269 468 1269 q 489 1265 484 1269 q 526 1235 508 1252 q 595 1066 595 1165 l 595 242 q 526 73 595 144 q 486 41 507 55 q 476 39 482 39 q 462 45 468 39 q 456 59 456 51 q 462 73 456 66 q 465 75 464 75 q 497 102 481 86 q 556 242 556 160 l 556 1066 q 497 1206 556 1149 q 471 1229 487 1217 m 226 1266 q 238 1270 231 1270 q 252 1264 246 1270 q 258 1250 258 1258 q 253 1236 258 1242 q 248 1232 249 1233 q 217 1206 232 1221 q 159 1066 159 1149 l 159 242 q 217 102 159 160 q 250 75 232 87 q 252 74 251 74 q 258 60 258 67 q 252 46 258 52 q 238 40 246 40 q 226 43 231 40 q 188 73 206 56 q 119 242 119 144 l 119 1066 q 188 1235 119 1165 q 226 1266 207 1253 m 231 1545 q 222 1557 224 1549 q 221 1563 221 1560 q 224 1572 221 1567 q 237 1582 229 1580 q 243 1583 240 1583 q 253 1580 248 1583 q 357 1549 306 1549 q 462 1580 410 1550 q 472 1582 466 1582 q 479 1581 476 1582 q 491 1572 487 1579 q 494 1562 494 1566 q 493 1556 494 1559 q 484 1544 491 1548 q 363 1508 422 1509 l 357 1508 q 231 1545 294 1508 z "},"ŏ":{"ha":794,"x_min":119,"x_max":595,"o":"m 471 873 q 463 879 465 876 q 456 893 456 885 q 462 907 456 901 q 476 913 468 913 q 489 909 484 913 q 526 879 508 896 q 595 710 595 809 l 595 243 q 526 74 595 145 q 486 42 507 56 q 476 40 482 40 q 462 46 468 40 q 456 60 456 52 q 462 74 456 67 q 465 76 464 76 q 497 103 481 87 q 556 243 556 161 l 556 710 q 497 850 556 793 q 471 873 487 861 m 226 910 q 238 914 231 914 q 252 908 246 914 q 258 894 258 902 q 253 880 258 886 q 248 876 249 877 q 217 850 232 865 q 159 710 159 793 l 159 243 q 217 103 159 161 q 250 76 232 88 q 252 75 251 75 q 258 61 258 68 q 252 47 258 53 q 238 41 246 41 q 226 44 231 41 q 188 74 206 57 q 119 243 119 145 l 119 710 q 188 879 119 809 q 226 910 207 897 m 231 1188 q 222 1199 224 1191 q 221 1205 221 1202 q 224 1215 221 1210 q 237 1225 229 1223 q 243 1226 240 1226 q 253 1223 248 1226 q 357 1191 306 1191 q 462 1223 410 1192 q 472 1225 466 1225 q 479 1224 476 1225 q 491 1215 487 1222 q 494 1204 494 1209 q 493 1198 494 1201 q 484 1187 491 1190 q 363 1151 422 1152 l 357 1151 q 231 1188 294 1151 z "},"Ő":{"ha":794,"x_min":119,"x_max":595,"o":"m 471 1229 q 463 1235 465 1232 q 456 1249 456 1241 q 462 1263 456 1257 q 476 1269 468 1269 q 489 1265 484 1269 q 526 1235 508 1252 q 595 1066 595 1165 l 595 242 q 526 73 595 144 q 486 41 507 55 q 476 39 482 39 q 462 45 468 39 q 456 59 456 51 q 462 73 456 66 q 465 75 464 75 q 497 102 481 86 q 556 242 556 160 l 556 1066 q 497 1206 556 1149 q 471 1229 487 1217 m 226 1266 q 238 1270 231 1270 q 252 1264 246 1270 q 258 1250 258 1258 q 253 1236 258 1242 q 248 1232 249 1233 q 217 1206 232 1221 q 159 1066 159 1149 l 159 242 q 217 102 159 160 q 250 75 232 87 q 252 74 251 74 q 258 60 258 67 q 252 46 258 52 q 238 40 246 40 q 226 43 231 40 q 188 73 206 56 q 119 242 119 144 l 119 1066 q 188 1235 119 1165 q 226 1266 207 1253 m 229 1520 q 217 1509 224 1511 q 209 1508 214 1508 q 202 1510 205 1508 q 195 1521 197 1513 q 194 1526 194 1524 q 197 1538 194 1532 l 253 1632 q 266 1643 258 1640 q 271 1644 269 1644 q 279 1642 275 1644 q 287 1633 285 1638 q 287 1625 287 1630 q 284 1612 287 1618 l 229 1520 m 462 1520 q 450 1509 458 1512 q 443 1508 445 1508 q 437 1510 440 1508 q 429 1520 431 1514 q 429 1527 429 1522 q 432 1540 429 1534 l 486 1632 q 498 1643 491 1641 q 505 1644 501 1644 q 512 1642 509 1644 q 520 1630 518 1639 q 521 1626 521 1627 q 518 1614 521 1620 l 462 1520 z "},"ő":{"ha":794,"x_min":119,"x_max":595,"o":"m 471 873 q 463 879 465 876 q 456 893 456 885 q 462 907 456 901 q 476 913 468 913 q 489 909 484 913 q 526 879 508 896 q 595 710 595 809 l 595 243 q 526 74 595 145 q 486 42 507 56 q 476 40 482 40 q 462 46 468 40 q 456 60 456 52 q 462 74 456 67 q 465 76 464 76 q 497 103 481 87 q 556 243 556 161 l 556 710 q 497 850 556 793 q 471 873 487 861 m 226 910 q 238 914 231 914 q 252 908 246 914 q 258 894 258 902 q 253 880 258 886 q 248 876 249 877 q 217 850 232 865 q 159 710 159 793 l 159 243 q 217 103 159 161 q 250 76 232 88 q 252 75 251 75 q 258 61 258 68 q 252 47 258 53 q 238 41 246 41 q 226 44 231 41 q 188 74 206 57 q 119 243 119 145 l 119 710 q 188 879 119 809 q 226 910 207 897 m 229 1163 q 217 1152 224 1154 q 209 1151 214 1151 q 202 1153 205 1151 q 195 1164 197 1156 q 194 1169 194 1167 q 197 1181 194 1175 l 253 1275 q 266 1286 258 1283 q 271 1287 269 1287 q 279 1285 275 1287 q 287 1276 285 1281 q 287 1268 287 1273 q 284 1255 287 1261 l 229 1163 m 462 1163 q 450 1152 458 1155 q 443 1151 445 1151 q 437 1153 440 1151 q 429 1163 431 1157 q 429 1170 429 1165 q 432 1183 429 1177 l 486 1275 q 498 1286 491 1284 q 505 1287 501 1287 q 512 1285 509 1287 q 520 1273 518 1282 q 521 1269 521 1270 q 518 1257 521 1263 l 462 1163 z "},"Œ":{"ha":1111,"x_min":119,"x_max":973,"o":"m 238 1270 q 252 1264 246 1270 q 258 1250 258 1258 q 253 1236 258 1242 q 248 1232 249 1233 q 217 1206 232 1221 q 159 1066 159 1149 l 159 242 q 217 102 159 160 q 250 75 232 87 q 252 74 251 74 q 258 60 258 67 q 252 46 258 52 q 238 40 246 40 q 226 43 231 40 q 188 73 206 56 q 119 242 119 144 l 119 1066 q 188 1235 119 1165 q 226 1266 207 1253 q 238 1270 231 1270 m 556 1066 q 497 1206 556 1149 q 471 1229 487 1217 q 463 1235 465 1232 q 456 1249 456 1241 q 462 1263 456 1257 q 476 1269 468 1269 q 489 1266 484 1269 q 538 1229 496 1260 q 562 1265 561 1264 q 575 1270 567 1270 l 953 1270 q 967 1264 961 1270 q 973 1250 973 1258 q 967 1236 973 1242 q 953 1230 961 1230 l 595 1230 l 595 675 l 893 675 q 907 669 901 675 q 913 655 913 663 q 907 641 913 647 q 893 635 901 635 l 595 635 l 595 79 l 953 79 q 967 73 961 79 q 973 60 973 67 q 967 46 973 52 q 953 40 961 40 l 575 40 q 560 49 567 40 q 539 79 560 49 q 486 41 495 48 q 476 39 482 39 q 462 45 468 39 q 456 59 456 51 q 462 73 456 66 q 465 75 464 75 q 497 102 481 86 q 556 242 556 160 l 556 1066 z "},"œ":{"ha":1218,"x_min":119,"x_max":1032,"o":"m 238 914 q 252 908 246 914 q 258 894 258 902 q 253 880 258 886 q 248 876 249 877 q 217 850 232 865 q 159 710 159 793 l 159 243 q 217 103 159 161 q 250 76 232 88 q 252 75 251 75 q 258 61 258 68 q 252 47 258 53 q 238 41 246 41 q 226 44 231 41 q 188 74 206 57 q 119 243 119 145 l 119 710 q 188 879 119 809 q 226 910 207 897 q 238 914 231 914 m 556 710 q 497 850 556 793 q 471 873 487 861 q 463 879 465 876 q 456 893 456 885 q 462 907 456 901 q 476 913 468 913 q 489 909 484 913 q 526 879 508 896 q 577 811 539 865 q 625 863 618 856 q 794 933 695 933 q 962 863 892 933 q 1032 694 1032 793 l 1032 456 q 1026 443 1032 449 q 1011 437 1020 437 l 813 437 q 800 442 806 437 q 794 456 794 448 q 800 470 794 464 q 813 476 806 476 l 992 476 l 992 694 q 934 835 992 777 q 794 893 876 893 q 653 835 711 893 q 595 694 595 777 l 595 258 q 653 118 595 177 q 794 60 710 60 q 934 118 876 60 q 949 125 941 125 q 963 119 957 125 q 969 105 969 113 q 961 88 969 96 q 794 19 892 19 q 625 88 695 19 q 581 143 618 96 q 526 74 539 87 q 486 42 507 56 q 476 40 482 40 q 462 46 468 40 q 456 60 456 52 q 462 74 456 67 q 465 76 464 76 q 497 103 481 87 q 556 243 556 161 l 556 710 z "},"Ŕ":{"ha":833,"x_min":159,"x_max":675,"o":"m 478 501 q 549 542 518 512 q 595 655 595 588 l 595 1071 q 548 1184 595 1138 q 437 1230 501 1230 l 198 1230 l 198 60 q 192 46 198 52 q 179 40 187 40 q 165 46 171 40 q 159 60 159 52 l 159 1250 q 165 1264 159 1258 q 179 1270 171 1270 l 437 1270 q 576 1211 518 1270 q 635 1071 635 1153 l 635 655 q 577 515 635 573 q 510 466 559 497 l 672 69 q 675 60 675 63 q 674 55 675 57 q 664 43 671 46 q 655 40 659 40 q 648 41 650 40 q 637 50 641 43 l 467 470 q 464 482 464 476 q 470 497 464 490 q 478 501 474 500 m 425 1647 q 434 1659 427 1655 q 443 1662 438 1662 q 448 1661 445 1662 q 460 1652 456 1659 q 463 1641 463 1647 q 462 1636 463 1639 l 432 1521 q 424 1511 431 1514 q 413 1507 418 1507 q 408 1508 411 1507 q 396 1518 401 1510 q 393 1527 393 1523 q 394 1533 393 1530 l 425 1647 z "},"ŕ":{"ha":476,"x_min":139,"x_max":358,"o":"m 179 59 q 173 45 179 51 q 159 39 167 39 q 145 45 151 39 q 139 59 139 51 l 139 714 q 197 854 139 796 q 337 913 256 913 q 352 907 346 913 q 358 893 358 901 q 352 879 358 885 q 337 873 346 873 q 225 827 271 873 q 179 714 179 781 l 179 59 m 257 1290 q 266 1302 259 1298 q 276 1305 271 1305 q 281 1304 278 1305 q 293 1295 289 1302 q 296 1284 296 1290 q 295 1279 296 1282 l 264 1164 q 256 1154 263 1157 q 245 1150 250 1150 q 240 1151 243 1150 q 228 1161 233 1153 q 225 1170 225 1166 q 226 1176 225 1173 l 257 1290 z "},"Ŗ":{"ha":833,"x_min":159,"x_max":675,"o":"m 478 501 q 549 542 518 512 q 595 655 595 588 l 595 1071 q 548 1184 595 1138 q 437 1230 501 1230 l 198 1230 l 198 60 q 192 46 198 52 q 179 40 187 40 q 165 46 171 40 q 159 60 159 52 l 159 1250 q 165 1264 159 1258 q 179 1270 171 1270 l 437 1270 q 576 1211 518 1270 q 635 1071 635 1153 l 635 655 q 577 515 635 573 q 510 466 559 497 l 672 69 q 675 60 675 63 q 674 55 675 57 q 664 43 671 46 q 655 40 659 40 q 648 41 650 40 q 637 50 641 43 l 467 470 q 464 482 464 476 q 470 497 464 490 q 478 501 474 500 z "},"ŗ":{"ha":476,"x_min":118,"x_max":358,"o":"m 179 59 q 173 45 179 51 q 159 39 167 39 q 145 45 151 39 q 139 59 139 51 l 139 714 q 197 854 139 796 q 337 913 256 913 q 352 907 346 913 q 358 893 358 901 q 352 879 358 885 q 337 873 346 873 q 225 827 271 873 q 179 714 179 781 l 179 59 z "},"Ř":{"ha":833,"x_min":159,"x_max":675,"o":"m 478 501 q 549 542 518 512 q 595 655 595 588 l 595 1071 q 548 1184 595 1138 q 437 1230 501 1230 l 198 1230 l 198 60 q 192 46 198 52 q 179 40 187 40 q 165 46 171 40 q 159 60 159 52 l 159 1250 q 165 1264 159 1258 q 179 1270 171 1270 l 437 1270 q 576 1211 518 1270 q 635 1071 635 1153 l 635 655 q 577 515 635 573 q 510 466 559 497 l 672 69 q 675 60 675 63 q 674 55 675 57 q 664 43 671 46 q 655 40 659 40 q 648 41 650 40 q 637 50 641 43 l 467 470 q 464 482 464 476 q 470 497 464 490 q 478 501 474 500 z "},"ř":{"ha":476,"x_min":117,"x_max":381,"o":"m 180 59 q 174 45 180 51 q 160 39 168 39 q 146 45 152 39 q 140 59 140 51 l 140 714 q 198 854 140 796 q 338 913 257 913 q 353 907 347 913 q 359 893 359 901 q 353 879 359 885 q 338 873 347 873 q 226 827 272 873 q 180 714 180 781 l 180 59 z "},"Ś":{"ha":635,"x_min":63,"x_max":502,"o":"m 86 97 q 77 116 77 108 q 84 130 78 124 q 98 135 89 135 q 116 125 107 134 q 254 60 171 64 l 263 60 q 396 111 339 60 q 461 249 456 166 l 461 263 q 252 674 461 441 q 63 1050 63 881 l 63 1064 q 143 1229 69 1163 q 300 1290 210 1290 l 315 1290 q 478 1212 413 1285 q 487 1193 487 1201 q 480 1181 486 1186 q 468 1175 474 1175 q 450 1185 458 1175 q 311 1249 393 1245 l 299 1249 q 169 1199 225 1249 q 103 1061 108 1144 l 103 1051 q 314 665 103 898 q 502 266 502 458 q 501 247 502 257 q 422 80 495 147 q 264 19 354 19 l 249 19 q 86 97 152 25 m 291 1647 q 300 1659 293 1655 q 310 1662 305 1662 q 314 1661 312 1662 q 326 1652 322 1659 q 329 1641 329 1647 q 328 1636 329 1639 l 298 1521 q 290 1511 297 1514 q 279 1507 284 1507 q 274 1508 277 1507 q 262 1518 267 1510 q 259 1527 259 1523 q 260 1533 259 1530 l 291 1647 z "},"ś":{"ha":694,"x_min":89,"x_max":530,"o":"m 495 853 q 505 834 505 842 q 499 820 505 826 q 487 815 493 815 q 466 826 476 815 q 324 891 411 884 q 300 892 312 892 q 188 855 227 892 q 125 725 128 813 q 349 483 125 600 q 530 239 530 391 q 463 75 527 132 q 299 19 399 19 q 123 94 190 22 q 114 113 114 104 q 120 127 114 121 q 132 132 126 132 q 154 119 143 132 q 296 59 211 63 l 313 59 q 431 92 384 59 q 494 242 492 148 l 494 246 q 275 491 494 378 q 89 727 89 592 q 160 878 92 824 q 318 929 225 929 l 330 929 q 495 853 429 925 m 317 1290 q 326 1302 319 1298 q 336 1305 331 1305 q 341 1304 338 1305 q 353 1295 349 1302 q 356 1284 356 1290 q 355 1279 356 1282 l 324 1164 q 316 1154 323 1157 q 306 1150 311 1150 q 301 1151 304 1150 q 289 1161 294 1153 q 286 1170 286 1166 q 287 1176 286 1173 l 317 1290 z "},"Ŝ":{"ha":635,"x_min":63,"x_max":502,"o":"m 86 97 q 77 116 77 108 q 84 130 78 124 q 98 135 89 135 q 116 125 107 134 q 254 60 171 64 l 263 60 q 396 111 339 60 q 461 249 456 166 l 461 263 q 252 674 461 441 q 63 1050 63 881 l 63 1064 q 143 1229 69 1163 q 300 1290 210 1290 l 315 1290 q 478 1212 413 1285 q 487 1193 487 1201 q 480 1181 486 1186 q 468 1175 474 1175 q 450 1185 458 1175 q 311 1249 393 1245 l 299 1249 q 169 1199 225 1249 q 103 1061 108 1144 l 103 1051 q 314 665 103 898 q 502 266 502 458 q 501 247 502 257 q 422 80 495 147 q 264 19 354 19 l 249 19 q 86 97 152 25 m 406 1544 q 415 1528 415 1536 q 409 1513 415 1520 q 395 1508 403 1508 q 380 1514 386 1508 l 283 1612 l 185 1513 q 171 1508 179 1508 q 157 1513 163 1508 q 151 1528 151 1520 q 156 1542 151 1536 l 268 1653 q 283 1659 274 1659 q 297 1654 291 1659 l 406 1544 z "},"ŝ":{"ha":694,"x_min":89,"x_max":530,"o":"m 495 853 q 505 834 505 842 q 499 820 505 826 q 487 815 493 815 q 466 826 476 815 q 324 891 411 884 q 300 892 312 892 q 188 855 227 892 q 125 725 128 813 q 349 483 125 600 q 530 239 530 391 q 463 75 527 132 q 299 19 399 19 q 123 94 190 22 q 114 113 114 104 q 120 127 114 121 q 132 132 126 132 q 154 119 143 132 q 296 59 211 63 l 313 59 q 431 92 384 59 q 494 242 492 148 l 494 246 q 275 491 494 378 q 89 727 89 592 q 160 878 92 824 q 318 929 225 929 l 330 929 q 495 853 429 925 m 433 1187 q 441 1171 441 1179 q 436 1156 441 1163 q 422 1151 430 1151 q 407 1157 413 1151 l 310 1255 l 211 1156 q 197 1151 205 1151 q 184 1156 189 1151 q 178 1171 178 1163 q 183 1185 178 1179 l 295 1296 q 310 1302 301 1302 q 323 1297 317 1302 l 433 1187 z "},"Ş":{"ha":635,"x_min":63,"x_max":502,"o":"m 263 16 q 86 97 145 33 q 77 116 77 108 q 84 130 78 124 q 98 135 89 135 q 116 125 107 134 q 254 60 171 64 l 263 60 q 396 111 339 60 q 461 249 456 166 l 461 263 q 252 674 461 441 q 63 1050 63 881 l 63 1064 q 143 1229 69 1163 q 300 1290 210 1290 l 315 1290 q 478 1212 413 1285 q 487 1193 487 1201 q 480 1181 486 1186 q 468 1175 474 1175 q 450 1185 458 1175 q 311 1249 393 1245 l 299 1249 q 169 1199 225 1249 q 103 1061 108 1144 l 103 1051 q 314 665 103 898 q 502 266 502 458 q 501 247 502 257 q 422 80 495 147 q 303 20 380 43 l 303 -97 q 383 -139 359 -116 q 423 -238 423 -180 q 382 -336 423 -296 q 284 -377 341 -377 l 164 -377 q 150 -371 156 -377 q 144 -357 144 -365 q 150 -343 144 -349 q 164 -337 156 -337 l 283 -337 q 353 -309 324 -337 q 382 -238 382 -280 q 353 -168 382 -196 q 283 -139 324 -139 q 269 -133 275 -139 q 263 -119 263 -127 l 263 16 z "},"ş":{"ha":694,"x_min":89,"x_max":530,"o":"m 290 18 q 123 94 177 37 q 114 113 114 104 q 120 127 114 121 q 132 132 126 132 q 154 119 143 132 q 296 59 211 63 l 313 59 q 431 92 384 59 q 494 242 492 148 l 494 246 q 275 491 494 378 q 89 727 89 592 q 160 878 92 824 q 318 929 225 929 l 330 929 q 495 853 429 925 q 505 834 505 842 q 499 820 505 826 q 487 815 493 815 q 466 826 476 815 q 324 891 411 884 q 300 892 312 892 q 188 855 227 892 q 125 725 128 813 q 349 483 125 600 q 530 239 530 391 q 464 76 527 132 q 329 18 420 38 l 329 -97 q 410 -139 386 -116 q 449 -238 449 -180 q 409 -336 449 -296 q 311 -377 368 -377 l 190 -377 q 177 -371 183 -377 q 171 -357 171 -365 q 177 -343 171 -349 q 190 -337 183 -337 l 310 -337 q 380 -309 351 -337 q 409 -238 409 -280 q 380 -168 409 -196 q 310 -139 351 -139 q 296 -133 302 -139 q 290 -119 290 -127 l 290 18 z "},"Š":{"ha":635,"x_min":63,"x_max":502,"o":"m 86 97 q 77 116 77 108 q 84 130 78 124 q 98 135 89 135 q 116 125 107 134 q 254 60 171 64 l 263 60 q 396 111 339 60 q 461 249 456 166 l 461 263 q 252 674 461 441 q 63 1050 63 881 l 63 1064 q 143 1229 69 1163 q 300 1290 210 1290 l 315 1290 q 478 1212 413 1285 q 487 1193 487 1201 q 480 1181 486 1186 q 468 1175 474 1175 q 450 1185 458 1175 q 311 1249 393 1245 l 299 1249 q 169 1199 225 1249 q 103 1061 108 1144 l 103 1051 q 314 665 103 898 q 502 266 502 458 q 501 247 502 257 q 422 80 495 147 q 264 19 354 19 l 249 19 q 86 97 152 25 z "},"š":{"ha":694,"x_min":89,"x_max":530,"o":"m 495 853 q 505 834 505 842 q 499 820 505 826 q 487 815 493 815 q 466 826 476 815 q 324 891 411 884 q 300 892 312 892 q 188 855 227 892 q 125 725 128 813 q 349 483 125 600 q 530 239 530 391 q 463 75 527 132 q 299 19 399 19 q 123 94 190 22 q 114 113 114 104 q 120 127 114 121 q 132 132 126 132 q 154 119 143 132 q 296 59 211 63 l 313 59 q 431 92 384 59 q 494 242 492 148 l 494 246 q 275 491 494 378 q 89 727 89 592 q 160 878 92 824 q 318 929 225 929 l 330 929 q 495 853 429 925 z "},"Ţ":{"ha":595,"x_min":10,"x_max":486,"o":"m 228 1230 l 30 1230 q 16 1236 22 1230 q 10 1250 10 1242 q 16 1264 10 1258 q 30 1270 22 1270 l 466 1270 q 480 1264 474 1270 q 486 1250 486 1258 q 480 1236 486 1242 q 466 1230 474 1230 l 268 1230 l 267 -97 q 347 -139 323 -116 q 388 -238 388 -181 q 347 -336 388 -296 q 249 -377 307 -377 l 129 -377 q 115 -371 121 -377 q 109 -357 109 -365 q 115 -343 109 -349 q 129 -337 121 -337 l 248 -337 q 318 -309 290 -337 q 347 -238 347 -280 q 318 -168 347 -196 q 248 -139 290 -139 q 234 -133 240 -139 q 228 -119 228 -127 l 228 1230 z "},"ţ":{"ha":516,"x_min":98,"x_max":398,"o":"m 217 98 q 159 238 159 157 l 159 873 l 118 873 q 104 879 110 873 q 98 893 98 885 q 104 907 98 901 q 118 913 110 913 l 159 913 l 159 1130 q 165 1144 159 1138 q 179 1150 171 1150 q 192 1144 187 1150 q 198 1130 198 1138 l 198 913 l 357 913 q 371 907 365 913 q 377 893 377 901 q 371 879 377 885 q 357 873 365 873 l 198 873 l 198 238 q 245 125 198 172 q 357 79 291 79 q 372 73 366 79 q 378 60 378 67 q 372 46 378 52 q 357 40 366 40 q 279 50 339 40 l 277 -97 q 357 -139 333 -116 q 398 -238 398 -181 q 357 -336 398 -296 q 259 -377 316 -377 l 139 -377 q 125 -371 131 -377 q 119 -357 119 -365 q 125 -343 119 -349 q 139 -337 131 -337 l 258 -337 q 328 -309 300 -337 q 357 -238 357 -280 q 328 -168 357 -196 q 258 -139 300 -139 q 244 -133 250 -139 q 238 -119 238 -127 l 238 78 l 217 98 z "},"Ť":{"ha":595,"x_min":10,"x_max":486,"o":"m 30 1230 q 16 1236 22 1230 q 10 1250 10 1242 q 16 1264 10 1258 q 30 1270 22 1270 l 466 1270 q 480 1264 474 1270 q 486 1250 486 1258 q 480 1236 486 1242 q 466 1230 474 1230 l 268 1230 l 268 60 q 262 46 268 52 q 248 40 256 40 q 234 46 240 40 q 228 60 228 52 l 228 1230 l 30 1230 z "},"ť":{"ha":595,"x_min":98,"x_max":506,"o":"m 357 913 q 371 907 365 913 q 377 893 377 901 q 371 879 377 885 q 357 873 365 873 l 198 873 l 198 238 q 245 125 198 172 q 357 79 291 79 q 372 73 366 79 q 378 60 378 67 q 372 46 378 52 q 357 40 366 40 q 217 98 276 40 q 159 238 159 157 l 159 873 l 118 873 q 104 879 110 873 q 98 893 98 885 q 104 907 98 901 q 118 913 110 913 l 159 913 l 159 1130 q 165 1144 159 1138 q 179 1150 171 1150 q 192 1144 187 1150 q 198 1130 198 1138 l 198 913 l 357 913 z "},"Ŧ":{"ha":595,"x_min":10,"x_max":486,"o":"m 228 675 l 228 1230 l 30 1230 q 16 1236 22 1230 q 10 1250 10 1242 q 16 1264 10 1258 q 30 1270 22 1270 l 466 1270 q 480 1264 474 1270 q 486 1250 486 1258 q 480 1236 486 1242 q 466 1230 474 1230 l 268 1230 l 268 675 l 466 675 q 480 669 474 675 q 486 655 486 663 q 480 641 486 647 q 466 635 474 635 l 268 635 l 268 60 q 262 46 268 52 q 248 40 256 40 q 234 46 240 40 q 228 60 228 52 l 228 635 l 31 635 q 17 641 23 635 q 11 655 11 647 q 17 669 11 663 q 31 675 23 675 l 228 675 z "},"ŧ":{"ha":516,"x_min":99,"x_max":379,"o":"m 160 496 l 160 873 l 119 873 q 105 879 111 873 q 99 893 99 885 q 105 907 99 901 q 119 913 111 913 l 160 913 l 160 1130 q 166 1144 160 1138 q 180 1150 172 1150 q 193 1144 188 1150 q 199 1130 199 1138 l 199 913 l 358 913 q 372 907 366 913 q 378 893 378 901 q 372 879 378 885 q 358 873 366 873 l 199 873 l 199 496 l 358 496 q 372 490 366 496 q 378 476 378 484 q 372 462 378 468 q 358 456 366 456 l 199 456 l 199 238 q 246 125 199 172 q 358 79 292 79 q 373 73 367 79 q 379 60 379 67 q 373 46 379 52 q 358 40 367 40 q 218 98 277 40 q 160 238 160 157 l 160 456 l 119 456 q 105 462 111 456 q 99 476 99 468 q 105 490 99 484 q 119 496 111 496 l 160 496 z "},"Ũ":{"ha":833,"x_min":139,"x_max":615,"o":"m 139 1249 q 145 1263 139 1257 q 159 1269 151 1269 q 173 1263 167 1269 q 179 1249 179 1257 l 179 258 q 237 118 179 176 q 377 60 295 60 q 517 118 459 60 q 575 258 575 176 l 575 1249 q 581 1263 575 1257 q 595 1269 587 1269 q 609 1263 603 1269 q 615 1249 615 1257 l 615 258 q 545 90 615 160 q 377 20 475 20 q 209 90 279 20 q 139 258 139 160 l 139 1249 m 213 1545 q 205 1543 209 1543 q 199 1545 203 1543 q 187 1555 189 1548 q 184 1564 184 1560 q 186 1570 184 1565 q 195 1582 188 1579 q 274 1599 228 1599 q 381 1583 320 1599 q 475 1569 437 1569 q 539 1582 514 1569 q 550 1585 544 1585 q 558 1584 555 1585 q 568 1574 564 1582 q 571 1564 571 1568 q 570 1560 571 1563 q 561 1547 567 1551 q 475 1528 527 1528 q 370 1544 429 1528 q 274 1558 313 1558 q 213 1545 237 1558 z "},"ũ":{"ha":853,"x_min":139,"x_max":615,"o":"m 575 893 q 581 907 575 901 q 595 913 587 913 q 609 907 603 913 q 615 893 615 901 l 615 60 q 609 46 615 52 q 595 40 603 40 l 377 40 q 209 110 279 40 q 139 278 139 180 l 139 893 q 145 907 139 901 q 159 913 151 913 q 173 907 167 913 q 179 893 179 901 l 179 278 q 237 137 179 195 q 377 79 295 79 l 575 79 l 575 893 m 213 1188 q 205 1186 209 1186 q 199 1188 203 1186 q 187 1197 189 1190 q 184 1207 184 1202 q 186 1213 184 1208 q 195 1225 188 1222 q 274 1242 228 1242 q 381 1226 320 1242 q 475 1212 437 1212 q 539 1225 514 1212 q 550 1228 544 1228 q 558 1227 555 1228 q 568 1217 564 1225 q 571 1207 571 1211 q 570 1202 571 1205 q 561 1189 567 1193 q 475 1171 527 1171 q 370 1187 429 1171 q 274 1200 313 1200 q 213 1188 237 1200 z "},"Ū":{"ha":833,"x_min":139,"x_max":615,"o":"m 139 1249 q 145 1263 139 1257 q 159 1269 151 1269 q 173 1263 167 1269 q 179 1249 179 1257 l 179 258 q 237 118 179 176 q 377 60 295 60 q 517 118 459 60 q 575 258 575 176 l 575 1249 q 581 1263 575 1257 q 595 1269 587 1269 q 609 1263 603 1269 q 615 1249 615 1257 l 615 258 q 545 90 615 160 q 377 20 475 20 q 209 90 279 20 q 139 258 139 160 l 139 1249 m 258 1508 q 244 1514 250 1508 q 238 1528 238 1520 q 244 1542 238 1536 q 258 1548 250 1548 l 496 1548 q 510 1542 504 1548 q 516 1528 516 1536 q 510 1514 516 1520 q 496 1508 504 1508 l 258 1508 z "},"ū":{"ha":853,"x_min":139,"x_max":615,"o":"m 575 893 q 581 907 575 901 q 595 913 587 913 q 609 907 603 913 q 615 893 615 901 l 615 60 q 609 46 615 52 q 595 40 603 40 l 377 40 q 209 110 279 40 q 139 278 139 180 l 139 893 q 145 907 139 901 q 159 913 151 913 q 173 907 167 913 q 179 893 179 901 l 179 278 q 237 137 179 195 q 377 79 295 79 l 575 79 l 575 893 m 258 1151 q 244 1157 250 1151 q 238 1171 238 1163 q 244 1185 238 1179 q 258 1190 250 1190 l 496 1190 q 510 1185 504 1190 q 516 1171 516 1179 q 510 1157 516 1163 q 496 1151 504 1151 l 258 1151 z "},"Ŭ":{"ha":833,"x_min":139,"x_max":615,"o":"m 139 1249 q 145 1263 139 1257 q 159 1269 151 1269 q 173 1263 167 1269 q 179 1249 179 1257 l 179 258 q 237 118 179 176 q 377 60 295 60 q 517 118 459 60 q 575 258 575 176 l 575 1249 q 581 1263 575 1257 q 595 1269 587 1269 q 609 1263 603 1269 q 615 1249 615 1257 l 615 258 q 545 90 615 160 q 377 20 475 20 q 209 90 279 20 q 139 258 139 160 l 139 1249 m 251 1545 q 242 1557 244 1549 q 241 1563 241 1560 q 244 1572 241 1567 q 257 1582 249 1580 q 263 1583 260 1583 q 273 1580 268 1583 q 377 1549 325 1549 q 482 1580 430 1550 q 492 1582 486 1582 q 499 1581 496 1582 q 511 1572 507 1579 q 514 1562 514 1566 q 513 1556 514 1559 q 504 1544 511 1548 q 383 1508 441 1509 l 377 1508 q 251 1545 313 1508 z "},"ŭ":{"ha":853,"x_min":139,"x_max":615,"o":"m 575 893 q 581 907 575 901 q 595 913 587 913 q 609 907 603 913 q 615 893 615 901 l 615 60 q 609 46 615 52 q 595 40 603 40 l 377 40 q 209 110 279 40 q 139 278 139 180 l 139 893 q 145 907 139 901 q 159 913 151 913 q 173 907 167 913 q 179 893 179 901 l 179 278 q 237 137 179 195 q 377 79 295 79 l 575 79 l 575 893 m 251 1188 q 242 1199 244 1191 q 241 1205 241 1202 q 244 1215 241 1210 q 257 1225 249 1223 q 263 1226 260 1226 q 273 1223 268 1226 q 377 1191 325 1191 q 482 1223 430 1192 q 492 1225 486 1225 q 499 1224 496 1225 q 511 1215 507 1222 q 514 1204 514 1209 q 513 1198 514 1201 q 504 1187 511 1190 q 383 1151 441 1152 l 377 1151 q 251 1188 313 1151 z "},"Ů":{"ha":833,"x_min":139,"x_max":615,"o":"m 139 1249 q 145 1263 139 1257 q 159 1269 151 1269 q 173 1263 167 1269 q 179 1249 179 1257 l 179 258 q 237 118 179 176 q 377 60 295 60 q 517 118 459 60 q 575 258 575 176 l 575 1249 q 581 1263 575 1257 q 595 1269 587 1269 q 609 1263 603 1269 q 615 1249 615 1257 l 615 258 q 545 90 615 160 q 377 20 475 20 q 209 90 279 20 q 139 258 139 160 l 139 1249 m 377 1666 q 433 1642 410 1666 q 456 1586 456 1619 q 433 1530 456 1554 q 377 1507 410 1507 q 321 1530 344 1507 q 298 1586 298 1554 q 321 1642 298 1619 q 377 1666 344 1666 z "},"ů":{"ha":853,"x_min":139,"x_max":615,"o":"m 575 893 q 581 907 575 901 q 595 913 587 913 q 609 907 603 913 q 615 893 615 901 l 615 60 q 609 46 615 52 q 595 40 603 40 l 377 40 q 209 110 279 40 q 139 278 139 180 l 139 893 q 145 907 139 901 q 159 913 151 913 q 173 907 167 913 q 179 893 179 901 l 179 278 q 237 137 179 195 q 377 79 295 79 l 575 79 l 575 893 m 377 1309 q 433 1285 410 1309 q 456 1229 456 1262 q 433 1173 456 1196 q 377 1150 410 1150 q 321 1173 344 1150 q 298 1229 298 1196 q 321 1285 298 1262 q 377 1309 344 1309 z "},"Ű":{"ha":833,"x_min":139,"x_max":615,"o":"m 139 1249 q 145 1263 139 1257 q 159 1269 151 1269 q 173 1263 167 1269 q 179 1249 179 1257 l 179 258 q 237 118 179 176 q 377 60 295 60 q 517 118 459 60 q 575 258 575 176 l 575 1249 q 581 1263 575 1257 q 595 1269 587 1269 q 609 1263 603 1269 q 615 1249 615 1257 l 615 258 q 545 90 615 160 q 377 20 475 20 q 209 90 279 20 q 139 258 139 160 l 139 1249 m 249 1520 q 237 1509 244 1511 q 229 1508 234 1508 q 222 1510 225 1508 q 215 1521 217 1513 q 214 1526 214 1524 q 217 1538 214 1532 l 273 1632 q 286 1643 278 1640 q 291 1644 289 1644 q 299 1642 295 1644 q 307 1633 305 1638 q 307 1625 307 1630 q 304 1612 307 1618 l 249 1520 m 482 1520 q 470 1509 478 1512 q 463 1508 465 1508 q 456 1510 460 1508 q 448 1520 450 1514 q 448 1527 448 1522 q 451 1540 448 1534 l 506 1632 q 518 1643 511 1641 q 525 1644 521 1644 q 532 1642 529 1644 q 540 1630 538 1639 q 541 1626 541 1627 q 538 1614 541 1620 l 482 1520 z "},"ű":{"ha":853,"x_min":139,"x_max":615,"o":"m 575 893 q 581 907 575 901 q 595 913 587 913 q 609 907 603 913 q 615 893 615 901 l 615 60 q 609 46 615 52 q 595 40 603 40 l 377 40 q 209 110 279 40 q 139 278 139 180 l 139 893 q 145 907 139 901 q 159 913 151 913 q 173 907 167 913 q 179 893 179 901 l 179 278 q 237 137 179 195 q 377 79 295 79 l 575 79 l 575 893 m 249 1163 q 237 1152 244 1154 q 229 1151 234 1151 q 222 1153 225 1151 q 215 1164 217 1156 q 214 1169 214 1167 q 217 1181 214 1175 l 273 1275 q 286 1286 278 1283 q 291 1287 289 1287 q 299 1285 295 1287 q 307 1276 305 1281 q 307 1268 307 1273 q 304 1255 307 1261 l 249 1163 m 482 1163 q 470 1152 478 1155 q 463 1151 465 1151 q 456 1153 460 1151 q 448 1163 450 1157 q 448 1170 448 1165 q 451 1183 448 1177 l 506 1275 q 518 1286 511 1284 q 525 1287 521 1287 q 532 1285 529 1287 q 540 1273 538 1282 q 541 1269 541 1270 q 538 1257 541 1263 l 482 1163 z "},"Ų":{"ha":833,"x_min":139,"x_max":615,"o":"m 286 33 q 208 89 228 69 q 139 258 139 160 l 139 1249 q 145 1263 139 1257 q 159 1269 151 1269 q 173 1263 167 1269 q 179 1249 179 1257 l 179 258 q 237 118 179 176 q 377 60 295 60 q 517 118 459 60 q 575 258 575 176 l 575 1249 q 581 1263 575 1257 q 595 1269 587 1269 q 609 1263 603 1269 q 615 1249 615 1257 l 615 258 q 546 89 615 160 q 379 20 476 21 l 378 20 q 308 -9 336 20 q 279 -79 279 -38 q 308 -150 279 -121 q 378 -179 336 -179 l 497 -179 q 511 -185 505 -179 q 517 -198 517 -190 q 511 -212 517 -206 q 497 -218 505 -218 l 377 -218 q 279 -178 319 -218 q 238 -79 238 -137 q 286 33 238 -35 z "},"ų":{"ha":853,"x_min":139,"x_max":735,"o":"m 483 40 l 377 40 q 209 110 279 40 q 139 278 139 180 l 139 893 q 145 907 139 901 q 159 913 151 913 q 173 907 167 913 q 179 893 179 901 l 179 278 q 237 137 179 195 q 377 79 295 79 l 575 79 l 575 893 q 581 907 575 901 q 595 913 587 913 q 609 907 603 913 q 615 893 615 901 l 615 68 q 616 60 616 63 q 610 46 616 52 q 596 40 604 40 q 526 11 555 40 q 497 -60 497 -18 q 526 -130 497 -101 q 596 -159 555 -159 l 715 -159 q 729 -165 723 -159 q 735 -179 735 -171 q 729 -192 735 -187 q 715 -198 723 -198 l 595 -198 q 497 -158 538 -198 q 456 -60 456 -117 q 483 40 456 -35 z "},"Ŵ":{"ha":1190,"x_min":4,"x_max":1105,"o":"m 817 60 q 811 46 815 51 q 798 40 805 40 q 786 45 790 40 q 778 61 780 51 l 555 968 l 332 62 q 324 46 330 52 q 312 40 318 40 q 299 45 304 40 q 291 61 293 52 l 4 1245 q 4 1250 4 1246 q 10 1264 4 1258 q 24 1270 16 1270 q 39 1265 33 1270 q 45 1251 43 1260 l 312 146 l 530 1042 q 540 1065 534 1059 q 556 1071 547 1071 q 569 1064 563 1071 q 579 1043 575 1058 l 798 146 l 1064 1251 q 1071 1265 1066 1259 q 1085 1270 1077 1270 q 1099 1264 1093 1270 q 1105 1250 1105 1258 q 1105 1245 1105 1246 l 817 60 m 678 1343 q 687 1327 687 1335 q 681 1313 687 1319 q 667 1308 675 1308 q 652 1313 658 1308 l 555 1412 l 456 1313 q 442 1308 450 1308 q 429 1313 435 1308 q 423 1327 423 1319 q 428 1341 423 1335 l 540 1452 q 555 1458 546 1458 q 568 1453 563 1458 l 678 1343 z "},"ŵ":{"ha":1130,"x_min":20,"x_max":1016,"o":"m 299 59 q 292 45 296 50 q 278 40 286 40 q 265 45 271 40 q 258 62 260 51 l 21 886 q 20 893 20 889 q 26 907 20 901 q 40 913 32 913 q 54 908 49 913 q 59 901 58 904 l 279 125 l 499 896 q 505 908 500 903 q 519 913 511 913 q 533 908 528 913 q 538 901 537 904 l 758 125 l 978 897 q 984 907 979 903 q 998 913 990 913 q 1011 907 1006 913 q 1016 893 1016 902 q 1014 880 1016 885 l 778 59 q 771 45 775 50 q 757 40 765 40 q 744 45 750 40 q 737 62 739 51 l 518 822 l 299 59 m 641 1187 q 650 1171 650 1179 q 644 1156 650 1163 q 630 1151 638 1151 q 615 1157 621 1151 l 518 1255 l 420 1156 q 406 1151 414 1151 q 392 1156 398 1151 q 386 1171 386 1163 q 391 1185 386 1179 l 503 1296 q 518 1302 509 1302 q 532 1297 526 1302 l 641 1187 z "},"Ŷ":{"ha":635,"x_min":21,"x_max":537,"o":"m 22 1241 q 21 1250 21 1244 q 26 1264 21 1259 q 40 1270 32 1270 q 54 1265 49 1270 q 59 1258 58 1261 l 279 482 l 499 1254 q 505 1264 500 1260 q 519 1270 511 1270 q 532 1264 527 1270 q 537 1250 537 1259 q 535 1237 537 1242 l 298 415 l 298 60 q 292 46 298 52 q 278 40 286 40 q 264 46 270 40 q 258 60 258 52 l 258 416 l 22 1241 m 402 1544 q 411 1528 411 1536 q 405 1513 411 1520 q 391 1508 399 1508 q 376 1514 382 1508 l 279 1612 l 181 1513 q 167 1508 175 1508 q 153 1513 159 1508 q 147 1528 147 1520 q 152 1542 147 1536 l 264 1653 q 279 1659 270 1659 q 293 1654 287 1659 l 402 1544 z "},"ŷ":{"ha":833,"x_min":139,"x_max":615,"o":"m 575 893 q 581 907 575 901 q 595 913 587 913 q 609 907 603 913 q 615 893 615 901 l 615 -99 q 557 -239 615 -181 q 417 -298 498 -298 q 277 -240 335 -298 q 241 -193 255 -218 q 238 -179 238 -187 q 243 -165 238 -170 q 256 -160 248 -160 q 268 -163 265 -160 q 273 -170 271 -166 q 306 -211 286 -191 q 417 -258 351 -258 q 529 -212 483 -258 q 575 -99 575 -166 l 575 40 l 377 40 q 209 110 279 40 q 139 278 139 180 l 139 893 q 145 907 139 901 q 159 913 151 913 q 173 907 167 913 q 179 893 179 901 l 179 278 q 237 137 179 195 q 377 79 295 79 l 575 79 l 575 893 m 500 1187 q 509 1171 509 1179 q 503 1156 509 1163 q 489 1151 497 1151 q 474 1157 480 1151 l 377 1255 l 279 1156 q 265 1151 273 1151 q 251 1156 257 1151 q 245 1171 245 1163 q 250 1185 245 1179 l 362 1296 q 377 1302 368 1302 q 391 1297 385 1302 l 500 1187 z "},"Ÿ":{"ha":635,"x_min":21,"x_max":537,"o":"m 22 1241 q 21 1250 21 1244 q 26 1264 21 1259 q 40 1270 32 1270 q 54 1265 49 1270 q 59 1258 58 1261 l 279 482 l 499 1254 q 505 1264 500 1260 q 519 1270 511 1270 q 532 1264 527 1270 q 537 1250 537 1259 q 535 1237 537 1242 l 298 415 l 298 60 q 292 46 298 52 q 278 40 286 40 q 264 46 270 40 q 258 60 258 52 l 258 416 l 22 1241 m 135 1587 q 163 1575 151 1587 q 175 1548 175 1563 q 163 1520 175 1532 q 135 1508 151 1508 q 107 1520 119 1508 q 95 1548 95 1532 q 107 1575 95 1563 q 135 1587 119 1587 m 424 1587 q 451 1575 439 1587 q 463 1548 463 1563 q 451 1520 463 1532 q 424 1508 439 1508 q 396 1520 408 1508 q 384 1548 384 1532 q 396 1575 384 1563 q 424 1587 408 1587 z "},"Ź":{"ha":670,"x_min":40,"x_max":536,"o":"m 60 1230 q 46 1236 52 1230 q 40 1250 40 1242 q 46 1264 40 1258 q 60 1270 52 1270 l 516 1270 q 530 1264 524 1270 q 536 1250 536 1258 q 535 1241 536 1245 l 89 79 l 516 79 q 530 73 524 79 q 536 60 536 67 q 530 46 536 52 q 516 40 524 40 l 60 40 q 47 46 53 40 q 41 60 41 52 q 43 71 41 66 l 486 1230 l 60 1230 m 296 1647 q 305 1659 298 1655 q 314 1662 310 1662 q 319 1661 316 1662 q 331 1652 327 1659 q 334 1641 334 1647 q 333 1636 334 1639 l 303 1521 q 295 1511 302 1514 q 284 1507 289 1507 q 279 1508 282 1507 q 267 1518 272 1510 q 264 1527 264 1523 q 265 1533 264 1530 l 296 1647 z "},"ź":{"ha":635,"x_min":40,"x_max":516,"o":"m 60 873 q 46 879 52 873 q 40 893 40 885 q 46 907 40 901 q 60 913 52 913 l 496 913 q 510 907 504 913 q 516 893 516 901 q 515 886 516 888 l 92 79 l 496 79 q 510 73 504 79 q 516 60 516 67 q 510 46 516 52 q 496 40 504 40 l 60 40 q 46 46 53 40 q 40 60 40 53 q 42 68 40 65 l 463 873 l 60 873 m 286 1290 q 295 1302 288 1298 q 305 1305 300 1305 q 310 1304 307 1305 q 321 1295 317 1302 q 324 1284 324 1290 q 323 1279 324 1282 l 293 1164 q 285 1154 292 1157 q 274 1150 279 1150 q 269 1151 272 1150 q 257 1161 262 1153 q 254 1170 254 1166 q 255 1176 254 1173 l 286 1290 z "},"Ż":{"ha":670,"x_min":40,"x_max":536,"o":"m 60 1230 q 46 1236 52 1230 q 40 1250 40 1242 q 46 1264 40 1258 q 60 1270 52 1270 l 516 1270 q 530 1264 524 1270 q 536 1250 536 1258 q 535 1241 536 1245 l 89 79 l 516 79 q 530 73 524 79 q 536 60 536 67 q 530 46 536 52 q 516 40 524 40 l 60 40 q 47 46 53 40 q 41 60 41 52 q 43 71 41 66 l 486 1230 l 60 1230 z "},"ż":{"ha":635,"x_min":40,"x_max":516,"o":"m 60 873 q 46 879 52 873 q 40 893 40 885 q 46 907 40 901 q 60 913 52 913 l 496 913 q 510 907 504 913 q 516 893 516 901 q 515 886 516 888 l 92 79 l 496 79 q 510 73 504 79 q 516 60 516 67 q 510 46 516 52 q 496 40 504 40 l 60 40 q 46 46 53 40 q 40 60 40 53 q 42 68 40 65 l 463 873 l 60 873 z "},"Ž":{"ha":670,"x_min":40,"x_max":536,"o":"m 60 1230 q 46 1236 52 1230 q 40 1250 40 1242 q 46 1264 40 1258 q 60 1270 52 1270 l 516 1270 q 530 1264 524 1270 q 536 1250 536 1258 q 535 1241 536 1245 l 89 79 l 516 79 q 530 73 524 79 q 536 60 536 67 q 530 46 536 52 q 516 40 524 40 l 60 40 q 47 46 53 40 q 41 60 41 52 q 43 71 41 66 l 486 1230 l 60 1230 z "},"ž":{"ha":635,"x_min":40,"x_max":516,"o":"m 60 873 q 46 879 52 873 q 40 893 40 885 q 46 907 40 901 q 60 913 52 913 l 496 913 q 510 907 504 913 q 516 893 516 901 q 515 886 516 888 l 92 79 l 496 79 q 510 73 504 79 q 516 60 516 67 q 510 46 516 52 q 496 40 504 40 l 60 40 q 46 46 53 40 q 40 60 40 53 q 42 68 40 65 l 463 873 l 60 873 z "},"ſ":{"ha":437,"x_min":119,"x_max":337,"o":"m 159 61 q 152 46 159 52 q 138 40 146 40 q 125 46 131 40 q 119 60 119 52 l 119 1070 q 177 1212 119 1154 q 317 1270 235 1270 q 331 1264 325 1270 q 337 1250 337 1258 q 331 1236 337 1242 q 317 1230 325 1230 q 204 1184 250 1230 q 159 1070 159 1137 l 159 61 z "},"ˆ":{"ha":427,"x_min":40,"x_max":304,"o":"m 295 1187 q 304 1171 304 1179 q 298 1156 304 1163 q 284 1151 292 1151 q 269 1157 275 1151 l 172 1255 l 73 1156 q 60 1151 67 1151 q 46 1156 52 1151 q 40 1171 40 1163 q 45 1185 40 1179 l 157 1296 q 172 1302 163 1302 q 186 1297 180 1302 l 295 1187 z "},"ˇ":{"ha":427,"x_min":40,"x_max":304,"o":"m 49 1266 q 40 1282 40 1274 q 46 1297 40 1290 q 60 1302 52 1302 q 74 1296 68 1302 l 172 1197 l 270 1297 q 284 1302 276 1302 q 298 1297 292 1302 q 304 1282 304 1290 q 299 1268 304 1274 l 187 1157 q 172 1151 181 1151 q 158 1156 164 1151 l 49 1266 z "},"ˉ":{"ha":516,"x_min":79,"x_max":357,"o":"m 99 1151 q 85 1157 91 1151 q 79 1171 79 1163 q 85 1185 79 1179 q 99 1190 91 1190 l 337 1190 q 351 1185 345 1190 q 357 1171 357 1179 q 351 1157 357 1163 q 337 1151 345 1151 l 99 1151 z "},"˘":{"ha":437,"x_min":40,"x_max":313,"o":"m 50 1188 q 41 1199 43 1191 q 40 1205 40 1202 q 43 1215 40 1210 q 56 1225 48 1223 q 62 1226 59 1226 q 71 1223 66 1226 q 176 1191 124 1191 q 281 1223 228 1192 q 291 1225 285 1225 q 298 1224 295 1225 q 310 1215 306 1222 q 313 1204 313 1209 q 312 1198 313 1201 q 303 1187 310 1190 q 182 1151 240 1152 l 176 1151 q 50 1188 112 1151 z "},"˙":{"ha":238,"x_min":40,"x_max":119,"o":"m 79 1230 q 107 1218 95 1230 q 119 1190 119 1206 q 107 1163 119 1175 q 79 1151 95 1151 q 52 1163 63 1151 q 40 1190 40 1175 q 52 1218 40 1206 q 79 1230 63 1230 z "},"˚":{"ha":437,"x_min":99,"x_max":258,"o":"m 179 1309 q 235 1285 211 1309 q 258 1229 258 1262 q 235 1173 258 1196 q 179 1150 211 1150 q 123 1173 146 1150 q 99 1229 99 1196 q 123 1285 99 1262 q 179 1309 146 1309 z "},"˛":{"ha":476,"x_min":79,"x_max":358,"o":"m 219 79 q 233 73 227 79 q 239 60 239 67 q 233 46 239 52 q 219 40 227 40 q 149 11 178 40 q 120 -60 120 -18 q 149 -130 120 -101 q 219 -159 178 -159 l 338 -159 q 352 -165 346 -159 q 358 -179 358 -171 q 352 -192 358 -187 q 338 -198 346 -198 l 218 -198 q 120 -158 161 -198 q 79 -60 79 -117 q 120 39 79 -2 q 218 79 161 79 l 219 79 z "},"˜":{"ha":556,"x_min":40,"x_max":428,"o":"m 69 1188 q 62 1186 65 1186 q 56 1188 60 1186 q 43 1197 46 1190 q 40 1207 40 1202 q 42 1213 40 1208 q 52 1225 44 1222 q 130 1242 84 1242 q 237 1226 177 1242 q 331 1212 293 1212 q 395 1225 370 1212 q 406 1228 400 1228 q 414 1227 411 1228 q 425 1217 421 1225 q 428 1207 428 1211 q 427 1202 428 1205 q 417 1189 424 1193 q 331 1171 383 1171 q 226 1187 285 1171 q 130 1200 169 1200 q 69 1188 93 1200 z "},"˝":{"ha":476,"x_min":40,"x_max":366,"o":"m 74 1163 q 63 1152 69 1154 q 55 1151 60 1151 q 48 1153 51 1151 q 41 1164 43 1156 q 40 1169 40 1167 q 43 1181 40 1175 l 98 1275 q 111 1286 103 1283 q 116 1287 114 1287 q 124 1285 120 1287 q 132 1276 130 1281 q 132 1268 132 1273 q 129 1255 132 1261 l 74 1163 m 308 1163 q 296 1152 304 1155 q 289 1151 291 1151 q 282 1153 286 1151 q 274 1163 276 1157 q 274 1170 274 1165 q 277 1183 274 1177 l 331 1275 q 343 1286 336 1284 q 350 1287 346 1287 q 357 1285 354 1287 q 365 1273 363 1282 q 366 1269 366 1270 q 363 1257 366 1263 l 308 1163 z "},"̕":{"ha":238,"x_min":40,"x_max":110,"o":"m 71 1372 q 80 1384 73 1380 q 90 1387 85 1387 q 95 1386 92 1387 q 107 1377 103 1384 q 110 1366 110 1372 q 109 1361 110 1364 l 78 1246 q 70 1236 77 1239 q 60 1232 64 1232 q 55 1233 58 1232 q 43 1243 48 1235 q 40 1252 40 1248 q 41 1258 40 1255 l 71 1372 z "},"̦":{"ha":238,"x_min":39,"x_max":109,"o":"m 70 -215 q 79 -203 72 -207 q 89 -200 84 -200 q 94 -201 91 -200 q 106 -210 102 -203 q 109 -221 109 -215 q 108 -226 109 -223 l 77 -341 q 69 -351 76 -348 q 59 -355 63 -355 q 54 -354 57 -355 q 42 -344 47 -352 q 39 -335 39 -339 q 40 -329 39 -332 l 70 -215 z "},"‐":{"ha":516,"x_min":79,"x_max":358,"o":"m 99 595 q 85 601 91 595 q 79 615 79 607 q 85 629 79 623 q 99 635 91 635 l 338 635 q 352 629 346 635 q 358 615 358 623 q 352 601 358 607 q 338 595 346 595 l 99 595 z "},"–":{"ha":675,"x_min":79,"x_max":516,"o":"m 99 595 q 85 601 91 595 q 79 615 79 607 q 85 629 79 623 q 99 635 91 635 l 496 635 q 510 629 504 635 q 516 615 516 623 q 510 601 516 607 q 496 595 504 595 l 99 595 z "},"—":{"ha":794,"x_min":79,"x_max":635,"o":"m 100 595 q 85 602 92 595 q 79 615 79 607 q 85 629 79 622 q 100 635 92 635 l 614 635 q 629 629 622 635 q 635 615 635 622 q 629 602 635 607 q 614 595 622 595 l 100 595 z "},"‘":{"ha":238,"x_min":39,"x_max":109,"o":"m 77 1372 q 68 1384 75 1380 q 59 1387 63 1387 q 54 1386 57 1387 q 42 1377 46 1384 q 39 1366 39 1372 q 40 1361 39 1364 l 70 1246 q 78 1236 71 1239 q 89 1232 84 1232 q 94 1233 91 1232 q 106 1243 101 1235 q 109 1252 109 1248 q 108 1258 109 1255 l 77 1372 z "},"’":{"ha":238,"x_min":39,"x_max":109,"o":"m 70 1372 q 79 1384 72 1380 q 89 1387 84 1387 q 94 1386 91 1387 q 106 1377 102 1384 q 109 1366 109 1372 q 108 1361 109 1364 l 77 1246 q 69 1236 76 1239 q 59 1232 63 1232 q 54 1233 57 1232 q 42 1243 47 1235 q 39 1252 39 1248 q 40 1258 39 1255 l 70 1372 z "},"‚":{"ha":238,"x_min":40,"x_max":110,"o":"m 71 65 q 80 77 73 73 q 90 80 85 80 q 95 79 92 80 q 107 70 103 77 q 110 60 110 65 q 109 55 110 58 l 78 -61 q 70 -70 77 -67 q 60 -74 64 -74 q 55 -73 58 -74 q 43 -63 48 -71 q 40 -55 40 -59 q 41 -49 40 -52 l 71 65 z "},"“":{"ha":437,"x_min":40,"x_max":317,"o":"m 286 1372 q 277 1384 284 1380 q 267 1387 272 1387 q 262 1386 265 1387 q 250 1377 254 1384 q 247 1366 247 1372 q 248 1361 247 1364 l 279 1246 q 287 1236 280 1239 q 298 1232 293 1232 q 303 1233 300 1232 q 314 1243 310 1235 q 317 1252 317 1248 q 316 1258 317 1255 l 286 1372 m 78 1371 q 69 1383 76 1379 q 60 1386 64 1386 q 55 1385 58 1386 q 43 1376 47 1383 q 40 1365 40 1371 q 41 1360 40 1363 l 71 1245 q 79 1235 72 1238 q 90 1231 85 1231 q 95 1232 92 1231 q 107 1242 102 1234 q 110 1251 110 1247 q 109 1257 110 1254 l 78 1371 z "},"”":{"ha":437,"x_min":40,"x_max":317,"o":"m 71 1372 q 80 1384 73 1380 q 90 1387 85 1387 q 95 1386 92 1387 q 107 1377 103 1384 q 110 1366 110 1372 q 109 1361 110 1364 l 78 1246 q 70 1236 77 1239 q 60 1232 64 1232 q 55 1233 58 1232 q 43 1243 48 1235 q 40 1252 40 1248 q 41 1258 40 1255 l 71 1372 m 279 1371 q 288 1383 281 1379 q 298 1386 293 1386 q 303 1385 300 1386 q 314 1376 311 1383 q 317 1365 317 1371 q 316 1360 317 1363 l 286 1245 q 278 1235 285 1238 q 267 1231 272 1231 q 262 1232 265 1231 q 250 1242 255 1234 q 247 1251 247 1247 q 248 1257 247 1254 l 279 1371 z "},"„":{"ha":437,"x_min":40,"x_max":317,"o":"m 71 63 q 80 75 73 71 q 90 78 85 78 q 95 77 92 78 q 107 68 103 75 q 110 58 110 63 q 109 53 110 56 l 78 -62 q 70 -72 77 -69 q 60 -76 64 -76 q 55 -75 58 -76 q 43 -65 48 -73 q 40 -57 40 -61 q 41 -51 40 -54 l 71 63 m 279 63 q 288 74 281 70 q 298 77 293 77 q 303 76 300 77 q 314 67 311 74 q 317 57 317 63 q 316 52 317 55 l 286 -63 q 278 -73 285 -70 q 267 -77 272 -77 q 262 -76 265 -77 q 250 -66 255 -74 q 247 -58 247 -62 q 248 -52 247 -55 l 279 63 z "},"†":{"ha":437,"x_min":40,"x_max":318,"o":"m 160 1033 l 160 1250 q 166 1264 160 1258 q 180 1270 172 1270 q 193 1264 188 1270 q 199 1250 199 1258 l 199 1033 l 299 1033 q 313 1027 307 1033 q 318 1013 318 1021 q 313 999 318 1005 q 299 993 307 993 l 199 993 l 199 60 q 193 46 199 52 q 180 40 188 40 q 166 46 172 40 q 160 60 160 52 l 160 993 l 60 993 q 46 999 52 993 q 40 1013 40 1005 q 46 1027 40 1021 q 60 1033 52 1033 l 160 1033 z "},"‡":{"ha":437,"x_min":40,"x_max":319,"o":"m 161 317 l 161 993 l 61 993 q 47 999 53 993 q 41 1013 41 1005 q 47 1027 41 1021 q 61 1033 53 1033 l 161 1033 l 161 1250 q 167 1264 161 1258 q 181 1270 173 1270 q 194 1264 188 1270 q 200 1250 200 1258 l 200 1033 l 300 1033 q 313 1027 308 1033 q 319 1013 319 1021 q 313 999 319 1005 q 300 993 308 993 l 200 993 l 200 317 l 299 317 q 313 312 307 317 q 318 298 318 306 q 313 284 318 290 q 299 278 307 278 l 200 278 l 200 60 q 194 46 200 52 q 181 40 188 40 q 167 46 173 40 q 161 60 161 52 l 161 278 l 60 278 q 46 284 52 278 q 40 298 40 290 q 46 312 40 306 q 60 317 52 317 l 161 317 z "},"•":{"ha":357,"x_min":79,"x_max":183,"o":"m 131 707 q 167 692 152 707 q 183 655 183 676 q 167 619 183 635 q 131 604 152 604 q 95 619 111 604 q 80 655 80 635 q 95 692 80 676 q 131 707 111 707 z "}}}
